<mxfile host="Electron" agent="Mozilla/5.0 (X11; Linux x86_64) AppleWebKit/537.36 (KHTML, like Gecko) draw.io/25.0.2 Chrome/128.0.6613.186 Electron/32.2.5 Safari/537.36" version="25.0.2">
  <diagram name="Page-1" id="T6D3EXJdTKrMOIt02BFB">
    <mxGraphModel dx="1562" dy="918" grid="1" gridSize="10" guides="1" tooltips="1" connect="1" arrows="1" fold="1" page="1" pageScale="1" pageWidth="850" pageHeight="1100" math="0" shadow="0">
      <root>
        <mxCell id="0" />
        <mxCell id="1" parent="0" />
        <mxCell id="1IxWko4nvDgq_WzQ8Z8o-20" value="" style="group" vertex="1" connectable="0" parent="1">
          <mxGeometry x="379.25" y="320" width="61.5" height="60" as="geometry" />
        </mxCell>
        <mxCell id="1IxWko4nvDgq_WzQ8Z8o-19" value="" style="rounded=0;whiteSpace=wrap;html=1;strokeWidth=5;strokeColor=#FFFF66;" vertex="1" parent="1IxWko4nvDgq_WzQ8Z8o-20">
          <mxGeometry width="61.50000000000001" height="59.99999999999999" as="geometry" />
        </mxCell>
        <mxCell id="1IxWko4nvDgq_WzQ8Z8o-12" value="meepo" style="shape=image;imageAspect=0;aspect=fixed;verticalLabelPosition=bottom;verticalAlign=top;image=data:image/png,iVBORw0KGgoAAAANSUhEUgAAAIAAAACACAIAAABMXPacAAAACXBIWXMAAAsTAAALEwEAmpwYAAAKT2lDQ1BQaG90b3Nob3AgSUNDIHByb2ZpbGUAAHjanVNnVFPpFj333vRCS4iAlEtvUhUIIFJCi4AUkSYqIQkQSoghodkVUcERRUUEG8igiAOOjoCMFVEsDIoK2AfkIaKOg6OIisr74Xuja9a89+bN/rXXPues852zzwfACAyWSDNRNYAMqUIeEeCDx8TG4eQuQIEKJHAAEAizZCFz/SMBAPh+PDwrIsAHvgABeNMLCADATZvAMByH/w/qQplcAYCEAcB0kThLCIAUAEB6jkKmAEBGAYCdmCZTAKAEAGDLY2LjAFAtAGAnf+bTAICd+Jl7AQBblCEVAaCRACATZYhEAGg7AKzPVopFAFgwABRmS8Q5ANgtADBJV2ZIALC3AMDOEAuyAAgMADBRiIUpAAR7AGDIIyN4AISZABRG8lc88SuuEOcqAAB4mbI8uSQ5RYFbCC1xB1dXLh4ozkkXKxQ2YQJhmkAuwnmZGTKBNA/g88wAAKCRFRHgg/P9eM4Ors7ONo62Dl8t6r8G/yJiYuP+5c+rcEAAAOF0ftH+LC+zGoA7BoBt/qIl7gRoXgugdfeLZrIPQLUAoOnaV/Nw+H48PEWhkLnZ2eXk5NhKxEJbYcpXff5nwl/AV/1s+X48/Pf14L7iJIEyXYFHBPjgwsz0TKUcz5IJhGLc5o9H/LcL//wd0yLESWK5WCoU41EScY5EmozzMqUiiUKSKcUl0v9k4t8s+wM+3zUAsGo+AXuRLahdYwP2SycQWHTA4vcAAPK7b8HUKAgDgGiD4c93/+8//UegJQCAZkmScQAAXkQkLlTKsz/HCAAARKCBKrBBG/TBGCzABhzBBdzBC/xgNoRCJMTCQhBCCmSAHHJgKayCQiiGzbAdKmAv1EAdNMBRaIaTcA4uwlW4Dj1wD/phCJ7BKLyBCQRByAgTYSHaiAFiilgjjggXmYX4IcFIBBKLJCDJiBRRIkuRNUgxUopUIFVIHfI9cgI5h1xGupE7yAAygvyGvEcxlIGyUT3UDLVDuag3GoRGogvQZHQxmo8WoJvQcrQaPYw2oefQq2gP2o8+Q8cwwOgYBzPEbDAuxsNCsTgsCZNjy7EirAyrxhqwVqwDu4n1Y8+xdwQSgUXACTYEd0IgYR5BSFhMWE7YSKggHCQ0EdoJNwkDhFHCJyKTqEu0JroR+cQYYjIxh1hILCPWEo8TLxB7iEPENyQSiUMyJ7mQAkmxpFTSEtJG0m5SI+ksqZs0SBojk8naZGuyBzmULCAryIXkneTD5DPkG+Qh8lsKnWJAcaT4U+IoUspqShnlEOU05QZlmDJBVaOaUt2ooVQRNY9aQq2htlKvUYeoEzR1mjnNgxZJS6WtopXTGmgXaPdpr+h0uhHdlR5Ol9BX0svpR+iX6AP0dwwNhhWDx4hnKBmbGAcYZxl3GK+YTKYZ04sZx1QwNzHrmOeZD5lvVVgqtip8FZHKCpVKlSaVGyovVKmqpqreqgtV81XLVI+pXlN9rkZVM1PjqQnUlqtVqp1Q61MbU2epO6iHqmeob1Q/pH5Z/YkGWcNMw09DpFGgsV/jvMYgC2MZs3gsIWsNq4Z1gTXEJrHN2Xx2KruY/R27iz2qqaE5QzNKM1ezUvOUZj8H45hx+Jx0TgnnKKeX836K3hTvKeIpG6Y0TLkxZVxrqpaXllirSKtRq0frvTau7aedpr1Fu1n7gQ5Bx0onXCdHZ4/OBZ3nU9lT3acKpxZNPTr1ri6qa6UbobtEd79up+6Ynr5egJ5Mb6feeb3n+hx9L/1U/W36p/VHDFgGswwkBtsMzhg8xTVxbzwdL8fb8VFDXcNAQ6VhlWGX4YSRudE8o9VGjUYPjGnGXOMk423GbcajJgYmISZLTepN7ppSTbmmKaY7TDtMx83MzaLN1pk1mz0x1zLnm+eb15vft2BaeFostqi2uGVJsuRaplnutrxuhVo5WaVYVVpds0atna0l1rutu6cRp7lOk06rntZnw7Dxtsm2qbcZsOXYBtuutm22fWFnYhdnt8Wuw+6TvZN9un2N/T0HDYfZDqsdWh1+c7RyFDpWOt6azpzuP33F9JbpL2dYzxDP2DPjthPLKcRpnVOb00dnF2e5c4PziIuJS4LLLpc+Lpsbxt3IveRKdPVxXeF60vWdm7Obwu2o26/uNu5p7ofcn8w0nymeWTNz0MPIQ+BR5dE/C5+VMGvfrH5PQ0+BZ7XnIy9jL5FXrdewt6V3qvdh7xc+9j5yn+M+4zw33jLeWV/MN8C3yLfLT8Nvnl+F30N/I/9k/3r/0QCngCUBZwOJgUGBWwL7+Hp8Ib+OPzrbZfay2e1BjKC5QRVBj4KtguXBrSFoyOyQrSH355jOkc5pDoVQfujW0Adh5mGLw34MJ4WHhVeGP45wiFga0TGXNXfR3ENz30T6RJZE3ptnMU85ry1KNSo+qi5qPNo3ujS6P8YuZlnM1VidWElsSxw5LiquNm5svt/87fOH4p3iC+N7F5gvyF1weaHOwvSFpxapLhIsOpZATIhOOJTwQRAqqBaMJfITdyWOCnnCHcJnIi/RNtGI2ENcKh5O8kgqTXqS7JG8NXkkxTOlLOW5hCepkLxMDUzdmzqeFpp2IG0yPTq9MYOSkZBxQqohTZO2Z+pn5mZ2y6xlhbL+xW6Lty8elQfJa7OQrAVZLQq2QqboVFoo1yoHsmdlV2a/zYnKOZarnivN7cyzytuQN5zvn//tEsIS4ZK2pYZLVy0dWOa9rGo5sjxxedsK4xUFK4ZWBqw8uIq2Km3VT6vtV5eufr0mek1rgV7ByoLBtQFr6wtVCuWFfevc1+1dT1gvWd+1YfqGnRs+FYmKrhTbF5cVf9go3HjlG4dvyr+Z3JS0qavEuWTPZtJm6ebeLZ5bDpaql+aXDm4N2dq0Dd9WtO319kXbL5fNKNu7g7ZDuaO/PLi8ZafJzs07P1SkVPRU+lQ27tLdtWHX+G7R7ht7vPY07NXbW7z3/T7JvttVAVVN1WbVZftJ+7P3P66Jqun4lvttXa1ObXHtxwPSA/0HIw6217nU1R3SPVRSj9Yr60cOxx++/p3vdy0NNg1VjZzG4iNwRHnk6fcJ3/ceDTradox7rOEH0x92HWcdL2pCmvKaRptTmvtbYlu6T8w+0dbq3nr8R9sfD5w0PFl5SvNUyWna6YLTk2fyz4ydlZ19fi753GDborZ752PO32oPb++6EHTh0kX/i+c7vDvOXPK4dPKy2+UTV7hXmq86X23qdOo8/pPTT8e7nLuarrlca7nuer21e2b36RueN87d9L158Rb/1tWeOT3dvfN6b/fF9/XfFt1+cif9zsu72Xcn7q28T7xf9EDtQdlD3YfVP1v+3Njv3H9qwHeg89HcR/cGhYPP/pH1jw9DBY+Zj8uGDYbrnjg+OTniP3L96fynQ89kzyaeF/6i/suuFxYvfvjV69fO0ZjRoZfyl5O/bXyl/erA6xmv28bCxh6+yXgzMV70VvvtwXfcdx3vo98PT+R8IH8o/2j5sfVT0Kf7kxmTk/8EA5jz/GMzLdsAAAAgY0hSTQAAeiUAAICDAAD5/wAAgOkAAHUwAADqYAAAOpgAABdvkl/FRgAAdo1JREFUeNps/We4pdlVHoqOMOf8woo7V67qHNRB6m4FlIXAQogMxpjHxhhbHAfwka8xGOPr6ww+fi4X7GOSwQiwSZYwIkgkgYSEckvd6qSO1ZXDznuFL8w5xrg/vrWrGzj1o3rX7r3WXt8MI77jfZFdgYiEzIyASEgu+H5ZlkXol9mw78vMM5EBNFHrNjWNVlHqNolIats2JjGNTW2qqmpmzB6ZZ1UtKZEZOYfITOC9R0RD8iGYaT2vJCVJraiaKrzsDyEBInuPSKYCCIQOAIjJee89j8ejpfEoK7IY9er13el0jhpRGxWTFNXEVAAQkIhYiZs2gRkAIpF3jpzv9XuDXlEUmfPOeZao01k1mVZtjJ5pedQ7fXLj1ImN5XG/DFA36er2/MLFyxcuXZ9O52WR3XLL6bWNtaZpL56/VFfzNunuwXx/76CqK01iqsicOdAUiZAQAbo1ADEgdswuqjZ1Y4Cue3hBNXCIaGgkLGqIjIiIjEjErKpEQIhE5lDJUhNTEyUpiFjbqqhqiqoC0ICZAQCAIYAxgJohEjIxIDKzKiAgGBgAdj/5sg0wMEQEA0AEQAAEBAIkRCJEQO+4yLN+r9fGuMMIEmOKYKgGMXYnQcFMVQGAnet+yeLVAATmmfLM9fKQ5cGxa6ipZmoSLSUgH7KsPxgOl5aXlsrcqihs1FYRmqiGrOSaZNNZfenSlYO9AwCYzef7O7vVvFJVAzM1k1hFxG7xQQERoxkoKAA0gNCtKpg5UzMEAjBVJFTAFGOMUUxFISmooSiIaEoK3dIAwGJfAQBMVVQkJRW5sZLdFiBSt6CHS4DkGJHM1MDMdLFT+Bd2wBZ/df/XrNsDAABANQNA57jfL1IK3jskQkQDQLDDPes+QPc+hgiLz9p9ReSd895nWRj0SyZOklRNRc2MmPM8Hwx6435YzVLbxFmkum6aujUAZla1vb2D6XQ2nUxEtZpXO9s7TdPo4h4jEsLi8cHAwAzMbPGE3UchZkfECuAMFAwNAc0A0NTEJKXYxpSCj8laMQ9mBkhIh0fzcIEAACQlTclM//wqwo0Hftk/wTkHiAbd8h9+98/vwOG1sMP3PFw77H6MRI2YyrJIIuzYOW+mKqIKzGymIH9hOxEJAQ83AImZguM8C72y6BanaWMUNUBEzDK/PuDTvfmAm22Rug6TaVU1DQASk3OMhG3TIFKM9e7Obl3X8PJzZIBEiASHxwsBzPTGIjAzIiEid7a1e0g7NBwGlmJKMTVtYm6ZgPKQBwdgTZuaVqB7OwMANJWUooEdWp2Xb87isoBBdw4AjB0DMED6c4v+lzZu8Q6Lxe++RkAwA1Fr2ggIeR5ms0pEnHcheBGRJC3XVpmk2H28l7YT6caNJCJEDN4N+kVZZE3TxhibNt54gjzj5RLW3W5SEsFZJXv7k6ZpEdF7Nxj0iDCKqep8XjVNg4jdhTu80HhoJxYHsPsAZoYASNStNoAhssPuH91VMUNCAIgpTWdzVQUwBHMEZVHmwakZYneloDucKrqwPC9f/5ef+cXuLl7FyECMi8N4aH8I4M+5YbthQxbW0QARTEHRkCEmbZuIh+8QAmfBI2DbyrwiM1NJKQGoACACLU6CmYqAUXe3mKEsQp6FtmlnVR2TLJbQrJ/7I712jJOJ0O58cLA/m0xnIua9W14aZlk2m07NNMYU2wh243WL1WdmAHz5iVxYn84kmZkKMZmRqbpuiToDaqZo3H0lKVV1TQieqW45xpQFF7xzzAZRDw24qJjpy37XS+ca4SUv2vm/bg8W5hpfbnbwL96CG1sAnQUHVcPOSgJ1ptIRee8JKQ9ZvwwAWHGbkmhuZhrbmGJrKguDqYKIKtGURBQMGDF4yoIjAlAlfOlELPX4pmybVSXxtYnuHkybukXCpaXR2vpyXTeTA00iItI93MKYInbOdfHZb9joG1uxcAyISGAgKgBKLz+tL9s0U1FTq5q2apo2atMmTZJ5V+QeEURAzLobAC9b7z9n77vfdOObuAh8JOnhAr/0yr/gOuwlR7M4GwtPgQTEXXjhvUMDBMsC50UoihCCd47YOee8D955j8Q3glsA6r4SETNgxiyEMvOFp34eyiJjJkQs83BioKu8XwtuVf7CjkwmsygSgh8N+1kWRERUVFREiNj5gMTdJTMwU9EkKslUTNVUzBZ+GBGRGImQ6EbA7V5yHIvgQRehi6maQZLZvA4+FJnrFZIHLgIGJjUTtS7qWkQfh9b+xlHGG6YQoLNsxHwYGdzYmL+8+oc+qTNbi1OPCMBESEiIjhduTJI4Qu/IMxORcwmJmImIkYTZiUhniIidmYIZIlmX7zADUtW003llJmjJzBB5fam4eRzVgKS+OCl39/bnVYOEwXPTtnt7k/ls3jk4EQXAkOdmmCSKJLgRCd1YAqDDAHDxbSImImYmIkByf+HR1ZQBD32yGUDTxOm8zgIPe1k+hFMraXd3salJUvdIcBh2LLahu5HEixB+YRaB2QGQmsKhJem2q7u7Zv+P+3DDlQMiMhIxe8feO0ZwDvr9TNQIkbrtIWIm55yIGNviCr4UjBEyO3aOiZDmddzZm129uru1vV9XlSRzId9Yym4ZTGrBrTk+/Pz+hQvbbZKiCGVZSNI2Vs75okRkjqLITFHYhRijxFYl2UsG4KWzSESIi4/nvPfeETEg1XXl/tyzLmyEIS0+dJfPVHW9P3PjYUKE4GCpMANQM0mpC+oAE7y0fogIRIzsuq/ZOURGYiLfnQ0iQiZYhLT45+wWwF/eiRsXioid8yG4XhGG/YIsXR+W03lDhESEgMzISj7LYoqihEiHxqE7E0TO9wflaFAg0XRWX9/aO3/+ysHkIIqpcZbhRtGOqZrG/HPn8JFnD3b3JmVZDofD4ahP7IgdmtV1HWIKxWA+r+q6SSmpWoqxbWozJWJEFBFEIHJdoIxEYEBMeZ45x0Sckly9fMkdesAuF4Bu0ekw8+k2JSZp2jirY9WmbGD3bugj57FzEoBAhMSsYouMCYCYiT0iARozO++JO1tJAMDMKEa8yJ4ADG5kZC85DPpLaUF3Bcgx55nv9/NBP0eLg36mZgYsBszsHKkxITW1i0leHn12Z8U5P+wVw37uHM/q9trm7rWtHTATMXKYezpVzmKU61P64yfqnb2JqQ1Hg+GoP15aHi6tAMJ8OgnzKqmpUdXGFKWaz1NsJYmIdBYwpShJkMh559gBgKp29YgseB88IG5dvS4pum6p8S8lovRy/2mgCvOq3Zum2ZCPDmC5xN2DQx9KxOw7B9RZHmZPTF3aEkLGznnHzjsEVO3yQiP2xE5SfCmj62I0fJnTtpdHcQTQrT9lwfWK0Cvz1DZZ8ICtKRCz9z6EABYjqgse22imXVEIFkmUd84777x3Mabt/enm1k7bJkQEM0Lqe7ltOK9r/NSz8bGzjYqOl8dLS8Ojx469+i1vzfvDy+devHrhHHkvCvOqzdATi8tyU7XDR2vrOrYtACATEwGiipgBmLJzIc/Kfr+u6mo+j23r/h+jwBv+0xZ5HaphG2XeSjS3WuJKn8/SYcYNQMxI1HkNJAbq7AWz8z7kWebywJkjJKqbNK2iKhAxOx+b+Y3FflmsRt2FfVkAc+hLnGfHIfN57geDMra1dyRiYlDkDpGSJBGNauwCceMYQV0XiiIzsSPniIiIZlV7fWtvNp0dBg6IAKtZvV7gzgT/5EuWooaQLS2NV9ZWv+Kbv/nLvvIrCoC56WTvYHpwUM3mk8lsMpnFtt3Z2t66tjmfzVJKksTQnHMqwt4DgKoQc1GU46XxcNQ3g09/5BPbm89Vs6mILDJhJLzhrBCQOxvdbQwiEQNAEk2irTI7umtDHz3vGmY4DEMRX3r5S3aEHBF5psxxnjESMWKbpIlqiEiOyKmmv+AJut0zk5eHsIiIhM4zMXlHwbF3HDwXecgz1wh67723NrbzeW2Le0k+OCJuYjRDdouqESAmtVkdp9MqpdSZWWIObHevS+n5kYvpmWuIyIPhYHl5/NDrX/+6t395jPG9/+XH1jbWN44eH6+tDQeD0TBnt8FEMWnTNCrS5VpMZKr1bA4iRDSZziSlVM+Q6A1f+c7nz1/8yO99eD6bNk2lqq7LMLv6SGf0yXlid6NydcOJiVpMtlfzZp3dsRqHPV+3IUr98mQKD6tmzFwURZYHAFIFZHCegiNHWKcwq9UMmInYH6YtCqqHqRseupOX239gduwdEjERMxICE2SZ6/UyqC0EzwR15Z1jxoSARBxCSGxRzACIHRACcoyytTvb3p3PqwpMgbqiDQ5yu2WV6qh/+lw7qbg/LFbWlm+57dbXvOUtI6IP/M4H/v0/+f6Bh7zIQ/DeBVFBMFVDMOeYmZkJkbxzAJaSmJmKVnVDRG1Vv/sH//nrvvKdX/jcI3vb223TpBjNzDE7AUFcnNauaox/vpTWxaNJbF7HvVo25+6eMRwf0+4sqKqkuKhAdTkuAhOvjPtH1kZZ5kwNDIjAOQqOowdDaFptk0bwlnzTgJqgkaEs0saXxS2ACF0kg+i8Z2I+7F2IJAAN3oXgmyTOOe/I+24V2CwmETI0M0AgDl1sAMS703b7oG7bqCm9PHJb6/FKAV+6Jp98UZF4MBycOHn8tW9808133Vmbvf9n/xsDELsYo6YkXBN2tR30jl2XnbcgqhFAzCRJEgUAYqeSesP+q97y1mkbH/7kZ2IbU9uqKJi54H0LgEghhMNg3P5CitRtiYhWjTQRGsqJ3alleGEHPXNKTVO3ZsYEAJgF3+uX68uDpWGeB0YEVUupq1cgOwiOy8JRk0woZJkZtKnL5hclLeqKAl0Vc3EjEJGcY8Qu5iJAi7FBxKLMg2+c46LICLRLBrr7mpKaiKohOXIeANh5ZG5FJYqJqMrijiEwcx7s8xf1i5fSVsVlma9vrN962+13P/RA3/GnH/7swx/9aM4YY2ICYCzzvFeEzHtyvCi2EXd+GBBTEgBQgf3JJA9hmMHd99x+xz33Pff0sxfPnlMzXRRe0RkYEYUQvHdtkpeW/mWGnCgg0qAXBqUrMx/KsuX6lafl4hz2pqlq8v1J1cTUHcAyz8b9fDzI+oXPAwNAm5RIVAHAkpiaEWIWvEVWzwqZVCgogAiqBGimL6v/MyICITEhMRKyoy6tS0myvBiNxuV+ihAHvaJpakBQA1FLYgCk6AC1+3lEQiSTJDFKjCrRoMvUDJkN6dlraXti12fOe1pd2zh2/Ngdr7hr7dgRBPiT//0b04M5MnhHReb7Rchzz4SEyF3upJJiFFFCNLCYBAEVkBEkNkeX8cvuWV8ZjT9z/dFqPo9tw+x8yGLbuiTqmLPMAyImNDhMPRfFUWaXlUVYHRfLw1BkYWWUZ1mmYXDz6uTMerjq0+6sBSQmVLAY1TnXK3yZudyzd8yE3mmMmAySqJkgoQEyofPOxUjJ0Hk2XtSJRLra1o0ktiueMHtAIsIi9/1elmcBERxTUeS9Xhm1zjKvlohQzMQgiQE5Yo8ApqmzojHW1iw6oIurvmjRsKrtVTbTnIlG4/6xE0duvuXM7Xfd2Svyqwf7H/7AbwJCmYdxv5fn7BwxYkpRNJke9n8MyFTVDMERiWhKLSL0cxoXtjEODmB3d7+pagR0IZT9QYzRMTtk1zmMl60+EGEewmDQE6Myd2vjPA/sHZqpgBNXsjXrA5606AINSq8KaiYGbVTvKQTHjpjRETlGQmRVJooCoMkxOUeqQWeVGjChGgOAERu2GA3AgPwieXKB2AERIubBb6yNb7np6JH1fu6ZHYXg+r2iFUNa2DEiFgPtesLskFBa66yYSquqeKNwRQjW1V0AzHyWO+dDFjaOHjl56vhdd9+5fuyIB/jUH//R2aefWV0elWVuEkWEDIzAdQ3fw0q+qSa1JF1WId3hAVUC7Qf02DDA8vKImQE45Fk5GMU2OXIOkaL++QqA2XjQO7Y+LovQlWmHvcCEpta0ad5I3XdD5CMD3WlcFX2RqaoxIRA0rRJh8OwcAWAUZQJmBGBHRujAIAuc1BwXVZPqOEE9LOMhss+InXXWmWnRlEbq1nY0Gtxy5uiZExvLI595RxwQeThIbbI2xtm8ilGjWJvMENGFvCicd/V8nlLKi4IJYz2PbQsIznvfVE01NwNm31k57/1gNFxZXT5z06lTp09nZZkAPv6hD6FoUeSZd+DRUjRVMI2pC9vIur6saLeVogIGqmad/SbyzprJ3l4zv/+V9x49deLyuQs+ZJKkHA4dIpn9pZyfsCyyQT8vM3aMRJh5ZwAxStWkWd22VjjPK6UNcmeIeQBEdNRtPagYEXXWALuIHw/7iojDEh1T1YoaDAd9Ndjbn4mmGz0aYofs7MYrAAFBFQFxaal//Mjy8tJgUHAI5H3mqjiqY4y6P1E1a6LMqtQmY58NBoPBaMjOHeztpSRLy+Oy16/ms4OdnRQbRJC8QF9I0q4/zox5npW9/srayvGTJ5eWV11R7Fazpx95ZDDsO8/IyMihzMt+P8sziW09m6W2retGUlIz6cIeICBAAlNIajHpLPLOpRdf+OIn73j12//q3/q2n/yPP942bcizJOqcc2lhdvHGPgTnmF1MaoGRKM8cALoOYYEIapNaZ5wVAZZ6bO7woDKaquiigGyAMYkIdnAKUVUFBegcKUZFJB94eWlUlsV0XjetqGobTVRNBV/WR+r+k+X56vJoZdwvcl+Wocg8OSaieZ23rYhKFpwaGHLR6+dFuXF0Y/3IRtM0IQtLS0trRzeq2Xw2mfTKvJ5O2rqq6yYqJLUuug3BL42H6+vLR46fOHLidG95jZmuvHh259rV/rCf55nzzjsOmWei2NQAmA8GbV0rmKpzqhKTqYJBZ5zamFhUzC4e0F37k4d/4+dP3PXQ297yxksXLr3v53+F2Bc9cuyYiGJKKnpYfjHvPTIDgHPkmRyhYyoyZiZCDAGj4FTCaojLJVXoHQIROUIDFbGuYUmAUSgm6er6kBZdRjFok7XJiLCXO0LEQahjsTdNohBF563V86app/hSkRZCFtbWltdXhmUv994770IIzKRqvdzXvdC0sQguBD9eWVkK/VM3nX7D299w8syJz3/i8wfb177i696xdvzoB//Xhy6ePTfuF/u727PJ/mzeZP2hAjK7sij7w9762vLxo2u33HrT8TO3uKJPAI998pNxPl0/up7nRZaFLPegCVI0JQBEz45LMkuxNVX1flEQQyZHIUkHnGoAd1vExz78W//13331d37Pt/y1b9Qov/9bH0LnnIkiISMuwm/E4HxRFG1S56jIXBFcr3B5cM4TIyAAEWUeXZb1QrWGFJ1vdYE+QgAzEbEkJmIMSMhd25hpEWRljsQbgusqNI7RDJrkHHGdDBCTUd325vNiOp22beyaseOlpdXl0XBYZt4RIdEiV2C04KnIQpG3RZGNRsNyffXBt7z5Le948+mVsQO49Y6bHVmeFfN6fs8D9zQHExn1emWYHvSjmlJwPgt5Phj2x+Px8nhwZG3p9M03LR1ZVwQA2Lx8oci43yvLonCMzpNGMFRkIFTVNsZE0jpQ8iyK7DKXFy5kXcpWz+ZN00bTp3bkoSMJH/6lz6YLr/uen/zWv/ktV69tnnvmeSeiJmYGwbl+Lzh2IQTn3aDwR1fK5X4WAmeBMs+OiRFtEamaAAP5QcBlolkKXZynCgCUBEikbWLX0u1ibUBMQkKAAKMeqUESS2IGaIDEAoBDDuhzn2WOua6bqtWDWX312q73fmlULo37ZZ51t5sWRXQBACYuMt/v5cNh7/alY/e9/V0PPnDfzv7uj/3bf6WG3/Ge91y6eP6H3/OPS8/f92P/5U3vfOvnPvLx4HllbS0Zkc/YZ/3hsD/oL40Hqyujo8ePrK0vhQ4eAXDkyJGl0WBY5ESgqTG1siiy0QBRLSUkZ+RS0nLQp7xo6hoA67quDvbFwHnPPnilVtKVaXxsi//eqxtsnqpjPPv02Z3NnWa+79TMe7c87i8P8/EgyzNvBnngQRmG/VAG7iytc13HqeuvAxIkhcqCZ/HGAbnLortU0JtRRFO1FtSMEYABkctMHVMSdQ5VIYolAUNG9li35CDvDftLy1mWMfN8NiefVwlGZ883dbW0NNhYXxoM+3zYV+jMJTPlRQDnBfDEqVM3v/XrTx47/v5f+9X3/pv/z7NPPjMD+MNf+7W2mrxw9mIJ8KPNu7/vJ3/mnodede7pZ/vjpd7SUshy9n4w7K+tLY+X+gOA/Xp+9kuPH+xslcPxFz7+sSf/7CPLq+vD8TgLnskAjH3I8kCMqa7ns4qzLB7sV/NZvbtrai6EmKKkJCpJFy0uM2OmO9bS0ZHbP3af5r0P/PJ/u/DC2Way4wDp1LHlW08slbnLA3smNcsDB8/ec+bIO+y61cxIAGKGhI5IjGsLkail3PMhDKxrlpoBYFcMMQMDY0BkUCQiVEMzNIfOKCkYh95waZisSZIV/fHq2trpW5dPnqqmk2r/YHYwKXM33d9bW1s+c2JtaWXkHSokkWTqyTOxI89O0YCW730wX13/59/7Pe/7iZ8sPTJDT+HpJ5/q5dQLWLf28Cc+9cGf/Ilv+Kc/dPsr7qpns9TW2razyf704qXtJ2c7Vy6/+PyXnvjMx69duKSqFMKVa5unjh9dWV1rYyTn8l6pKaWU0sFBjG1b16mNMQoxmtlkMkVEDh6QAFBUk2gSi6IxaZHpKzasKHL32m/4409+9pnHn2qqebV/4FaXB7efWlobFVlg18FBER1jV/IlwuCQGLuCmhnyYZ1GVafJl4xd79g5NABiQiJWMzUfXRRBUBEys24LEdEADQjJcVa0bWwVB6Ol5ROnY0wieuLeB2599et2L144+6ePH7n1zuKOO/u52926Phz2jqwtDUqPIKmdNtJkqoECOU9GjExZzx+/6Qfe/d2/+YvvXc5Cv58TgPdZ29blYDQaLTvHg+Hyc0+/+HP//PuW11auX7yyfemFZronqQYVM01N1bQ1O9dzjpDqdn91XJILddVO/LRp22o2K4scQFJTE6ilNJ9XTdMamHMOAMxQDJGdiMSUUtQoGqOoWeH1+ECoGIajd3321z9gIqBmYG5jpbc8zMvC5YHpsDNOiJljH4gJAxMSiajoITYUwQDNsE6AHExFtTP1yMTMrKiONcucIjStOOt67gZA7B1yMKCQl+R81cjBfjVaWb/7y78GVDCEtY21j/7mB37+h77vwdXyoXf/n/d81TfOrx9hwkE/H47KMnNNG1u1SBmNRr7fY2bLBrWxCv/pBz/0kV/9pRODvIo6zLN+GbxjgswHZ7Yf581sfnlOun/ezpkQISJCEgKQpDHFto1tEqsbACR0rcJ2VQv0YDnkApq0tXY2ncS2QdPYtpJiXdUGRgQ+BJcVHBw5p4BRtKqaGLvKqXrPfWeBEUfH5zTY3dljx10Pxt11eqlf+MyzZ4KXBd6HTUIQAARW9uSAAehGp9JMzKIqO0eiBuSccyE4500VfeZy4DblqStHBgMEIOeDy3J0DgyzpY21V77p6uOPXv2T34G3ftX67bc5gF/9mZ/5D//oe08Uzt38YH705Hx3u7e85Hq9slcywXR2MG9i1XgAvn65me5eqaaTyf70/HPPXHzuuc1z5994503PXtlspQ7eipDK3IhYYi0m5AARxWA2bwCZgy96Ax4WTasuL8ZLKydvuyMUpbRx8+qVc08/c/a5F8Yn1o8e2di+clnTPoLF2KTYmiRH6ByG4FzwxKQiImptiyFD55tZPT/Yb5tGDcTImA0stUmpzJeOXp018+mc2HWtLndkpecdmYIZdKihDoNpBm1UZOosfsjK3qAfvBPRRbCpKimaLW4fs3ees+A6+G1QBKAeUDI0I2JvSD7kC/SRiB+vbbzha5um+uKf/MHmx/70eiX9B9+wv3ntp3/kP2jbHj+++smnL7kP/+Hxm2+dHEx3r1zcu3bl8tnnZvs7eebYBEA0xpRaA6ims7puAGhtvOR96ZxzhJPZ3IGfTLRO0rQakybVQLA2wNXbXvn27/o/T9xyW9Ef5r0SDRwu+qtV1bjMq0psm2tXr60dOZJR+rff9bcun3vBwGWevXcu844wsGPHPs+ywaCezdq6QkQBTE2bRAAdeZIYRTS1bWvQ9MCQHaGRd94hUMgyHi85x9jVcLrSEhMgoS1wegYGYpAzZ5nPsrzoD0JWsA+mpqkFBBFNTQ1mLu+Rc1lwBIeVHTPkzDiAyxXIAFzep7wPzOQCrRx/7LOf+5V/9c/OP/LZ5dXVR37jN6/8+m+qTPt5Jokv7h5AqP7wF3/aYdIUEaUIvuyV46IsellvvEI+b6Og80AOfZ73B6OV9WK8srGyvPzb7//Mpz93eXdyYWcOBkm7Swy5x1ee9O9+Y7/39q8bvPGrJKa2bq6/uIWx7gWHIPv7B1VV1007mVbzVsiHze36He96050PPrB75Zwv+tb1dJiJEBDNkXEQQMoL75yJpBQ1JjWkrKC2tSRqamrkHDmIYjrfPbUyuPWu27/wyc95nxmAQ0THi1YYIhAhExJ1WEwC6KJOIzRNbWpm2elXZmfuZ0KabXU9HZAobU2Tq0RELmCXLRBjbwmzHpZLWIyQKTVtVbcpyXR//+wTT37+D3/m4Y/8CcZ0oIDzgzzgsaHbmztSuyI2n1XH2FaOrJy547b+8mpW9EarG72VtcHakZVjp/vLqyoSm6Y3GvfLvJezJyTnyVH0g81nH3vhyS+o7zcSM89NkybzlEQLh689E15/c3jmyqdWxv+vq1d2D3Z3Ny9d4lRPnc7m8/2D+byqZ/P6YFoL0Ghpua7qF56/+NqvfMfDf/S73nGdwAAVwAwNySFZkjStVEUlonWlVTIRlcXcBQI6H4Bw0uiLu3hmNlu+/uipm08/8pkvhCxTQMeELhBhN7WBjF3dFz2jWTcSQ57JMTsCWrv5iq585qd/4eiZW47fdOvyxnrIGAMW6wOr9syk5lyS1NWsberZ5nzv+gvbl8/P9nan+7t7165dfu65/a2t2f7O9GBXUyqKDNFm+fKQawRQiYXzdW25d1vz9sLO7G//q3/7ld/x3ZISAoS8x8xkarHBdk5aF26Yk2Q2JWmkaubVtJkd8JnXvPJbvvPDv/87mWz3ysBMu6IKpgZt0r3Kco9Hqqd1unn96t7l8+fne1sFttM0v3Dx+ub13bqVWR3ntfi8APY+y1547vxb3/bWY7fece35Z01dkzpwhUeUrv4LKik2BOCyzBazJ2RmllLueTwIZXAAUub+M+emt5za6l34xFe9/q9dufy6J7/whMuCQwImRAAi5JfmXhAA1bQLSR0hgTBaGB+Bcuk3fvzfaowra0eLzPncj4+eOHripitXr5ppO5vNJ/uzve35dNpUM4mtxgQApsAMzoH35NmNBsEol2QpJmYwsK1pU0etW6mjlD7LEBu19VvuHni3c+ViqmsajCDLoHPzFl27X8Q2C0zEgGYEjjAiyNUv3ffQm9/5977/V374n/V7Lim0Uafz1CbIHT55Oe7N9cSwev6z/0N7X6kpDktPKW7uz7e3d7f39udVms5jkywvZbh3MByPN69toS/e+Tf/9nv/1fcPe/nuJKaoooIAXpgIwRSRiTkmTW0TsmwwzPocN0b9Myu0lrfLofEoMVVt0862r+y/+MXV5Vv/xnd9+6/90vtfeO6s6wDFHQr8BoI0qTWqYAagxORARS2Jpt2rw+OvPnrLbS88+nA12+0Nj+Yr64OjJ3a2Lj39sQ81dQIAZvCOnOeiINd3YJxSSsnEgJxn75NYHbWVWLXSJIXZ9d2CtyexQ+9kRGY2Lovt+bxpo2saFxtlov7QLy03bbO5udnMpkv93i1HNrzOoJmamjF55yI7mW2m5//sXd/212+96+6P/fp7/+D9vzwe9kOgi9eqOuoLW+lDj9ff8WXl8ef/J/yVL7dqlEE5n+1fv74tioYcNUWFNik0TVW3JgmlvX7+4ju/+du++JE/euLP/qgIfu8gum4igVktISKSM+Lc03Cpd9Op5WP59PbefKNX9TiSiajNI22Jv5yGz+0vT/X+1x156HSR3/+aB65vbrss+Cw4A+uA5l00wAhAqGqIoAopGXpVtdQ2zG7lxKmrzz2+uj5eO7Y2OrLWH+WtZCdPLGlsVCy1bRdSkc9c1gv98ZkHvmy4eiQv8tXjJ3/lv/znZx7+PAAwITOqmiOYzpMaIIBD7GfO1Ma9/NTG8mC8JFkejt9UDgdJ4PMf+9j/+umf/tLjj0mS/srK/Q8++E3f+g1v/LL7enEHZvvKHWYade+iz0dvfvPbztx934vPPXP2yS8MyvLEmp27Vh009t5PzR48He47sV8+/F8f+qr/dOmZs85RMVgaLVcRMuXKQpT9AxHVmDzZxnIJ0x1Ht/zV7/2+Zx7+RAZqyEk7cGcEhbxXDAflcJCtLWXHh3DGb63Qbo9TVfPzeoROviaceuDoXa+6+/ip+7OgqlWSK0rVpasvPvPcdG/PZVkocg9mssCzW0yqpgt4FoKoJtWCkJgt1iFk68dPbK8W41EYLPVzT3BwbXblbFtX5PJybf3IrXcduenW8cbJtTO3Hj11usx8vwjDI8f3q/YX/9N/vHjhkgIw4qjvRj3PjGYQY1c2wdzzUq8AYBJ465tef8edd7R5cC48+9E//vSv/MKjv/cHbUxftrbGmVim//tnfvaXf/pnvu6v/7V//6P/7qYB6d4mOwZVTbG+fv5sDZCP3/3vfuznfuh7nnvysbIojq3C5a3q4p78/Cdn/+7rRsMLf/Lik390+r53Pvbw48VovHE6jI+k/YPq0pWrZqCxHfbDUt8fXSp7lC4+/8ydd9/75m/89g//ys+sLy1t7qkAeZ8Netna6qjIjduZ37sM8zouZ83qkfbUa46/9TtfedcDJcAOwIXru48+8+JzT33p3Nlzk4OJiAUmbaqD/QOXl0VZZN1am0pVNVo10pntBSgC+HDA0+p9bg/WNtafAbFY1zvXZxdfQPDrt77ild/wt0/edufK+vp4aWngwXfvV03bag/CsReeee7/94Pf/+Hf+gAABMLxwI/7ngmCZ+cQzCOCAarpPLX3j4ZvOHXSBsM/+YX/ftub3vy5X/y5L37gffuT2V033T4zgINr60c3bP/K//GW173vied/4xf++5UXz/239/3STXmfqymCtU29d+XpzckTu7HcuOe13/Vvfuwn/+l3n3/huWG/l8Qk8Zc2/WfPpbfc5uvf+qG9/sqZ2+5IvjhKfmdn//KlqwKYhQzi/Pj68MhSOe45Mz37/Dkpxt/499/zhY/9UTzYHPW5qtNtt55u62k139q+tLNShvU777zt9W955VvesX7m7pazC7sHf/jxzz76yGNPf/HxC2fP7m1tpzYaKJqtLI1uueXUoJ8XJPhLP/oPB4N+CN55h4htTHXTNnXTtk1qWxFBM+coy/NQDvLeoPf6v/G7/+v9v/sj3zdcXTp5z6tvf93b73zjV5y89fYhzGn/sjN1CI4JkVJbJ3R67I4PvO83/8s/+77Na1cJwBGuLYXxwBNi3UjXctC2bUXQZ6XZm48dPVos/c65/YPZdNXp8ihbdmrkL09bKMYWKyfV0ZXlydVr+01aOnr8t5+5un1w/bt/4F/8yI/8Uzj/8N721vb25ub27uXN+W7jYXD8zte9yenkf/yHH/zCpz7lnF9dPn6wf3CsnP/I14f1AT615Q6OvxXv+Irs+D2VW/rknz062dsnaQO0KwN/fGO0vjzYm8Wre01C/45vfOdn/uADP/UD//DE8SMd7Hc+mY7Wjt37+re//l1ff9erHgKAC9sHj3z+0c9+/NOPP/yF88+/MN3bTbFFBCIi5jz44aA4deroLbfc5L1r69oBKKIgOkRg5oycz7J+vy8ptU3T1lVKMaUoKWqKDAqxgtA/8qq3fd33/sCd99/XZwnNvrv2GKaZKGDIOYRkqLHV/spuvvYzP/hDv/p//7gAMAATrI/DyihjwjZK5qmNcnl7eu8b3vCK227rPfpntr19arjynx/frpC+6f5XjGj/llMnz17f++BnPr9f7RajxhfDc5e2Bld33nL76XiQ6u1r943Dk7H/v3/xf/yDf/zdp30OiGomSTWldt6UvZYk3vWqV7/2Xd/yuY/9ab/X21g/2jR2+aD+X1+Q73ydX81aPv/7O0//we8+q6O3fvfrv+XdT37+8ZLTsKAAUma8tTc7f/VgFmFapz/6gz99x1d/4+Of/MSfvv8XncOit/Tad3zTu77zu++87c5dsY8//MRH/+hPP/exj7/47HPT/X1pWwChrg9OjEjB83BYHj+6ftOZU6NhPwseR6XrIllNrYCYODM0BCL2jpgK752m1DbzupqnZj47MP3Sx97y0K3veMf/XQxGzXOfmk+2tRj4omTviDg205QyHR8PK8uXru38m+/81s985I/pcPVXR2FpmDlGNfOe67pxzv+N9/zjr/6ef9Z+5INw5akvHEx/5HMXp6n9/m/8ytNDC8XpP3z4ufd94pMnV/TIsd7bvvKd99/3wIvPP/c7v/cnv/fUs2+7844L57eyXL/6/puvV9MvfvZzZ950O8AlXcQAMBr1T95608133jaZz//sD//QOXbepZQISXzxB1+aDXNc6cGL2/K22/1X32Ef+7Ofunbm5F9511/fOfsctHPQNJ/Nr25NLl3bmVaJs/D4w48OCv+3fvBfv/DM86Ol8bf/o/fcfOcdVy9c/JVff/9HPvK5z3/qs1tXr0mKYGLSoulitpk6lKofDsrTp47fedetqyvjMu8GNBvHCKhiAmbSaJtErBsloBsDFEgEeeZT0ljP09kv5Jtn63K5Zp/UkEObFCZ7IWRF2cuWN+zMg5L3Pvpbv/VT/+L7Xnjm2a52F5iWR2HU994RIjjE2XQ+Xj3yXf/yh9/6zd9+7drW1h/8+nrAp2Xw4t6Vb/qyB247Purl/Eu//acfeuTxNz14z9jJC5t7v/r+33vf7370W7/5a/76X/36n/jZ//HJsy++Yqmvsc4D3JSlzeee0rc/sKCIcLyyurp84va1ex/Kivznf/xHLz3+1OlTN4WsyLJSVTOXb+3Nf+4T1bFxeHE7fvhZuu8Yr2bVzuffP3/LmzeOb8yuXW6j2zmo62TT6Xx3/6AowtIgf+Hzn7j59Np7/uN/tGa2v735/p/+48cff/6RJ86eO39FkhIaWlJpwW6MVhG5zDkeDnu333bmvvvvOnZkpd8rHGGMMpvNu7FvM41dg7BN3dzv4VgJAvNiqgqJMKYmxp3tbdmZgMtclpf9kc8yM0CNXI7gxANb1zbf+//+O7//678WAXKirhA96vulgc8z12Uu1ax64G3v+Ns/+G+O3HH/xODqB9+30kwg6398b2tY5nffegtI/dyLuxevXPj6B+6+7xWvzAa9e2c7bVNd29l+/6+//6EHXvXOr3jLT/3CrwwHq6nCZn9yZAzDuBOVgJ3Pe+MVn/WWx3e9Og6WfvSH/8N7/+tP3HViY31lNK9TUZYro/Hu3k6RF7sH7dktNeOLezaL/s41+CuTZ3Y++B/jl/3DtfFwcjAl7yTG1DQoEZpYDKDvsi999Hfysrx2+dqVq7uXNw9eOHf9+rXrYEoMUs9AFW/MqAM6n2V5tra69Mp773zVK+84srE0KPOQubqOFy9vPvvCJeeD857amEQVzNB0MQWPoGCIpERowOwIhIgAWQ1SEk01s0NUR+Sc8479xunPf/gP/+e//5fPP/HExtK4LHNA7GU9RJnWm0XumbtZEXzHd/yDv/GeH+hnfuowXbpEn/+90yc3PnF27+Lu/s1HRt6q8+c2Z7W94d57jt9+jxX5td2981f2jPD25aWvuf/2X/7YJ++7+47RsOfKwU0bKw8/9TTVza3t1Mhx6PUH2BtwdvzOeW/1373nPb/+8+8NWXHuyuUzI9fLB9PpdG11rarmVduUWRFj7GYRlor2777Br5bttUuPYHM9K9amBwdNNYvNPPPABQ8KzFlI6mZS725u7s9SlWBv2k5rEYEFUYnaIUgcANBl+Xh5dOvNZx584O67bz+1ujzIM48IMaZr13c/9bknPv/oUy6EEAJ3syWWhBAdQ5IOEkDI5HxwIWcilSRigIZkDolC1uv3ekXPh8wTZBunL+w1v/Rvf+jKi2eHSyNJ0jRNUZYnT2ysLZdPPjNTS2iqit/1L//T29719f1mby6jycVLkz/69Ww8jNx+YXs3ScPN/gvPPD7OKGHAord39snr1y/NqikCcRhN1x5YHtNd6+Pnzl307HcPpnccPT0eDCftzt7O1p71ZXRTOapdVtaj0z/8j9/zqz/xkz7LgzVpf/r5C6OHbhvOJ1tN6A+G/Xk9S84xYRNjxtgPMsq5FsL5Vn/vee6/Ebb3SWPmadRzXGa5h8JD5tEMkmISm7daRWwVzWUAczDpoGVmgIChKI6fOP7QA/e88r7bTx5bGfaL4J2pHUxmTz3z4sc+8YWnnjl3cDBxHTLXO1aVlCTFlCSlJKKKgM57X5Qu5KraNgaISMCM3vssZMNhPy9zxxjyUo/c8eH/73++9uJZdp4QyTnv+eja6ivuvGk62XEEiM4TH737rle89Z0433UOLZQXv/jEztWr7X7zxPaVL02a0mETq6o9APKNTerptZja4LnsMQCgzkkrcfnN474L8dPP7KRBsbo8Ora+stf4T33kY8c+8one+Pi5SxeLov3Q7/5f7/upn+K8WF0eLvX8yolbT91y1wbuPbO5NW32g3PDwWA+r1zwURVQCCn3aAb9DIrqbELni6JwOu45SjkZMUoHR2zb1LRSR1HRPAshZD6k6CszBBTQBEQ+K87cdPrL3/qa++4+szLu55lHxINJdfHytceeeO6Rx569em2rbWNZOEeOvWNzbOa8WAwaU8ImYooA6ELGPrBzEBOogBkhBs8+C/1+ORz0nHfMTm5+7SNfePIzv/u/2YU882LAnpeGw43lPmg8ONjvlcWg7PnQe8d3vWcIzfTKizHL2cItD37Z2q13PfKh9/3ez//M7jT2M3SeQ+HQGSkEJifBoCMvAgC9fOHp40dOZ0U+nNeZpWPLg7X1le2dbZ7q5e3ds09dePvb76hHa3/8u/+Lr134Z//g3YWDm08cHWZUsnhtsfGP0fyzT7+wWUnbKnuum8Yxt0mnEQNj5qBOWKTdav+87FwPpEt95yHTaCnBrNKm1jalNikiBe/6hVtfGTjCHYvTA0REM0F2qxsbr3ndA6+855blUekcVXV76fLmY08+98yz569c257OZiBpUIayyNywX/bKYGZiYEAiEJO2Mca2FZWO5MFUwNSQBAgQvHNlkQ+GgzwE8CEef/DctdkH/+uPzfd28+CJSETKIh8N8txDnmdZ5o+urvWW1h/61nff/cCr5OzDBztbk4Pd0fLZtVvu662eXvr2v/uFTz126Q8/ZNY6yhSsVej4t9S6ib8F/dP+bC9d1FxwqZe/4ujyHbecdN67PKTd9vpcLj3xua0VGVn82pNBxzfHakIQx+21AnMCa9oKdf8tx/c2QH/6k/NkOQI0MQESAIXAgFgGS6r1dB8R2JpeGWKTkTax4XmVHGGkBVGJcy4EKDPWfvA8ICb0eVVHIhoMBjfdfHxtZQwGk3kzOZg989y5J556/vLV7fmsktR41HJQrCwvIaHrDfvDfmGGCiRGSVEU2pjapor1LMVoBoQQEdh55wUwZVlW5KHIMyKcn3jN1bn//Z/4kUtPP8bOOaJ5bL3zR1aGq+PyxIljbTUNjMfuf92rv+U7Th9d1WvPzFIUFTKdT3YmV88uHznzyY//2cd+/yNFNszzuUKcR8kDdSwIXRDV0bigIRO27Xw+t6OD/mvuvOnkkZXz5y9c2d57YWe62+Lk4tPP/f7zONmnejpcGpSj3mDUD4mZDK0qZXejv+swfXgnTquanGvaaKa5p6VhVhZu0sp633Jn23v7w95S5i4mj70MIbq5UttgEdAEmxYlaZtUYkJQT1Bkfmlp6EJvd5aA+Nj6cG1lPJlWz5y7NpvNz75w/uKl65PpVFNymEaDfDgcjEZD73gyr1zIiqzsM3lFp8YKKAYxaVVNqwOKzVxSMhVioASOkQCLjIvMO7JYLM97Jz/2E//yc7//W90cU9LkCI+ujleHxU0nTvaLYq+a3PNV33T7W792o+/K/YuxKBBWQlbSxomQ99KJu56/vPuTP/QvpJn2ltbGvWPYbs/mMfgAaB0Sshv17QIzQvIO5vO0eTDdWB4889zZzWlztXKfuzBzLr9DD954+v4sPzWdbscUaxVQjLOdAaWV8iB3c+PBp87arz2ylyR3GA3ajeV8WGbkMAE9es3dvFyPC3xh67pv1GVZVk8l49TAHAwQurFABBORtpXYipmFQIiQOjw6+mRuNCzzLOzPmgtXti5dvLy/u28qeaDReDDs5V0ObGZ1E5OYY587VyAzcwAKgGxIqha8Y7Bqhs18FutIZqAtSMsAni04ZJN2uLFz9epnfvt9YMaEiqoiy6PBkZXB6vLYUK5tXqTB6rEH3nxkbWl5cpGGS9EwHyIwA/vYX7m61/7E9/+Ds08+dvz4UWetmvhstDefOBdHfdcBVpN16SQswNWAwfPOzvy5y5uW9w9aePrilZ0Wvny596a777LxeLdtstEx3N2aXr9cDObL67aWHbQtzGP2yKWDH/2Tzb2Z9cvU77l+WTiHSFbm+cmlINAcNLRe2omwv/vJ/z566JvSZIsQtaMVNDMzEe3CTQRzDITdtI91Hd02JYsptnE6qyfT2ebmVjWdZ7lf7g+OrQ2Xxz3PbGAqIiIxCRO5Q1a8bvgqQ/ZIbGaIhiYEQho9tPN5C6IIEDx5QiZM4KresfbarE0dCx0QwnCQL4/KIutNqkq0bdr2S5/5vZW7X3PT/f9kkt1BsYpZvxXbuXZ568IL28/97hc+/vDDH//oaDzMgyMESW2SFkNxZb/2Pg1KjwA3GF2wm95HdB6V8MWd6W69O5m3B+qPDIYH9eSffvCPhcwjLJfFkcIXKd6yFnqBMEmM8PTV+FOf3bsyiUw46nMewAyZeDgcnRi5e9bmCvzZzaXXHpllPXe8eWZ6cLWNUtVV27QpSUrStNK0qWtF5plPMal2nUkgskakbeqqqre0jc24bcWxW19dHg+z9aVi1MsIoWli2wqhEfGgzCRG19R1LDOHRKy0GMMiBWHiEDItcoghmpPo2hCQyHt0Pji02F+vhyerL30sI1NCVenn2aBXeM63dg8Gw2xpuLy6cVQZP//BXx3jPharveP3nfvSw9fOPtNcu7C6vDbfP/jYp75AKFnoxmmMGUw0cBOdP7fZnFxOg5KDJ1VTMEYEQxFrWqlMpk3cr1OLea/Xr5u9Z6w9vTa+8+jaaq8AohZpVs2frGYHl/3mXtzenp2b0k6VEG3Qc8ETEXrnBv3RoD9OODs3HTU8vqMvl73buOt+d+y+6d7kYFpNJlVVt02b6ibN61i3kpIiUpmF6DjWTcIO3IzBm0clgNRUUnFeDiHzmUdmmlTaxMbMqrppowwL1y8cMeWFd03TtG1EcIgRqGVDRVQVTY2pEGLmGVpmx3mRB1UiCplvi42DIw81rTzy/p/zVjeMZERMTUxIraENsdcfryHia9/yVcPTZz7xMz+6XcFBA9cuPv26Vz305le/mmX3g8+em7dpwR7QsZoROPYINip1f+bO7+pgLv0sZZ68R0YFNVHdmTUHdTyoRLnf64/U6szsjmNHX3Hm6NKwlzlvLihijDabT7cOZp+9tL9z0Bbeo2lR8HgYsuCDz8q8FIHtvYOi1xsd2bj/pqXlpYLufXs8duvB5uX92fb+wexgUs3n9axqZ1WcN6mNImIKIKod/UTmUAww2QB5dVyopjbZZFaRePZhUhtIjG1DICFkznki68gBCSFGc20bY4xMDsgZtSJqgKYpxUZjY6k5rOoxs4UsI3IuuCvH31Itn37+d3798mf/MC+ziELASdo86wXP86ZKElXBZ/7KM0+fvOdVx975957+xR+vDy6/5cG7b7n5ZLP34mPPvfjYhRmhAYAjYibTiGgdmZSZLg+5qmxay84UEIwdhMBs2kZpWo3qQ2+ZihJzJ3uTYyvDe286ujTsK1irwtISkScc9vuiXDquPKlJlvHqOOvlzvssRZZs+fbXv2Ht+Mkzt9+6sVQuD4qQD2LbTg/29+ft9e39va29+byq29Q0EpN2w71EiGqpjex90StFFZMYWtLUH5RtjNe2p/t1q23ggKmetNO9lFpE8+zyonDO7QS/VWTMbBpd3dTNvEZkI2/IQGpqqqKplmausZZYN20rkhCIHWc+1ONb0tKZ65/8yCPv/ddFiTlmwz62UWPqujfoIkpMsWn7ZYlezz3ymclOu7mz9arTqyc21qTd+/jjzz29pQrmSRMhIRCYHY5IdfNkqtYrKAtW1zqrmhhFJBAHVZ+V/UFe1tU8cdLJnmtmGyeOD/sloKItDgszdrZi9+BgMq80WVH41eWsVzCRUzHKeu/6J//iwTe9caxTbqYWa40xxrZp2q3tvSuXrm1e255PZirSxcOESAhdt9zAmHC8POj3+3UTq6pp2kiuUUCzcYQQd2bzJk6391I9MZMFvydK07Qd/mqTiJxnck5jTCnGNpKLSAxKZiqplVRbipJiSh3rAThHHm1/dPu1o19++eMf/MLP/Qut97KQqSERFhmJsSRzTiWCpBZBHZN3xbUXXvj0Jz5+9wadObrOTE++cPHJS/vTuiXwHX8aoSIoYVdIXNALoqkZMVGRQRayJkL3i9S66tnMUhXnc9DUy9zq0iiEoBKBiNizc2hKhE2K17d3kup46MbDkGfOO14vbbnE03/zh+5/0xuznXPVwfWmmbcxtW2czNrd/enm1s7O7mQ+r02ETIgUVUTVQAkBGY2IkPLgBv1ef4CzWT2ZVsQOAZPiWKkWrq9eq/evITE6/xJU8HDiTURENFntoOO9VZGUiBMSm4pKqykeMjAHdpxxIjAChfnO1qd+67kP/s+Dq2e9D+yC92zdeIYDU1SV9eVsWsW9ne3l0Xhvf+fRRz/Xh+mxpbELxblrmw+/sFnHCCLATECMACZMiqgEaMhoJqY3EEpIxIAZYlIjJAQWwJjEIKFGz7Q2Gq4sLRGhKjp2vgiEoEkQcD6fz+tmeZSVOWeevePlgu9Yqm96/Zef/Jp3uesvVNefq+bT1LYxpaqJ03k7nbWpbZnMOTIkEEHrYG7oiA75VVHUppNZlhf9fj8EH3wbo8vyrBetiTroF9Oc90HNqBuNW3D7LKgwEIA6Qiz+m9/w5ixzh4xBBqaaWm0bTRFM1UAWRFPOsSMOA56vl5a/9q8v3/UGZj/ZvCjzA1DpqPJcx3zEkAc3mUyLvHzsmWeeOXfxjiN9gazXKx998eq1vYl0KBwiIgQA56ksAxMgGSEy2oJ0GYEXXDngbqD3CACwbaq2rRipn4elfnF8dbnIPICFEEKRIaipStLr2/ubk2mRkXfknc+Dv2VYv/L21eVv++EhSrbzgkrjGEJwHdmTD8E55xwHz44hOAsOHSMTOQLP6DouE1ywq6phluWA2DaNpJQMYtKmTQAoKvPJBLp+ZNegoW5umLFjkCMCBDdrU17Xohqj+LZmRlNFS2iGhGIoRp3tQwIERA5LhX/lqEmnXzN98xu2r1499+gnLzzyZ9ee/vz8YCvkhfcZmCJhr8RLl57PmUeDHnsHBFUz359VmqQIzjtqIgB3Q8DmCBkxaTflAGwQU4fN7miADQAYkQBV0aRpmjkjlIFz5sI7x+Y9OefZEaEYGAGIyP68RlJmco6Y+Ugprz4FZ+66w9aO9zefUkeOc1DrJqyTQNGmXq8tp9V8Xk1mIdY+tk1sY4xRREy0o4uUJE3SJmpsm7ZtiV3dRBElQFVQAwTs9fq9/sCmMwUUpXQ49kwuEDKggqqZuRilqqMZOrFYI5IRKKE6MiQWJAAmRgPoJq61FTXtwzM8P7fK2Znl4X3veuvuV73z0tb8yY//3vmP/cb+5Rc45MzkEMHawofX3XtPSFuzeS0S18eDu246s7W7OZlNtyZJDBCNGQJ3Qwmoqmg2mccUtd/zREAI1nEKMIogGEZBJBp49IiOMc9c5qnDdQMiduYLoI1xMq9EhDJ0zt+2Yq9dn9yy3suP3Y47zzAKZwHAgy0o6tQsixKy5L3Pgsu8axuXYtMRabdtjDGZmqimpDHKvJZWrK5m6IKqKWASraMmJTVhny+tH2/lSoytiZICgDmf+VB4z947BDSNjr0nn7uQhyzrNskzOQaCpGaOHBE5Zue4Y0hWFQBsFVwyspbmu1k7PRHCkZXx7d/2beff/jVPfuS3v/QHv1ztXcesl2UuWT2d7i0HAICY7MTG2ng4mhxcl4zHCnszBYTgiakb5zMDm9VpViVGk8R5sMX5745/spikaWc5Q+nBADxjFjh0yCYCACUgQzCAadXMmto59I57mX/1+v7rbwLLSPO+WkQiZndIDIYd3X3HvcaEhBAcppZjDKltk0iMsW5ijCKqopqicEjzWqIJxBYRxCzGJKqN4LQBAOCiHwbL2FSswsl8CHleZkU+6GVF5iRGiZXrio5RjcyYGBGtYxdnD2rE7LjzAKEbf1eJkhIAiCUVZOuKxujSzlK1NSgGx77p244/9I6nP/Te85/+3djMelkxrap5DbGN7GqEkNoGNDJTL8d53TZmwSFTx65vTZum80QECNhEKdQ5h9Y1OzpOhjhnkyIwERBgxlR4l2WOHYIesigbiOjOwTymWJY8KHvUzu5aT71AE4Oa+iUaEAN1TAi0oL4mIgHnnRloCASqDlKi6F1SbdsWsCGKHftANHWZFCwuahPFTNpkdYJp5HmCWkFU26o1AJflHiDL8t5gmGe+V7gysCOT2MTG3GzeOqbYxraZqwKCZg4yj0yoBs5xcB1BUkf+jNAVxDg4H3xWctaR4aoYKiA205X60Xs2Tq5+97858dqvfvI3/+ve2UdzR4UfNPW8aZphgWDJESRDZlga+J1JlI7GwDS2Mpunru2DYJI0Jc2CISEYtK0cXy55zE+c33ZMnoERM8+ZZ0dIhGYL5joxS0n3pnNAdRQm0+pNx6brAw8IsW4O5jFHR6oGqApIC+Ya60b8FzzcxoTkXMdWSskQGQDJOUnqxIwNnAVNVavQqnGqLWJKicW8BEwmCVO0IgOzPM9H49GgzIZlKAp2oKDSNDAncbGN05l6hwSgqp7NCmcRiYgQzSMJCiEAdfhZIkRi8mA+QxfIZczuhmaCISG5cXWhn/aXHnzl+Nb/dvEjv/r07/08tynLi0k99bEq8uAI2YwMi4xGylWrdRNF0sG0TckcAR8yRqmImWfCZGapPTVeEeo9dWGbEXKHhuiYgu8sBwKSyYKffN40u5MpEooIp+lrTrOjju1XdO98klextaQOCEHpBtu2qqYkTRvbttbYqkTpGrSiSUSSmKqYqQKRAVgyZhcY0ZFkmjJLKyh5kWIbmzZmGZdNBkb9Xr7UD/2e7+UhOERJsW3A/Lxix5RQIbbmHDpC5gWlLSIQGqiJACQU0I6LgIjYkWPHISeXw6KeuiBTRzQjBs4CpBPV0/ngTP/r/2G5cfqxX/tRnsyDI5EmxdahMSKSIeCw59oodR3bNoqo71RGyIjIACSpiIDZvLGhA9K0tLyRB3IMmSdVcAw+dNwFZKioHXOPHkzm87opSm6ifPkttFSimjFg4SzVV2KsJTUAXSCMhqZqItqNlzZtjG3T1k2MXaVGYpQkUkUTBQNMAm3SnZklozzPW6FpFedNrBsFUY9mhJHQOU/EoJZn3CtDL/dMoGoxxrpOVSNVNEdo3i8UJrpxJSbqYg81aCLwgtjOvAMiIFNARHbsPBGaWgIBFTAFRCICUzATRBDdaM9lvuLXfRVSeOrn/xVtX1CC/ckBEbABKDBRkeG00v1JC2CMXX4CHcONASTRqoqGhGZLy9n+bL62Ab3cm1oWuI3KhN65RcPAFkoESXRvVkeRAmi5sFefwsJDUvAMeaB6tB7reRujmIB2KZCqLGZ625hiSim2VZOaJjZtV7tPVYRWFhGxGjbJ5o1WrV24uru9M5vOGzUj4iQQRdRIOXQ6Jd4ZIotZHUVF5vN2Nm+amGKS2CZXeAqOmMgMkwIgiYEpmoEoqIFnZAIDcIsZYSA0NDWNKg0iiSST1DWuiBiZiVgkEjUpK/ty9XY3Gz94P219xyO/+qOCtte2uadISEmZMc/cmSO8n9PF7QbAOsZWgq4DY4EhRiW2cYF5Edqm3dzZZCZk65dhMmsZzS9Gbg0NkECTNa3szxtmyzw/cMxOjjH3mDs0g4PyVH3mK2R+UNVtio2JdNIcolBFbaO1UVNMMcW6SbNGq0ajWEyaFH1ARjIEEWwEmxQvX928cmVzMo91VE1RYitiiMQhZL1h0R8URZl7zoMTsd26mUyrybSuW2miqCSU1nnPwXPHiOQJHAMiqkIdsY4WGINDJkwGYsAGRggApklTEqzBTFO0hfsjlQhxIYeF5KitU+iFEDey5sybvmbzuccuffZ3lvpZK5o58Mk8o3NYOjrS7yPCha26O8vd8fcEx5fD9twKj8EBEbnAsZkVnsXM54Fbwdi1pQwRgACN1FIdtY4SHKLZq47Zcq+b9beL9XD/a36smF2bTtr5fJJiAyaICEbJYB6hiZbEYuxUdGTa6KTCjjAViQuA4K07qXW0rb3q+vZkXsvk4GByMKnnczAh55l9yMuiP8zzEDq2VMYksndQ7Rw0dZvaal7N56mppa2cc+SYmmhiQIgdBkEMBCAqdlGAATqCjlwXiIAcEptaimISTVoEQHbE7pCyQ9TMoIG2qau67PUzDliM/PgoAGdsCBSjFIE63mgEJKZbj/WrqHuT2IXhorq+lJ3aGKxFbUWrNnmm3HmRelTQQTLvfeaTSlxofyADdLN+sapjTG0IfGyor9ggzyAKW3N68Y0/fJRcNaumVTObzFKKNzjDRSkZRbEmWZssRk2iMVlSUFVES6JVi21H7mjatHYwa5RCY3E2TzGpARkAiBmIR8dZmeWFQxGVybRukh7MU91KPT2oJnupbWNbiUTXJhCwNhkziYE1IB4IwTMMCuw4oT2DATgG55C9d6FAlxkYalJJGmtCIMsMAMkdkn4qmKolAdO8AImIWLcNgGfGnsdZkzpCqE4MRRTGvXDXqcETLx7MajGwcd+dWOsN+0XPcGfatKKeKA9U1RAYvHEIPvNt20bTZJIQPVonKpSmVSvS9HJ+zUkY5l3dxjb7rzhy52v00uOzupnOJlXVdNGvmJkubpAAtAmaBG3UlKxNtlDeQTDTaQtq5MgILXZtMHRZUbgstG2Fjk0ddrx//SEzMSgixAS1piZam7SZ7bXzfZAksTKJWTlwdWs5AQCqAhEqYJ0wcxgcBQ+BoasAIppjZOecz53PkagTxbHUpBQROkEyJdaFRo+JSQITIkixARU2TRq7nm4WbG2cX9yuDiXDDMic47VRcWojnr82H/XcsdVyZdjvFcW0bg0NDPMsZMFSIjXhDqNHC6I6AiDs9Ig0xnSwv8ekg5zvO9LRyUKjBPd+i21dnEznk4PJbFa3MUl3wA3U0EARxIAagUYgJjMBMGBcsHY5glZB1MyMUFWxV2ZN2wBwOywt1k3LYozO+7zo9we9Xt7VUpsESTglme/vNLMDU5FYO8ZysNrr95x3OCy56+4ToXNdVkqeMXPmufPISQSQ2PmcfdGxmZlqjG1sGpWICKJApJ5bZAYkBBVNaEDIhAqQSCqVaJbK3hFJW72c1ofZ1b2KiMlTR/TYK7ITq5Y5Cp7Xxv3RYCiGqWrVNM+LwaAkq6l2qi0zBIKGIIERKjMymqCqalXV+9O9LMNRAceGHTM9RC5h9fZ6Ntva3Jrs7rRtSgKqIKpqqGBgi4BIusgbANAIwRGAQQIkQ3+YMiOAEQz7WS9bmkznhVPv3WTeJkWjUPT6qyvDUS8H03mCViAqtG3TNA0xx6ZmH0LZ947LwK5fUL/oJB2cD96FnJ1XdIBAoGTqoJm4jS08cjSdLSkpZ6KmsY2xkViZRVUzIyIFZ42KU2AEMTMDYtcVM0zFDLLhKqNqbDkbWdxdHoQ6yWQeKQdQiJKAsqVBjwiZaTzqE1FdNU2MaDbs9/PgUkQi5wm8o8LTFA3BENSzMWMSU0mT6cxMCse3LEHhF/o/atjwUOL25GA6r1o1UEBT04VmXEerBPoyAUUw6Egb1JANOk4qiNgIGnIRKDii0g0H+dK4Px6PJ7NGgAQCsis8EEgU7LhYzUzF2OdRFX3ms9w78oR5WbgsBB+yLM9Cnvus9FnOnAGSAlAHREB6il93lTZYz91WfSZJMomxkRQb1ISAh9I82GXwUQxJD5UxyCRparp0c7B28iJihvtleWIyrcGq9aWijdrUcVg4ME0SM+eHZcZEC4nI2Kq2jnxZZKh1SjHLep6nReHzPDimSBCYPCN3bAqxPZhV7HCY05edkG7eHxBm4rzPExC5zJAXaguEqIdiIdZRJ6MaItiifXIoeIZgBOgImIEMF2O2ZI4pePS+KMpck0bFWauzeVRJomQI7MApiIHPcgT1eamxktQyczEcLK/2Xa9fDsdjn5c+FOwz9r4LJ7oaSB7cJTi5uUkQL19ePb2hl0fV2aRCpt6xaUZIimgGakqmqiKmycChInbN/VZVGKyP897yeiIKwXLcCyvHdrZf9Kjjvt/dmbFZYDBJaaGhQSkmBUI0NnNFkbkE2iKq94GQvHdEXZ8Ey9wTIaiYpLZumtgWGW8M7NQYuatnGOy6I6XnhsDnBc9zSC1ApwGlCxnBridwqFXWaRDd0PNTwI5vhBAcKgB6Mk+IqIiUewyMLTNGiwoSUBJ1DhwcIaFPZiGzXoZMEmNTN87R0qAoc3NFf1QOl10o0DlG6viAEIDYBcY93PhidbrZ+uLuFz6w9ra/f2Hlzl5zmalVZqSsEzjterhqJpJYIqXWLKkhd74bsOMy78vO0uoq+2JeV72iyViKYjSfba/0/eSAZ3Ua9B2BEqICdh0VMGUUj5TnXLKoqfecIgJBnocsywghCy4EJgSVpClN55WYZBk+cMRyD7Ig+oJq9b4RJJLakWWZTwQiQqaCpCLYXYauf4hIsPDI2PlnWSAGxKBTymHqqq7sHTICcSfzYUnNETAheyIEA0PFQIv8uWN+S5KJ9pisDOQpuiwvfVay912oZSZogIQebNuOPFzfNp1W6frzF//4v1M26H/zP5241XGamA9qsuCXZ7fgeFKVGImojY1IMrUOyyYpxRizuN87+pqbvvrv7f/+j2qSWG+NhqspHjjG0cAfzOOq5oVDRiQg7x2AkZomC95lrARRQHOfVwKdie8VhWNwgdiRmYlG0VTVDTP0MnrVcfNsSTGAKrrj972Z2gPHmjmTzDUIsUUzQVQxU1lAgRkPdbXMOjCkGRyqnwGhGaCjw64Bg2MKDg1IDL1TTsCIzECAzjkkM+jiSVrolOCiC4sIjpDMOWZEhI4M2TSBCiL64Fta/bzcO4kYLzx89aM/m3avzl542CKw8z5kySptEgGQc0wAzAYEYJ06mgMUqDWJGjBYN4OG0izJ5q1f+w8uQ5s+8ZPgsB+wLHpNM10d5dN5nLdSeCIEZiBQIESAWdTg8twDmDqGQX8gklQSaqXVFETyzCFYSm0Ureq6kbi2sXFy0A6zfUJwDAYYqfDDZUsNWco8iiczQnRNY6oKSEydyhEgQCBkIgWLotGMyByRdw4Q1ajTpUJEBezEgzsGzRh1QXSl6gnFkBGLHB1T5ogJu2k7Yu60P0Q7VprMWaq1mQCSaUQVZsc+q3H5Ubl3Enn6yZ+99KEfn26ey/vD8a0PldAucQXIJsmkMVPE3JgcOCMyIETXReQJTKk1VSI0FZMmtc0xenpI1fhdf+eZ/ednT3xwOt0p8qypJ0XuBz0/nbfDwjnQTv8KAUSSCBS9ELy0EcajpaK3cenyl4al62WQ6n2PmoXc0JKpGFRR8zw7fnz1Vf1LGRujEYAY7g7u5jCQuMdMwbMEVjEzE4eqqAqA7KzTObAsuI6Ql0UddzqilGWemTu6ESQ2AwWMCWJSFVVV71DUsqB1q50YCQIxgncEAN51upXMRLogKEZCaJK4VE8iN4vAizxlpao9IXdeaMu9D/zA9kd/VlUYZOWet6299q/dzJdLbaYSNbWSGjEgIwdMC3UQUmB0vlNDsTgXSWqQRDm1nFpnxapcSW5w9a3fMz/38Hy+v756NAuZQVpfys9fm7aiRdenR8CFGoHvFRhT9J5H4/Vr17Y2N6+c2BgGz6LiXPeEZkCtaWs67tOZfO9Mv+ou+iy5q3gE7/n2kbUCwITOOeecd6Zm5oEAklpKAkBO1TvuRjmTKCIwdzOvzgeHQIt6L5EaLhpQ1Il0oKiBWGbQKzAZIbEj6JrZjtE5zDrxvm5seKEnDojmpJ1F1yKgoYuGXqNLUJNwO2ue/zNvKYQwuvvtp7/13996rH/CnowxxrbSWJuoGpolgxaQcwrOcfABidVlybE0lFIrKkSMRAYqsW1dGOre0sl72/u+6uDTv6BS5Vk2mTWDMhsUfl6nfhk8ACKImAENByVAayrLqxsS5dnnny56Ps/dSyoPjoCcmDVNBNUBp1t7exnbXPyVpnw+3Nt7498/fWSF0h6AMaNznjmSFwfc1UFZlQigBXCcZxSC6ygVImFKRs5lIThHSUwNkTthdTJBj0ZAqqaKSYCSgqGVHAUAgNG6Fl0e2Dk+BKO8nAPUTMHVrUThZEgsIWgnSkhFQoTgfWLwy8dO/LX/dOLMqXvlz9pm2tYH0ta26L50Q94xJd8kBc/OZew8u9QVpow8akKwzhCpRDHoYbtE9fbGXUUI0la9YjidkqkeXS7PX5+2UTLuEggt86LMeVYnz8677NyL55PJ+vJQEJpkZp1OCRgiMvVybqfp3rV4rGgQ4ZOT09c23nb81V+9sbbUk22DhaSlC85F71RNDdSUycyc86DAhN6zp04PhL1CUlXtwAjWEYnRod4XIXTMWKJwODxKRMLJRIHQCExkEfwQ04IXDhdsfEzmCMjI7c+wLLATQ8EOsIVIhFbPdXrdOU/NAe+dPZCbr02hbPZUondk0pnORTMMpWHzwTsf+sikEh0iAzI7UzXtTDQsxD5A+npQnnoQRsttNVGpe0Wom3rUC/2MqqotfA4mRDTsF00zNdNeme/vbF7b3DyxPhz3szaJKrRRUozssZOQiiprpZwaKaEl9INXfu3oFV83dGkoW6ZmHaiG2TE753wScUpijpAYDZkJOw0K79AxdZwTTimpJV0IczGxgSmAdaJPXf0YyFQRwBGQZ+9uaDt3Pc4OCYdE5B0RLNDHhOgJUcUhgV90ng9n4QwIgVTIxDnn4mzvQ//BnXzosj91s1xQcAKkwIZiZqJKqMKj/f791l/yrvUYHTojrxRcSGaqmiRFTS2QMyQFXvfTS8NhlfW5mahIkfH+RBovGyvl9b26TYoeyWHSJklkQqd66ep2Vrp+6Qgt8wQGIOI9Z3lAAHLsMDuxggOfECC5wertr+6FKUgjql2Kfjjh5Lx3KUWvZEJqC9FFlS5p6GzMQlrZMzEjqxmQ8x4BUneqOzlYA1HoJgm70NV1Z9dMFQBNu+IdoCEwgSNc0LUe+gZJ4JiBXaeeh0xESMZeuIdpn0HZs3NZe+Wx+ksf3n/1u6p6xLKnEAySmZipc67u37I5fkMs1q8YFAYZwognA9ov6MC7ymkES+ra1CKQJw7EwTP3nW37ghCNANH6eZjXaTwqlgbltGrUsGkFkgBCkYXdvdm8TaPlslMA7ajTSbUsch88Oeey0JP5BosnIzTxvcQlg8TFYnSHDpjInMsyLymllIiRtIuVwBGKwkvoWSKnLYM4FCHXUmZgajekvjuIKIIpGPACYowvqZoTAJigLQobiJ7RMXDXVjEgAkZgBOe5ez05H0KWeZ9pGEQ/hsmXSBtiAiY0jc9/ZPbqb7qY33tGPskWMXhynkN/Prrrev7KZCRP/8HsqQ9O+0fc+u3Xeysu7/vBal6s5nkRnOS4H2DiQAYOfcjRu1EwCmUy6STjy8LXTazmTWAGwHreMoFT9YGE3M7+POuFPHCXpqNZEmXmMiuI2ecFO19ay4QEBmARfAteLB6K0C3wBM5RdwJVLaWF2ofpouJPpmpdo56ISVtgnffjtpd55cct9WorW/KmC81ARLshCIt/TpvdELDbra7F1YHAmcB1gAdAWqjQknPU6d1mWV6EvOdcaPwwsddrj1s7s6wkMM6y9vmPwrWzmyduciAnqkcPBie3+YSFUZOXMplXn/pv1ed/Rec7hMgh82U/umxOfi8b08a9fNObwrF7eXAaEPLU3CH7K2ZbbdAUiUARyEDZ+oU7mLUh6NIou/9Nf5WZHvnI/67mjcaKAxVl8K7rexIiE4JjIp9xVvg8NyAwYYIbwtWdemkHG1sIFSMBARMfKquLWgIC6ZrgAAbskIg74gYVI8Vykh3rxa1xczFLB7Vf2vXH5tCvMW+h6NJj7cpJN7gmF7zOC0F3PkRedIrq3V1BAEJEAkJwznmfFSHLQ973oXA+JNcHA5pcDpzIsyEoOJle2//A9w2+/J9cP/3a6fItQhCrhg42m6f+pHr4l9tzn0bH6PMOsmJmllqEWuc79aUn4ud+BcrV8tY391/5jXr0vqfq9aMynTTtvGozo9yxqiVDZHSB8zKEzE23LwJSCKTq2jo5Rs/onWcmJhJgdg6E0PmQl+zDvFZCdHSofygNxrllDNZV9w0W9RjqPIFjzovcQKnCGFNnpTpAoCEm0ZSSmQFSi7nlx6Irx/XFQXNl0FxpMd91x3bdes3DGnNDMkAxxA7CvMAtIPOCipiQVNRAmcB3IG9cSASyQ+ezkBWFz/oulC4r2GVMGSUob3tLdvlP5OAihjIJxMbPz368+oXPFze/xq3fyUh2/fG49QI0+6Qa8h4wqyp1kpvsrGNhREIXIEaZXD343P+cP/V7vTu+HL7s3eeP3ZblyfdXZltfYudFQZLGVnq9DAzqRp589FNk5r0nphBIDDqOZddRIwCrubmCGLeCaZ7EsMiIuwIYAEtFkyvSO4HQcQAAinVyUzcU153jPM8RELGWtACMG0AnEGCmhzIpEI3Fr0QeVGF1WF8om+vH6ic24OkDt7btjk94ZYb9RKFLbrtg3xF2kHfvHRPaodjyQjZ0ASKw2Dr+3r/z1b3hkssHHHL2ObksEPSosvVX2E1fSWmOu896pyHPfZ6bpub6s/XZT8ULn9GDK5Yax105LyNm9s4F73zGiHbIsK4iCMjsgL3ERq480Z77hC+WfZoVm5+mNEnAAASuKAe91eXerGqiATN57wBBxMoiX1sdT6cNcgDAJBaVFAh8IHLOuTwPRZENsFqyHQ/RgCooJhuvDoMV1rbj3beFzGOH2tJDtcaFTesAPAYmKbUpdcH/QraCFmy2iq51wypbq8OycAZI/bi11jy/0l7wWmO3oraYpQUEYsy8d8zesXMUgssyFzw7x4HZOWImEcVnP/GTy2tHKe8TdyUER2gEmpQv4JlLst488dvy6R/VyUVzuQHW81jXkbEjrUPPLmSBfWYdyRYzuwwNzJKZxhTbulVVNeiQcwCGmohdKPq9kMoiQ0biDMh1Dc66SW2SJNoFD2qYewreJyPvcwJBQHMeOLgs886T8wqcjHrU3ipPDWVbjM/2Hmxe/b3rffRStZIWxc6u4AmddB52mlyqJiopSdu2VVU3TSMLnc2XdK07j/qSNwcLVpdxsze/RKnyzZ5PB2C2B6NNPLKNa63vgy+dz8syy7I8z7xz7D13PAOAHQ2GmtlkMuf3/B/fmPdH5AKR62rKCGJqZHFZr/RherDxpnjiy3G2pbvPMZrLvGMXvKMOEI5Ejpl5gYxjYueJiMnYeVlAqa3jQHMLBCeDmaUWCIEgiTZtm5paJCFYN44iIp2pzAOVuTMwJgVtTFsi9FnmPCOoIamBArngfXBemlrcJDs2v+9vl+PlXCYGnURRdwW6+UPtdAfBoBMmJiIASCm1bYpJEOHQT97IXdF14PdDeUsjH92g9aNE2ZSXp9BXSUXcGaer/ep8mF1Js72Deaqatm1TFLOuXgFdtgxdH4kIY0z8j979jXlRdKm1aTKNIC1aMlADHNB0BbZn/Vva0+8gcHr9MUxzH3wInUIQB+86nHgnPEgdzyiR887AJEa11HWVDishC4UCYhLR2LQpWYdMSVHaJjnHeRkQUVSQIfOOOylWAwATQ2DXzXFYB5JEdM4jaL/dGcRNdXl169f6Y/eN0qZq6hhXtJNHMOh2wFS107ZfMJV37HgmIp0K2iIvJezAFocy3PAyYm0gJPCZuL65zFy57U9eaYd1q6Xs9XUfmglWOzLZmu7tHkwm1XzW1G1MqZPaW/QbEWJM/L1/9xuKLEME6FY/tWiC1P0MI4eS0zptRTecH30TrtxNB+dgdtl3MxtMPriQe+cWvBqdGjAzm4lIMlNNqVM97gzuIv7t7g6CSTeKKSlKaiUmNYDesLzjtV978vZXbhy/pa32p/u781kbo8YmSRIVlSQxtqmVGLVNICLLcv2UnvcozcaD9S1fN8YD06ii1u2TdafebHEFFkBiVZBuxbvyD5KqqiQ1o8XeLFSj7Ia49KG2CBEQEhAbZ+pKyPpSru/5Ixeb0X6NJcyX6SCXyWQ6T9Ntm16v9rZnk2lTVXXTpJhEDMDalBwvaHFtUYUAVSNQ60pPiKzkAuIr+NlVWr10+2v3j7zCPfN+eepXpdpaxOOekJ1bzPCzGYIlE0XoCifdcNkCeYCLBGbxQJQ5lU6C0bp8vo462Z1fe/az/eWTBogam1b359HMFmTiiyPLYCSA5MKR1f7acK+EKoUlu+Ur+xlgTLFj1ejKBIu1v6FhC6aWJBnIIkFg15Uo+v0eITR13S0GEgKaAXTDBwAgYLTAQd44yqzIpFAWmOdZMxju7Z96ameHp5dyuZawYWmhqtJ0v9m/LjtF1RtPeku+v1QOl4Cce5lmL6oxGtmNP2CdImGnnXTUXV+XzWuj9fMPvbuZXZEnfhlDudg2TeQhzwOTj22MTUREAuvCMkMANUDDhahb14PriI/QOeomA7uVMOSqlReeedbkKVETYAP0ntQUDtnFERFBCKyta4/+hE9LNAEAzZfypSPOZpUkSbET6F2U3i2htEp5F6QnMJEkooiExBYlUuN8cM6VZemIRFJS6QZLO7ocJDADAgRedOrtJbFRIzI1ILA8Dxv58tLS8GB/bWd3v5rswXxX64nZDFMTDw5gMjO/3St7k96gwoFb5JbMxB4NUOOh/PEicrmh5gPmENMxu7iNRw6W7xf9ZSeGEI0A2XE3nxgbTeIdArnFsXPYQZy64M8QwAwRtQPmW3dOFwnMAhoPaJkT0dgmbROjkXNd/QXQIOliaEyNHY4KO50fZJgiZs3oNgfQaahJbNWUiBb9XBNup8iNuj6QY0ZVVDGRCNJVFcWqOsuyLIQsz9RciiklUZHO4Ryafuwu6+EVuNFDBl6gWUzNQuCVlUG/n8/no+lsfTav6vm8nU9jNYV26lPVzA5YYouNcz4nn5HLmD0YqDLEGjSB2UJ8c7HX3TEmRFqx69ePPGj9YzC/yuNTGPc6NK5YVO2URLuZRTLrutxmgKpksACwdGClDm4j0IH9UAE0qRHwIvBAl/vgKcbWORYR7CCymgAUDFSVCVazVHIEAKE8Ld1aMlazNrVNSq2JGBNxp6zGxrlrDxBIsiEDGGMSALGupyUiAFiLaIplWTAzeiQiEZIkScUWGve2WH7rJL0OvQMtinhmltQ615IF9q7MMz8e9VNKdd3MZtV8Xlez2UF1gO0MtHYu74WsjxyIyExJMKkYdKLfC1BJ986dtI8ojtOFpeVX7b/hX7vJc+GOr5Yvvrd98n+CzwGxmyYDA7FEQuQwkFvsZPeGAt3Ejyl2ZTAmNMPMMxAnETCUztwroAmpBiKLkTo/odaJmIEZE+QejwyVEUQNWV0xRjOJTWxrTclMwBiAkAEABZ1xWdSbwM44JwJHqF0Ns2NdAgCAlGJdWchyZtcJEnQ97iRy49S//A/BAk8Hh4WgrvIjnbo5URZ8jkCuMO23TZzXTTWv59XyfN7s7R049qXzObAHIlQ1QHIC9v/v6up65cqO6qqqfT76dvf9tK/tsT0fnsxMRoQAIUGJeEAglBdA8MADvCGB+AE8gcQ7v4A3fgTPeURBSpRARDLMZDLDZMaejD/G9vX96j59zq4qHmqf09exZFm+avXt3nufXVVrrVplcAWI3dx6yplyR/2lcWNAGlZvLHc+f/MboN9taX3ym3+rv/pPe/Ex13MHw7NH9gcnEuEEZp/kfomICb1aTEgJayiQMLez2cbM1M005lGbQaPvkQlOrk4EriRuAmGeVbRbXwTAwJ6zSwMf+nXue3eLJqchKzmYCRBrdvu6qbtnud7nNGPmJKaGCqLuZjZ2WOZh02kqU8GZOGZzmeo2WZncB6gc0mlfYmagO5tqzIlOSVJKBMzaerGYZbVhyJvN5vnzZWJJlBJJBRSCUyzBKleHZx467i+wfsHdiXdnXs3t+m9gcWshw1flo6yw/hw7bz/99j/7e//mZ59qHlC10uySzCCt9pd2+QibU0BZKopeVzAAzWRK5kZORKwgU23qxhLU3HRwMzeSMC8ycmZUNt66xsxC1FRec7kfWTer85P6VgPL8AHuTLUDZdWqOkkSESDlxurVI5/dEJ5BiAgKN42K1wEDWM1s6E01MLUYp6bMqmoeal6Ml3/pWdmmqmWTgsOnKklKSSLNdReWqkLb1Mv5rG3q5AiRDJNTGBpQNJblFTanWJ+qDnz52C+/1Gtf1YOv+OxIpHESBhjZpLpln+D2W89v/muzetBi7dWCq5YJ7EOnuLjs8vOP7eEP7eGP/fIRAKrqVBETG5MjlQDn5ESqWihCYheA2YjcKPJ3IgkVc1gYMVzIuERBCKw9+WBDf1QJK1NYCMfoXeYqVU2qKmKGm/Nuhlerp9YeghonMopawaYOWcBC9uNGI1jEIaIyNSUdaR5sxw5enQsf9lNEKUlMd48gwQXaKPdVk+sUuQ40M6B52HQXw/kzPfuCzx9ic26XJymf88Fr9ZvftfkN44rABqN4vog5tXB9xT49lBl2pWEwXTLO3TNZVqFVs7i49s3zN/9gdXGiv/qhfvI9/fJ/fbhgSZJqkLi5qjM8JRkcZV6xsLBEawqc3Q2m5Yt6qNbAcEH27ePv9fmnX+Z2v2mH3MECpkdKlTRt1bTMKWwzTEVBZpZWT4f6yLlFVNlmoV8LOlHVjZw53BvMU1UAZhIoxetjXm1UDNNORN1QV6mASSVvLqUojaOviYlFEsHYBh02J2dnJ8+erJ8/rJ99kDbPal0lptXsdj76zsEbX6/3dlFETGW2D3EKIxNzJvIdDIQMltK4YRp80AJnSz25hupy9+h8/7sXb323e/p/ev/7/vl/6OlnZD1LLRwwHpfz4zFSTkyzEhPgzqYYq0WmkCDANVvnkuAMOCCrx/nZL225J925ukUZKEmquhJJxCIikVsrxLklquvLL4b2lqFCeRMLmTeCa3GYjiS6ZXUhCDOnJERQhUcvFhCkf1jOkxBLijTSAoEMrrMcf0yPARHS+vK8O39+8vTZxZef8/nn8+6h+HqQ2Ul71w/uLW+8dnzr9mIxJwK5eqnKC4ZLxG7xszBTGQcgEoHZYxiZqcPZdR/PDvl8085Ob988ufk363f/In/+A7v/fZx+kvqTqm3cKLrX3Y0M5pkIKaWQF6QkUdkKI5EJVDzPklap6JYdaPR8+cm/6+/9nchj096JGMzMAUMzs4M9rhZAKSXTqnueLA31cUmKo0s2oNtYWdpeME5xXZgIU4oJC2OCOr5qGgUWkn2Ku2yCYRkjDl5KufTxBx9Sd8JnD9JwujFa03xd36X5tf3rd1+5e+fGjeO6ac1hZgQiy24Yze2nwFO47PjIHFQbxK10640tY4mJWwwNHu37cNHI2VvfWr35h8PZ4/Sjf0mbh4Ox9ZFlFt59+tSBGyXFHq1u8YuW+mA2zMnAA1KGJGhFeffJD16s/7qtd7IqebltIw02d7ii+CLAKW3aYwzrvbMPJT1b8WJTH6V6Rhyv9PH2KK0OjrGecYJGdxRzlTKRqXnMevfQ8KL0eVD8TMJGxMu3Ib+SMaUHn3+xo2d9lor2cjVPs/3l/uGdO7fu3r2zXO6RyAgAMpM7xAGncFBVQHxsSZ3eMdqF4e5U2G4vkVPVomRnIsxxttQXXXvn/v5d3tm1ywcleUCMsgy2lVkI5AR6zR/O0qbGJkFLQQ1sPD3SxZkc6eJOXbdHFx8OzcHGaCZV2AAW8w4el8BMNVxYC9bTtTfS5vnRyc/mlr5s3lgv30izRVgpSYxun46/e0yGAsgdOYTIRFWVlFVNAZBjHK3MKNq06Hwm9zIjckpYKbQqz8769Wy3mVXVTnu4uzi+fvjKrWsHh4epmhmILNJdA42cEtzNQVq6e3jkQWlKA8I4D0VjS6Klc1XJMki8QMF1qiuTOV+eefdiMJgqx0qRUEIpOZkBT8h7dl77oJBMVSBHG5PP2q9dvPandviOLI+9bZ/n0x3Z7KOjzogZIDMip6mPASUwGLu6ZwKsarqd24vTD2f9ixv9Tx8O3Xr/nXpnKSLm7rBYM9qu2liZwlVRGgVFgg4reFAUrqMlrsEJxVp3aoiiou5A2t9fXjvc299bXLu2f/3oYLFcSEpEYoFiOVyNYKPcK1pGPObcOpUxlNtft8W649dycNamgKu7uhViSlJK1U6PHZz/nIdTcDIz4gTmuDqcRpEHaBeXlWcASglwJ954/fjat1ff+Mf5Yn+OswVf1niB1EN7z/3GoYas7MyJU/nO7nAlKLmaZYISOxvleu/k4HeWT3/sfbe3vl8PF6uDt215k6va3NwAFsDcgtEvDTUFCHIi85jjjpH3wVaoQiBwEP4jX/9r+on0zluvvnrn5t7ecmdnFuvuxMQSpu6+vUARQTX8OgJSJzI3MzJcgSkZY5oFcmIjlogQGjBWoU2ZE1Kz6Ws6/8x1E/MwuUqpaolTvE0EQdfhqPtsjP4O+Artk6PvnH3zn45n/ZG+hwJNu+Vs2iOsHgcHJNVNqiqCe+6NQG7kufBOMA5nduZuftP6d3dOPkh5Lf2L+fP3V1LZ4oYk1jHMBX4LY4Rxj3mkY8aEIvaPaVWe1dy3ZfFIhYwG5Fe2AYT01ldePzrYBQtGeZwTE0ncL+W8mxOHjyQAGLlAJnI1lpUibwiwNiQA4V8QvoeczN1d4xMBSbhykt4YULAEncmpAVdOzCkRMdxZpOJ23q0ICJ3CGe99sfit1W//w6ypDvRTVTUyB8PULZvqkIe+z1mNJYlURDRyMiPEEsc/kEZ2OFlqN/v3THNz8tHQE/pu8eS/Trt37fDV1LQFoB2NhKKVCSBYRKpIOliYJJqSiSbeszwGxYIEPt1NEYIcSVLjVBEJiYCFSLwwcZhcdJyiSmTAyjIQFaq6vKdPE7iNMI0BKrl1ZE4lT/LtxrgJelrcQTWn3BMnSQ1LzcIhG3M1Yq58zRaWLdRT82T2Tve1v6fFjev2C+iQNYQnFMVaVt30OSx+QDAdAA+tGwGW1UqNUgQCpWQWYd7Ra19dQWbPfn7e60WWdnj/dDPI9XvLxZyFR8ZopJamf10dPN28haLxQsdZ9AC6j+Kw0pEcDWHqnlgSVy1JKtcOEYG3t+84PWE8RBxzAhBybHhJ2Up8LmD5tBkOLbDICGrDzdXAydkZPqNNt3NT2n3VU0dFkihFHKYgzYXRrF9Ewpupely/vn7nr/zw7ev2oPXzPpuGiTPg7tksZ40/gOXBmFA1M05NVdVEUKbcm7mOKkKHRcpGYObZsr/27rlW6fmHmzVeXPSL9fvPc6s3bi3nc0kR8MIxLHiN0T+j5J9l+bk85h4VtE7m97FspREz/Gc9QSquGnBCYf2vgBoA2Mmd3M0CAHAaBZAR32PNgUBPx3NBKJBCJNBjUTOmEuau5NaZnG6IqjbNDnVzocYekbKwTE5E5DbrviTASV5UN1b3/txufOvAH+7jadaQnVtg5u5QDQ44mh3hBJjBM9BQ0YY2cM9w06HMWou9DoKHpVksHW+undr88em5nvQ6t5+e5MFv3V0s5lWVmJknjmrkEkGjsnwqxUbVqAiYPJPnrIFchCcB4lQ7EjGDBZwCpNyuPY9adSoNfqEqw5YJ8jKxzAFRGAVcU/hSuqJYLZLiK4kqAeDH66ZTnunGtCuHpjR7O7OguFGY6FohG955euuPh1f/uMXlAb60kW0fi2+Uh8y9eJBFSKRwBs5wYxIkSWjglgHX7EVnWzACJiaWdu9woPapzqvLnzw86apuveg/eqR8fPvOcjFrmrq4OEZ7HpWrZyvuv/KVaZxHm2Au4QkHcydYnGo3TyApS//yG4xhmralbnHeLfhTMeEtFXXRbGxThqmQJbhPsbq8lImf9bOTIdVCePiTzeljB5gjYzZQil10zZw7M6xl8WT368O9P6NUH+JX7CEq8LLJ8VDDYArLYYRcXNjJS2eOqVBFLFxxIgKRUm95cNcRPeDSnJ54d3cx3Lr7xWoz7967/7Tb6S92+k8eUrJbx3vubduEruCKcKgAOyGsGuc/TsnPaGgKyhR84JY9SOMq80v66glYHUfyFYD1pe0l324IAbDSaYyXN/KlKy0+Tfb6ZGgqUn7y38Mn3zMb514CmlW1Y6mIhU156C5k76y60d/7SyxuHtHTFhtThk+pnge246ZuA3xg8pCxh9yEWcZJNCAS4uIhHImf5X6cnIypVkpJdncX3St3H67Xx5uf/+TBcNydHvnHDLPj4z33WduwRMPdtHFj89F4KgGSwkhTtIAQG2fN5qpGY3tRmo7ly8vvV9aZXl7B8W6PW/ClCBwVgfsV1rq8amSv468iUV7j0+/1X/zIh45S65ZVzbUnIppdw/HXqD106NCdPls98Z1ju/mNPb5c0qUag8NInAAyN7es7pZ7t8wwYgIFRsLCFUma5G+jG3iSikbMzTziwch0RVht6urgYG9z+9Wnw/r4/MH/3F+/qyeOT3tPqnaw5zs7M66m5Z+qZRrFvyEIwxUTPBIOO0gl4gjLAFIEyO31PJW7dmXZfYK0CuBk43+n8nhbKWMMDL/2h2iCqBgk2vVfvm86cNXGZ8591x6/LXd+f5P2q/lhnTirZXPkjcvOQd0f8FkUEgR2EuIpzGfoAFNCQaYcIiwsiVPFIiCRciVhO+RUkqTaXeFumkvFMyYLTNjZafYP9i+7e+26XZz88r37J0+7dNj9StVy1kOz5XJHai6Hn3D1IG+fzUKrlwUkIJ4cJTOLvmqSl+6IUQpT9rQkMBNXN23DWCOMldqVRNO3V1Z5T7uyCQDY3byayf4b9ORnAEcyy9W8/sqf7N14vetzg8sZXWanbDJ4RcgL3oSnUGHCw1CBhd1dHG7OxiURZGIJmaqkxCQeYk+6EpvCl1GELZkpuXtMgjEdYyuLyO7ufL3pV6vNph8+GPJnj87WWdzDliub+8HunBqSEbIsO0wxUg9XUqPxPokz4qUjh5nS1SIZo/WnY0ocecp7Ss/JdMlMezCm+eY2chm+fahL0PErhJ27G4hl71WcfAiP8X/mVDlXc7rcq4esg5pVQMXDLPSwDvOQgJOPQ8XIiVmI3DBRFQHOEo2MxURLAeG4OmKcY9HEktwNGvWjltjN5EBdVwd7y9WqW626/t7tD35x/9GT5wGLDoPmnGG+v79sGkgSKgVpCcolbZxQ6ELe00QeCHFsANPoe7sVAY2nukjaShI0mrr4OIvAfRLdTz+6cuSv1AGYWAsH2N3JneY3uN71/oJIrBDra8eRB9HoWxojGIWy7gGQbHVSDBNOgeygyE5LkAr/2Ql/LITXlZt6ArdSAQ8QqS25MRggms/ba4d7l5fr1bp747WbH3384Nnz06pKiUmzmsOAw/1lM47A3iZ/2wQcAd+XlYvSlqKZm1KVBFPpWhrLzKOkKTADmU85kgfHUBY8AkIAP1dXv2zmFDp8ux/FlccIyvUC8yMbzkHCgJvq5kKdUwC7hfopNN82SWMiY7C5MWOCZSLKEpgn/P5lmny6YqPPl16+GcL7XseyPeaiciRG+3vzbnOwXnd93+vrr9x/8Oj8/PJ0PiNidaiaOw4OFrOmTlSNPMwVGsFL6Wvbe7t8l1RxenZyOhbzZOZmGoLBAExGQzvykWEjGi+iqePhSgqxxSCArRyrxL6yaSAG0qrLljewRe6UQIBZzvL80YvD13ewGvLaNI/4+xY9HL+AwdRNI4QGzxLo1jad8CubR9vrYboSCHBXVTMdTNU1mw7Tp3cAkNhOIp617f7+8vx8tVhsbr1y/fx8lc3OLtbdoF3X94Ot1/1iMdvZmdV1CjYGV847thRzoWxjQS8uV/8P8thLXLlrPKEAAAAASUVORK5CYII=;strokeWidth=5;strokeColor=#FFFF66;" vertex="1" parent="1IxWko4nvDgq_WzQ8Z8o-20">
          <mxGeometry x="0.8273542600896862" width="59.99999999999999" height="59.99999999999999" as="geometry" />
        </mxCell>
        <mxCell id="1IxWko4nvDgq_WzQ8Z8o-23" value="" style="group" vertex="1" connectable="0" parent="1">
          <mxGeometry x="80" y="640" width="61.5" height="60" as="geometry" />
        </mxCell>
        <mxCell id="1IxWko4nvDgq_WzQ8Z8o-24" value="" style="rounded=0;whiteSpace=wrap;html=1;strokeWidth=5;strokeColor=#FFFF66;" vertex="1" parent="1IxWko4nvDgq_WzQ8Z8o-23">
          <mxGeometry width="61.50000000000001" height="59.99999999999999" as="geometry" />
        </mxCell>
        <mxCell id="1IxWko4nvDgq_WzQ8Z8o-25" value="" style="shape=image;imageAspect=0;aspect=fixed;verticalLabelPosition=bottom;verticalAlign=top;image=data:image/png,iVBORw0KGgoAAAANSUhEUgAAAIAAAACACAIAAABMXPacAAAACXBIWXMAAAsTAAALEwEAmpwYAAAKT2lDQ1BQaG90b3Nob3AgSUNDIHByb2ZpbGUAAHjanVNnVFPpFj333vRCS4iAlEtvUhUIIFJCi4AUkSYqIQkQSoghodkVUcERRUUEG8igiAOOjoCMFVEsDIoK2AfkIaKOg6OIisr74Xuja9a89+bN/rXXPues852zzwfACAyWSDNRNYAMqUIeEeCDx8TG4eQuQIEKJHAAEAizZCFz/SMBAPh+PDwrIsAHvgABeNMLCADATZvAMByH/w/qQplcAYCEAcB0kThLCIAUAEB6jkKmAEBGAYCdmCZTAKAEAGDLY2LjAFAtAGAnf+bTAICd+Jl7AQBblCEVAaCRACATZYhEAGg7AKzPVopFAFgwABRmS8Q5ANgtADBJV2ZIALC3AMDOEAuyAAgMADBRiIUpAAR7AGDIIyN4AISZABRG8lc88SuuEOcqAAB4mbI8uSQ5RYFbCC1xB1dXLh4ozkkXKxQ2YQJhmkAuwnmZGTKBNA/g88wAAKCRFRHgg/P9eM4Ors7ONo62Dl8t6r8G/yJiYuP+5c+rcEAAAOF0ftH+LC+zGoA7BoBt/qIl7gRoXgugdfeLZrIPQLUAoOnaV/Nw+H48PEWhkLnZ2eXk5NhKxEJbYcpXff5nwl/AV/1s+X48/Pf14L7iJIEyXYFHBPjgwsz0TKUcz5IJhGLc5o9H/LcL//wd0yLESWK5WCoU41EScY5EmozzMqUiiUKSKcUl0v9k4t8s+wM+3zUAsGo+AXuRLahdYwP2SycQWHTA4vcAAPK7b8HUKAgDgGiD4c93/+8//UegJQCAZkmScQAAXkQkLlTKsz/HCAAARKCBKrBBG/TBGCzABhzBBdzBC/xgNoRCJMTCQhBCCmSAHHJgKayCQiiGzbAdKmAv1EAdNMBRaIaTcA4uwlW4Dj1wD/phCJ7BKLyBCQRByAgTYSHaiAFiilgjjggXmYX4IcFIBBKLJCDJiBRRIkuRNUgxUopUIFVIHfI9cgI5h1xGupE7yAAygvyGvEcxlIGyUT3UDLVDuag3GoRGogvQZHQxmo8WoJvQcrQaPYw2oefQq2gP2o8+Q8cwwOgYBzPEbDAuxsNCsTgsCZNjy7EirAyrxhqwVqwDu4n1Y8+xdwQSgUXACTYEd0IgYR5BSFhMWE7YSKggHCQ0EdoJNwkDhFHCJyKTqEu0JroR+cQYYjIxh1hILCPWEo8TLxB7iEPENyQSiUMyJ7mQAkmxpFTSEtJG0m5SI+ksqZs0SBojk8naZGuyBzmULCAryIXkneTD5DPkG+Qh8lsKnWJAcaT4U+IoUspqShnlEOU05QZlmDJBVaOaUt2ooVQRNY9aQq2htlKvUYeoEzR1mjnNgxZJS6WtopXTGmgXaPdpr+h0uhHdlR5Ol9BX0svpR+iX6AP0dwwNhhWDx4hnKBmbGAcYZxl3GK+YTKYZ04sZx1QwNzHrmOeZD5lvVVgqtip8FZHKCpVKlSaVGyovVKmqpqreqgtV81XLVI+pXlN9rkZVM1PjqQnUlqtVqp1Q61MbU2epO6iHqmeob1Q/pH5Z/YkGWcNMw09DpFGgsV/jvMYgC2MZs3gsIWsNq4Z1gTXEJrHN2Xx2KruY/R27iz2qqaE5QzNKM1ezUvOUZj8H45hx+Jx0TgnnKKeX836K3hTvKeIpG6Y0TLkxZVxrqpaXllirSKtRq0frvTau7aedpr1Fu1n7gQ5Bx0onXCdHZ4/OBZ3nU9lT3acKpxZNPTr1ri6qa6UbobtEd79up+6Ynr5egJ5Mb6feeb3n+hx9L/1U/W36p/VHDFgGswwkBtsMzhg8xTVxbzwdL8fb8VFDXcNAQ6VhlWGX4YSRudE8o9VGjUYPjGnGXOMk423GbcajJgYmISZLTepN7ppSTbmmKaY7TDtMx83MzaLN1pk1mz0x1zLnm+eb15vft2BaeFostqi2uGVJsuRaplnutrxuhVo5WaVYVVpds0atna0l1rutu6cRp7lOk06rntZnw7Dxtsm2qbcZsOXYBtuutm22fWFnYhdnt8Wuw+6TvZN9un2N/T0HDYfZDqsdWh1+c7RyFDpWOt6azpzuP33F9JbpL2dYzxDP2DPjthPLKcRpnVOb00dnF2e5c4PziIuJS4LLLpc+Lpsbxt3IveRKdPVxXeF60vWdm7Obwu2o26/uNu5p7ofcn8w0nymeWTNz0MPIQ+BR5dE/C5+VMGvfrH5PQ0+BZ7XnIy9jL5FXrdewt6V3qvdh7xc+9j5yn+M+4zw33jLeWV/MN8C3yLfLT8Nvnl+F30N/I/9k/3r/0QCngCUBZwOJgUGBWwL7+Hp8Ib+OPzrbZfay2e1BjKC5QRVBj4KtguXBrSFoyOyQrSH355jOkc5pDoVQfujW0Adh5mGLw34MJ4WHhVeGP45wiFga0TGXNXfR3ENz30T6RJZE3ptnMU85ry1KNSo+qi5qPNo3ujS6P8YuZlnM1VidWElsSxw5LiquNm5svt/87fOH4p3iC+N7F5gvyF1weaHOwvSFpxapLhIsOpZATIhOOJTwQRAqqBaMJfITdyWOCnnCHcJnIi/RNtGI2ENcKh5O8kgqTXqS7JG8NXkkxTOlLOW5hCepkLxMDUzdmzqeFpp2IG0yPTq9MYOSkZBxQqohTZO2Z+pn5mZ2y6xlhbL+xW6Lty8elQfJa7OQrAVZLQq2QqboVFoo1yoHsmdlV2a/zYnKOZarnivN7cyzytuQN5zvn//tEsIS4ZK2pYZLVy0dWOa9rGo5sjxxedsK4xUFK4ZWBqw8uIq2Km3VT6vtV5eufr0mek1rgV7ByoLBtQFr6wtVCuWFfevc1+1dT1gvWd+1YfqGnRs+FYmKrhTbF5cVf9go3HjlG4dvyr+Z3JS0qavEuWTPZtJm6ebeLZ5bDpaql+aXDm4N2dq0Dd9WtO319kXbL5fNKNu7g7ZDuaO/PLi8ZafJzs07P1SkVPRU+lQ27tLdtWHX+G7R7ht7vPY07NXbW7z3/T7JvttVAVVN1WbVZftJ+7P3P66Jqun4lvttXa1ObXHtxwPSA/0HIw6217nU1R3SPVRSj9Yr60cOxx++/p3vdy0NNg1VjZzG4iNwRHnk6fcJ3/ceDTradox7rOEH0x92HWcdL2pCmvKaRptTmvtbYlu6T8w+0dbq3nr8R9sfD5w0PFl5SvNUyWna6YLTk2fyz4ydlZ19fi753GDborZ752PO32oPb++6EHTh0kX/i+c7vDvOXPK4dPKy2+UTV7hXmq86X23qdOo8/pPTT8e7nLuarrlca7nuer21e2b36RueN87d9L158Rb/1tWeOT3dvfN6b/fF9/XfFt1+cif9zsu72Xcn7q28T7xf9EDtQdlD3YfVP1v+3Njv3H9qwHeg89HcR/cGhYPP/pH1jw9DBY+Zj8uGDYbrnjg+OTniP3L96fynQ89kzyaeF/6i/suuFxYvfvjV69fO0ZjRoZfyl5O/bXyl/erA6xmv28bCxh6+yXgzMV70VvvtwXfcdx3vo98PT+R8IH8o/2j5sfVT0Kf7kxmTk/8EA5jz/GMzLdsAAAAgY0hSTQAAeiUAAICDAAD5/wAAgOkAAHUwAADqYAAAOpgAABdvkl/FRgAAdo1JREFUeNps/We4pdlVHoqOMOf8woo7V67qHNRB6m4FlIXAQogMxpjHxhhbHAfwka8xGOPr6ww+fi4X7GOSwQiwSZYwIkgkgYSEckvd6qSO1ZXDznuFL8w5xrg/vrWrGzj1o3rX7r3WXt8MI77jfZFdgYiEzIyASEgu+H5ZlkXol9mw78vMM5EBNFHrNjWNVlHqNolIats2JjGNTW2qqmpmzB6ZZ1UtKZEZOYfITOC9R0RD8iGYaT2vJCVJraiaKrzsDyEBInuPSKYCCIQOAIjJee89j8ejpfEoK7IY9er13el0jhpRGxWTFNXEVAAQkIhYiZs2gRkAIpF3jpzv9XuDXlEUmfPOeZao01k1mVZtjJ5pedQ7fXLj1ImN5XG/DFA36er2/MLFyxcuXZ9O52WR3XLL6bWNtaZpL56/VFfzNunuwXx/76CqK01iqsicOdAUiZAQAbo1ADEgdswuqjZ1Y4Cue3hBNXCIaGgkLGqIjIiIjEjErKpEQIhE5lDJUhNTEyUpiFjbqqhqiqoC0ICZAQCAIYAxgJohEjIxIDKzKiAgGBgAdj/5sg0wMEQEA0AEQAAEBAIkRCJEQO+4yLN+r9fGuMMIEmOKYKgGMXYnQcFMVQGAnet+yeLVAATmmfLM9fKQ5cGxa6ipZmoSLSUgH7KsPxgOl5aXlsrcqihs1FYRmqiGrOSaZNNZfenSlYO9AwCYzef7O7vVvFJVAzM1k1hFxG7xQQERoxkoKAA0gNCtKpg5UzMEAjBVJFTAFGOMUUxFISmooSiIaEoK3dIAwGJfAQBMVVQkJRW5sZLdFiBSt6CHS4DkGJHM1MDMdLFT+Bd2wBZ/df/XrNsDAABANQNA57jfL1IK3jskQkQDQLDDPes+QPc+hgiLz9p9ReSd895nWRj0SyZOklRNRc2MmPM8Hwx6435YzVLbxFmkum6aujUAZla1vb2D6XQ2nUxEtZpXO9s7TdPo4h4jEsLi8cHAwAzMbPGE3UchZkfECuAMFAwNAc0A0NTEJKXYxpSCj8laMQ9mBkhIh0fzcIEAACQlTclM//wqwo0Hftk/wTkHiAbd8h9+98/vwOG1sMP3PFw77H6MRI2YyrJIIuzYOW+mKqIKzGymIH9hOxEJAQ83AImZguM8C72y6BanaWMUNUBEzDK/PuDTvfmAm22Rug6TaVU1DQASk3OMhG3TIFKM9e7Obl3X8PJzZIBEiASHxwsBzPTGIjAzIiEid7a1e0g7NBwGlmJKMTVtYm6ZgPKQBwdgTZuaVqB7OwMANJWUooEdWp2Xb87isoBBdw4AjB0DMED6c4v+lzZu8Q6Lxe++RkAwA1Fr2ggIeR5ms0pEnHcheBGRJC3XVpmk2H28l7YT6caNJCJEDN4N+kVZZE3TxhibNt54gjzj5RLW3W5SEsFZJXv7k6ZpEdF7Nxj0iDCKqep8XjVNg4jdhTu80HhoJxYHsPsAZoYASNStNoAhssPuH91VMUNCAIgpTWdzVQUwBHMEZVHmwakZYneloDucKrqwPC9f/5ef+cXuLl7FyECMi8N4aH8I4M+5YbthQxbW0QARTEHRkCEmbZuIh+8QAmfBI2DbyrwiM1NJKQGoACACLU6CmYqAUXe3mKEsQp6FtmlnVR2TLJbQrJ/7I712jJOJ0O58cLA/m0xnIua9W14aZlk2m07NNMYU2wh243WL1WdmAHz5iVxYn84kmZkKMZmRqbpuiToDaqZo3H0lKVV1TQieqW45xpQFF7xzzAZRDw24qJjpy37XS+ca4SUv2vm/bg8W5hpfbnbwL96CG1sAnQUHVcPOSgJ1ptIRee8JKQ9ZvwwAWHGbkmhuZhrbmGJrKguDqYKIKtGURBQMGDF4yoIjAlAlfOlELPX4pmybVSXxtYnuHkybukXCpaXR2vpyXTeTA00iItI93MKYInbOdfHZb9joG1uxcAyISGAgKgBKLz+tL9s0U1FTq5q2apo2atMmTZJ5V+QeEURAzLobAC9b7z9n77vfdOObuAh8JOnhAr/0yr/gOuwlR7M4GwtPgQTEXXjhvUMDBMsC50UoihCCd47YOee8D955j8Q3glsA6r4SETNgxiyEMvOFp34eyiJjJkQs83BioKu8XwtuVf7CjkwmsygSgh8N+1kWRERUVFREiNj5gMTdJTMwU9EkKslUTNVUzBZ+GBGRGImQ6EbA7V5yHIvgQRehi6maQZLZvA4+FJnrFZIHLgIGJjUTtS7qWkQfh9b+xlHGG6YQoLNsxHwYGdzYmL+8+oc+qTNbi1OPCMBESEiIjhduTJI4Qu/IMxORcwmJmImIkYTZiUhniIidmYIZIlmX7zADUtW003llJmjJzBB5fam4eRzVgKS+OCl39/bnVYOEwXPTtnt7k/ls3jk4EQXAkOdmmCSKJLgRCd1YAqDDAHDxbSImImYmIkByf+HR1ZQBD32yGUDTxOm8zgIPe1k+hFMraXd3salJUvdIcBh2LLahu5HEixB+YRaB2QGQmsKhJem2q7u7Zv+P+3DDlQMiMhIxe8feO0ZwDvr9TNQIkbrtIWIm55yIGNviCr4UjBEyO3aOiZDmddzZm129uru1vV9XlSRzId9Yym4ZTGrBrTk+/Pz+hQvbbZKiCGVZSNI2Vs75okRkjqLITFHYhRijxFYl2UsG4KWzSESIi4/nvPfeETEg1XXl/tyzLmyEIS0+dJfPVHW9P3PjYUKE4GCpMANQM0mpC+oAE7y0fogIRIzsuq/ZOURGYiLfnQ0iQiZYhLT45+wWwF/eiRsXioid8yG4XhGG/YIsXR+W03lDhESEgMzISj7LYoqihEiHxqE7E0TO9wflaFAg0XRWX9/aO3/+ysHkIIqpcZbhRtGOqZrG/HPn8JFnD3b3JmVZDofD4ahP7IgdmtV1HWIKxWA+r+q6SSmpWoqxbWozJWJEFBFEIHJdoIxEYEBMeZ45x0Sckly9fMkdesAuF4Bu0ekw8+k2JSZp2jirY9WmbGD3bugj57FzEoBAhMSsYouMCYCYiT0iARozO++JO1tJAMDMKEa8yJ4ADG5kZC85DPpLaUF3Bcgx55nv9/NBP0eLg36mZgYsBszsHKkxITW1i0leHn12Z8U5P+wVw37uHM/q9trm7rWtHTATMXKYezpVzmKU61P64yfqnb2JqQ1Hg+GoP15aHi6tAMJ8OgnzKqmpUdXGFKWaz1NsJYmIdBYwpShJkMh559gBgKp29YgseB88IG5dvS4pum6p8S8lovRy/2mgCvOq3Zum2ZCPDmC5xN2DQx9KxOw7B9RZHmZPTF3aEkLGznnHzjsEVO3yQiP2xE5SfCmj62I0fJnTtpdHcQTQrT9lwfWK0Cvz1DZZ8ICtKRCz9z6EABYjqgse22imXVEIFkmUd84777x3Mabt/enm1k7bJkQEM0Lqe7ltOK9r/NSz8bGzjYqOl8dLS8Ojx469+i1vzfvDy+devHrhHHkvCvOqzdATi8tyU7XDR2vrOrYtACATEwGiipgBmLJzIc/Kfr+u6mo+j23r/h+jwBv+0xZ5HaphG2XeSjS3WuJKn8/SYcYNQMxI1HkNJAbq7AWz8z7kWebywJkjJKqbNK2iKhAxOx+b+Y3FflmsRt2FfVkAc+hLnGfHIfN57geDMra1dyRiYlDkDpGSJBGNauwCceMYQV0XiiIzsSPniIiIZlV7fWtvNp0dBg6IAKtZvV7gzgT/5EuWooaQLS2NV9ZWv+Kbv/nLvvIrCoC56WTvYHpwUM3mk8lsMpnFtt3Z2t66tjmfzVJKksTQnHMqwt4DgKoQc1GU46XxcNQ3g09/5BPbm89Vs6mILDJhJLzhrBCQOxvdbQwiEQNAEk2irTI7umtDHz3vGmY4DEMRX3r5S3aEHBF5psxxnjESMWKbpIlqiEiOyKmmv+AJut0zk5eHsIiIhM4zMXlHwbF3HDwXecgz1wh67723NrbzeW2Le0k+OCJuYjRDdouqESAmtVkdp9MqpdSZWWIObHevS+n5kYvpmWuIyIPhYHl5/NDrX/+6t395jPG9/+XH1jbWN44eH6+tDQeD0TBnt8FEMWnTNCrS5VpMZKr1bA4iRDSZziSlVM+Q6A1f+c7nz1/8yO99eD6bNk2lqq7LMLv6SGf0yXlid6NydcOJiVpMtlfzZp3dsRqHPV+3IUr98mQKD6tmzFwURZYHAFIFZHCegiNHWKcwq9UMmInYH6YtCqqHqRseupOX239gduwdEjERMxICE2SZ6/UyqC0EzwR15Z1jxoSARBxCSGxRzACIHRACcoyytTvb3p3PqwpMgbqiDQ5yu2WV6qh/+lw7qbg/LFbWlm+57dbXvOUtI6IP/M4H/v0/+f6Bh7zIQ/DeBVFBMFVDMOeYmZkJkbxzAJaSmJmKVnVDRG1Vv/sH//nrvvKdX/jcI3vb223TpBjNzDE7AUFcnNauaox/vpTWxaNJbF7HvVo25+6eMRwf0+4sqKqkuKhAdTkuAhOvjPtH1kZZ5kwNDIjAOQqOowdDaFptk0bwlnzTgJqgkaEs0saXxS2ACF0kg+i8Z2I+7F2IJAAN3oXgmyTOOe/I+24V2CwmETI0M0AgDl1sAMS703b7oG7bqCm9PHJb6/FKAV+6Jp98UZF4MBycOHn8tW9808133Vmbvf9n/xsDELsYo6YkXBN2tR30jl2XnbcgqhFAzCRJEgUAYqeSesP+q97y1mkbH/7kZ2IbU9uqKJi54H0LgEghhMNg3P5CitRtiYhWjTQRGsqJ3alleGEHPXNKTVO3ZsYEAJgF3+uX68uDpWGeB0YEVUupq1cgOwiOy8JRk0woZJkZtKnL5hclLeqKAl0Vc3EjEJGcY8Qu5iJAi7FBxKLMg2+c46LICLRLBrr7mpKaiKohOXIeANh5ZG5FJYqJqMrijiEwcx7s8xf1i5fSVsVlma9vrN962+13P/RA3/GnH/7swx/9aM4YY2ICYCzzvFeEzHtyvCi2EXd+GBBTEgBQgf3JJA9hmMHd99x+xz33Pff0sxfPnlMzXRRe0RkYEYUQvHdtkpeW/mWGnCgg0qAXBqUrMx/KsuX6lafl4hz2pqlq8v1J1cTUHcAyz8b9fDzI+oXPAwNAm5RIVAHAkpiaEWIWvEVWzwqZVCgogAiqBGimL6v/MyICITEhMRKyoy6tS0myvBiNxuV+ihAHvaJpakBQA1FLYgCk6AC1+3lEQiSTJDFKjCrRoMvUDJkN6dlraXti12fOe1pd2zh2/Ngdr7hr7dgRBPiT//0b04M5MnhHReb7Rchzz4SEyF3upJJiFFFCNLCYBAEVkBEkNkeX8cvuWV8ZjT9z/dFqPo9tw+x8yGLbuiTqmLPMAyImNDhMPRfFUWaXlUVYHRfLw1BkYWWUZ1mmYXDz6uTMerjq0+6sBSQmVLAY1TnXK3yZudyzd8yE3mmMmAySqJkgoQEyofPOxUjJ0Hk2XtSJRLra1o0ktiueMHtAIsIi9/1elmcBERxTUeS9Xhm1zjKvlohQzMQgiQE5Yo8ApqmzojHW1iw6oIurvmjRsKrtVTbTnIlG4/6xE0duvuXM7Xfd2Svyqwf7H/7AbwJCmYdxv5fn7BwxYkpRNJke9n8MyFTVDMERiWhKLSL0cxoXtjEODmB3d7+pagR0IZT9QYzRMTtk1zmMl60+EGEewmDQE6Myd2vjPA/sHZqpgBNXsjXrA5606AINSq8KaiYGbVTvKQTHjpjRETlGQmRVJooCoMkxOUeqQWeVGjChGgOAERu2GA3AgPwieXKB2AERIubBb6yNb7np6JH1fu6ZHYXg+r2iFUNa2DEiFgPtesLskFBa66yYSquqeKNwRQjW1V0AzHyWO+dDFjaOHjl56vhdd9+5fuyIB/jUH//R2aefWV0elWVuEkWEDIzAdQ3fw0q+qSa1JF1WId3hAVUC7Qf02DDA8vKImQE45Fk5GMU2OXIOkaL++QqA2XjQO7Y+LovQlWmHvcCEpta0ad5I3XdD5CMD3WlcFX2RqaoxIRA0rRJh8OwcAWAUZQJmBGBHRujAIAuc1BwXVZPqOEE9LOMhss+InXXWmWnRlEbq1nY0Gtxy5uiZExvLI595RxwQeThIbbI2xtm8ilGjWJvMENGFvCicd/V8nlLKi4IJYz2PbQsIznvfVE01NwNm31k57/1gNFxZXT5z06lTp09nZZkAPv6hD6FoUeSZd+DRUjRVMI2pC9vIur6saLeVogIGqmad/SbyzprJ3l4zv/+V9x49deLyuQs+ZJKkHA4dIpn9pZyfsCyyQT8vM3aMRJh5ZwAxStWkWd22VjjPK6UNcmeIeQBEdNRtPagYEXXWALuIHw/7iojDEh1T1YoaDAd9Ndjbn4mmGz0aYofs7MYrAAFBFQFxaal//Mjy8tJgUHAI5H3mqjiqY4y6P1E1a6LMqtQmY58NBoPBaMjOHeztpSRLy+Oy16/ms4OdnRQbRJC8QF9I0q4/zox5npW9/srayvGTJ5eWV11R7Fazpx95ZDDsO8/IyMihzMt+P8sziW09m6W2retGUlIz6cIeICBAAlNIajHpLPLOpRdf+OIn73j12//q3/q2n/yPP942bcizJOqcc2lhdvHGPgTnmF1MaoGRKM8cALoOYYEIapNaZ5wVAZZ6bO7woDKaquiigGyAMYkIdnAKUVUFBegcKUZFJB94eWlUlsV0XjetqGobTVRNBV/WR+r+k+X56vJoZdwvcl+Wocg8OSaieZ23rYhKFpwaGHLR6+dFuXF0Y/3IRtM0IQtLS0trRzeq2Xw2mfTKvJ5O2rqq6yYqJLUuug3BL42H6+vLR46fOHLidG95jZmuvHh259rV/rCf55nzzjsOmWei2NQAmA8GbV0rmKpzqhKTqYJBZ5zamFhUzC4e0F37k4d/4+dP3PXQ297yxksXLr3v53+F2Bc9cuyYiGJKKnpYfjHvPTIDgHPkmRyhYyoyZiZCDAGj4FTCaojLJVXoHQIROUIDFbGuYUmAUSgm6er6kBZdRjFok7XJiLCXO0LEQahjsTdNohBF563V86app/hSkRZCFtbWltdXhmUv994770IIzKRqvdzXvdC0sQguBD9eWVkK/VM3nX7D299w8syJz3/i8wfb177i696xdvzoB//Xhy6ePTfuF/u727PJ/mzeZP2hAjK7sij7w9762vLxo2u33HrT8TO3uKJPAI998pNxPl0/up7nRZaFLPegCVI0JQBEz45LMkuxNVX1flEQQyZHIUkHnGoAd1vExz78W//13331d37Pt/y1b9Qov/9bH0LnnIkiISMuwm/E4HxRFG1S56jIXBFcr3B5cM4TIyAAEWUeXZb1QrWGFJ1vdYE+QgAzEbEkJmIMSMhd25hpEWRljsQbgusqNI7RDJrkHHGdDBCTUd325vNiOp22beyaseOlpdXl0XBYZt4RIdEiV2C04KnIQpG3RZGNRsNyffXBt7z5Le948+mVsQO49Y6bHVmeFfN6fs8D9zQHExn1emWYHvSjmlJwPgt5Phj2x+Px8nhwZG3p9M03LR1ZVwQA2Lx8oci43yvLonCMzpNGMFRkIFTVNsZE0jpQ8iyK7DKXFy5kXcpWz+ZN00bTp3bkoSMJH/6lz6YLr/uen/zWv/ktV69tnnvmeSeiJmYGwbl+Lzh2IQTn3aDwR1fK5X4WAmeBMs+OiRFtEamaAAP5QcBlolkKXZynCgCUBEikbWLX0u1ibUBMQkKAAKMeqUESS2IGaIDEAoBDDuhzn2WOua6bqtWDWX312q73fmlULo37ZZ51t5sWRXQBACYuMt/v5cNh7/alY/e9/V0PPnDfzv7uj/3bf6WG3/Ge91y6eP6H3/OPS8/f92P/5U3vfOvnPvLx4HllbS0Zkc/YZ/3hsD/oL40Hqyujo8ePrK0vhQ4eAXDkyJGl0WBY5ESgqTG1siiy0QBRLSUkZ+RS0nLQp7xo6hoA67quDvbFwHnPPnilVtKVaXxsi//eqxtsnqpjPPv02Z3NnWa+79TMe7c87i8P8/EgyzNvBnngQRmG/VAG7iytc13HqeuvAxIkhcqCZ/HGAbnLortU0JtRRFO1FtSMEYABkctMHVMSdQ5VIYolAUNG9li35CDvDftLy1mWMfN8NiefVwlGZ883dbW0NNhYXxoM+3zYV+jMJTPlRQDnBfDEqVM3v/XrTx47/v5f+9X3/pv/z7NPPjMD+MNf+7W2mrxw9mIJ8KPNu7/vJ3/mnodede7pZ/vjpd7SUshy9n4w7K+tLY+X+gOA/Xp+9kuPH+xslcPxFz7+sSf/7CPLq+vD8TgLnskAjH3I8kCMqa7ns4qzLB7sV/NZvbtrai6EmKKkJCpJFy0uM2OmO9bS0ZHbP3af5r0P/PJ/u/DC2Way4wDp1LHlW08slbnLA3smNcsDB8/ec+bIO+y61cxIAGKGhI5IjGsLkail3PMhDKxrlpoBYFcMMQMDY0BkUCQiVEMzNIfOKCkYh95waZisSZIV/fHq2trpW5dPnqqmk2r/YHYwKXM33d9bW1s+c2JtaWXkHSokkWTqyTOxI89O0YCW730wX13/59/7Pe/7iZ8sPTJDT+HpJ5/q5dQLWLf28Cc+9cGf/Ilv+Kc/dPsr7qpns9TW2razyf704qXtJ2c7Vy6/+PyXnvjMx69duKSqFMKVa5unjh9dWV1rYyTn8l6pKaWU0sFBjG1b16mNMQoxmtlkMkVEDh6QAFBUk2gSi6IxaZHpKzasKHL32m/4409+9pnHn2qqebV/4FaXB7efWlobFVlg18FBER1jV/IlwuCQGLuCmhnyYZ1GVafJl4xd79g5NABiQiJWMzUfXRRBUBEys24LEdEADQjJcVa0bWwVB6Ol5ROnY0wieuLeB2599et2L144+6ePH7n1zuKOO/u52926Phz2jqwtDUqPIKmdNtJkqoECOU9GjExZzx+/6Qfe/d2/+YvvXc5Cv58TgPdZ29blYDQaLTvHg+Hyc0+/+HP//PuW11auX7yyfemFZronqQYVM01N1bQ1O9dzjpDqdn91XJILddVO/LRp22o2K4scQFJTE6ilNJ9XTdMamHMOAMxQDJGdiMSUUtQoGqOoWeH1+ECoGIajd3321z9gIqBmYG5jpbc8zMvC5YHpsDNOiJljH4gJAxMSiajoITYUwQDNsE6AHExFtTP1yMTMrKiONcucIjStOOt67gZA7B1yMKCQl+R81cjBfjVaWb/7y78GVDCEtY21j/7mB37+h77vwdXyoXf/n/d81TfOrx9hwkE/H47KMnNNG1u1SBmNRr7fY2bLBrWxCv/pBz/0kV/9pRODvIo6zLN+GbxjgswHZ7Yf581sfnlOun/ezpkQISJCEgKQpDHFto1tEqsbACR0rcJ2VQv0YDnkApq0tXY2ncS2QdPYtpJiXdUGRgQ+BJcVHBw5p4BRtKqaGLvKqXrPfWeBEUfH5zTY3dljx10Pxt11eqlf+MyzZ4KXBd6HTUIQAARW9uSAAehGp9JMzKIqO0eiBuSccyE4500VfeZy4DblqStHBgMEIOeDy3J0DgyzpY21V77p6uOPXv2T34G3ftX67bc5gF/9mZ/5D//oe08Uzt38YH705Hx3u7e85Hq9slcywXR2MG9i1XgAvn65me5eqaaTyf70/HPPXHzuuc1z5994503PXtlspQ7eipDK3IhYYi0m5AARxWA2bwCZgy96Ax4WTasuL8ZLKydvuyMUpbRx8+qVc08/c/a5F8Yn1o8e2di+clnTPoLF2KTYmiRH6ByG4FzwxKQiImptiyFD55tZPT/Yb5tGDcTImA0stUmpzJeOXp018+mc2HWtLndkpecdmYIZdKihDoNpBm1UZOosfsjK3qAfvBPRRbCpKimaLW4fs3ees+A6+G1QBKAeUDI0I2JvSD7kC/SRiB+vbbzha5um+uKf/MHmx/70eiX9B9+wv3ntp3/kP2jbHj+++smnL7kP/+Hxm2+dHEx3r1zcu3bl8tnnZvs7eebYBEA0xpRaA6ims7puAGhtvOR96ZxzhJPZ3IGfTLRO0rQakybVQLA2wNXbXvn27/o/T9xyW9Ef5r0SDRwu+qtV1bjMq0psm2tXr60dOZJR+rff9bcun3vBwGWevXcu844wsGPHPs+ywaCezdq6QkQBTE2bRAAdeZIYRTS1bWvQ9MCQHaGRd94hUMgyHi85x9jVcLrSEhMgoS1wegYGYpAzZ5nPsrzoD0JWsA+mpqkFBBFNTQ1mLu+Rc1lwBIeVHTPkzDiAyxXIAFzep7wPzOQCrRx/7LOf+5V/9c/OP/LZ5dXVR37jN6/8+m+qTPt5Jokv7h5AqP7wF3/aYdIUEaUIvuyV46IsellvvEI+b6Og80AOfZ73B6OV9WK8srGyvPzb7//Mpz93eXdyYWcOBkm7Swy5x1ee9O9+Y7/39q8bvPGrJKa2bq6/uIWx7gWHIPv7B1VV1007mVbzVsiHze36He96050PPrB75Zwv+tb1dJiJEBDNkXEQQMoL75yJpBQ1JjWkrKC2tSRqamrkHDmIYjrfPbUyuPWu27/wyc95nxmAQ0THi1YYIhAhExJ1WEwC6KJOIzRNbWpm2elXZmfuZ0KabXU9HZAobU2Tq0RELmCXLRBjbwmzHpZLWIyQKTVtVbcpyXR//+wTT37+D3/m4Y/8CcZ0oIDzgzzgsaHbmztSuyI2n1XH2FaOrJy547b+8mpW9EarG72VtcHakZVjp/vLqyoSm6Y3GvfLvJezJyTnyVH0g81nH3vhyS+o7zcSM89NkybzlEQLh689E15/c3jmyqdWxv+vq1d2D3Z3Ny9d4lRPnc7m8/2D+byqZ/P6YFoL0Ghpua7qF56/+NqvfMfDf/S73nGdwAAVwAwNySFZkjStVEUlonWlVTIRlcXcBQI6H4Bw0uiLu3hmNlu+/uipm08/8pkvhCxTQMeELhBhN7WBjF3dFz2jWTcSQ57JMTsCWrv5iq585qd/4eiZW47fdOvyxnrIGAMW6wOr9syk5lyS1NWsberZ5nzv+gvbl8/P9nan+7t7165dfu65/a2t2f7O9GBXUyqKDNFm+fKQawRQiYXzdW25d1vz9sLO7G//q3/7ld/x3ZISAoS8x8xkarHBdk5aF26Yk2Q2JWmkaubVtJkd8JnXvPJbvvPDv/87mWz3ysBMu6IKpgZt0r3Kco9Hqqd1unn96t7l8+fne1sFttM0v3Dx+ub13bqVWR3ntfi8APY+y1547vxb3/bWY7fece35Z01dkzpwhUeUrv4LKik2BOCyzBazJ2RmllLueTwIZXAAUub+M+emt5za6l34xFe9/q9dufy6J7/whMuCQwImRAAi5JfmXhAA1bQLSR0hgTBaGB+Bcuk3fvzfaowra0eLzPncj4+eOHripitXr5ppO5vNJ/uzve35dNpUM4mtxgQApsAMzoH35NmNBsEol2QpJmYwsK1pU0etW6mjlD7LEBu19VvuHni3c+ViqmsajCDLoHPzFl27X8Q2C0zEgGYEjjAiyNUv3ffQm9/5977/V374n/V7Lim0Uafz1CbIHT55Oe7N9cSwev6z/0N7X6kpDktPKW7uz7e3d7f39udVms5jkywvZbh3MByPN69toS/e+Tf/9nv/1fcPe/nuJKaoooIAXpgIwRSRiTkmTW0TsmwwzPocN0b9Myu0lrfLofEoMVVt0862r+y/+MXV5Vv/xnd9+6/90vtfeO6s6wDFHQr8BoI0qTWqYAagxORARS2Jpt2rw+OvPnrLbS88+nA12+0Nj+Yr64OjJ3a2Lj39sQ81dQIAZvCOnOeiINd3YJxSSsnEgJxn75NYHbWVWLXSJIXZ9d2CtyexQ+9kRGY2Lovt+bxpo2saFxtlov7QLy03bbO5udnMpkv93i1HNrzOoJmamjF55yI7mW2m5//sXd/212+96+6P/fp7/+D9vzwe9kOgi9eqOuoLW+lDj9ff8WXl8ef/J/yVL7dqlEE5n+1fv74tioYcNUWFNik0TVW3JgmlvX7+4ju/+du++JE/euLP/qgIfu8gum4igVktISKSM+Lc03Cpd9Op5WP59PbefKNX9TiSiajNI22Jv5yGz+0vT/X+1x156HSR3/+aB65vbrss+Cw4A+uA5l00wAhAqGqIoAopGXpVtdQ2zG7lxKmrzz2+uj5eO7Y2OrLWH+WtZCdPLGlsVCy1bRdSkc9c1gv98ZkHvmy4eiQv8tXjJ3/lv/znZx7+PAAwITOqmiOYzpMaIIBD7GfO1Ma9/NTG8mC8JFkejt9UDgdJ4PMf+9j/+umf/tLjj0mS/srK/Q8++E3f+g1v/LL7enEHZvvKHWYade+iz0dvfvPbztx934vPPXP2yS8MyvLEmp27Vh009t5PzR48He47sV8+/F8f+qr/dOmZs85RMVgaLVcRMuXKQpT9AxHVmDzZxnIJ0x1Ht/zV7/2+Zx7+RAZqyEk7cGcEhbxXDAflcJCtLWXHh3DGb63Qbo9TVfPzeoROviaceuDoXa+6+/ip+7OgqlWSK0rVpasvPvPcdG/PZVkocg9mssCzW0yqpgt4FoKoJtWCkJgt1iFk68dPbK8W41EYLPVzT3BwbXblbFtX5PJybf3IrXcduenW8cbJtTO3Hj11usx8vwjDI8f3q/YX/9N/vHjhkgIw4qjvRj3PjGYQY1c2wdzzUq8AYBJ465tef8edd7R5cC48+9E//vSv/MKjv/cHbUxftrbGmVim//tnfvaXf/pnvu6v/7V//6P/7qYB6d4mOwZVTbG+fv5sDZCP3/3vfuznfuh7nnvysbIojq3C5a3q4p78/Cdn/+7rRsMLf/Lik390+r53Pvbw48VovHE6jI+k/YPq0pWrZqCxHfbDUt8fXSp7lC4+/8ydd9/75m/89g//ys+sLy1t7qkAeZ8Netna6qjIjduZ37sM8zouZ83qkfbUa46/9TtfedcDJcAOwIXru48+8+JzT33p3Nlzk4OJiAUmbaqD/QOXl0VZZN1am0pVNVo10pntBSgC+HDA0+p9bg/WNtafAbFY1zvXZxdfQPDrt77ild/wt0/edufK+vp4aWngwXfvV03bag/CsReeee7/94Pf/+Hf+gAABMLxwI/7ngmCZ+cQzCOCAarpPLX3j4ZvOHXSBsM/+YX/ftub3vy5X/y5L37gffuT2V033T4zgINr60c3bP/K//GW173vied/4xf++5UXz/239/3STXmfqymCtU29d+XpzckTu7HcuOe13/Vvfuwn/+l3n3/huWG/l8Qk8Zc2/WfPpbfc5uvf+qG9/sqZ2+5IvjhKfmdn//KlqwKYhQzi/Pj68MhSOe45Mz37/Dkpxt/499/zhY/9UTzYHPW5qtNtt55u62k139q+tLNShvU777zt9W955VvesX7m7pazC7sHf/jxzz76yGNPf/HxC2fP7m1tpzYaKJqtLI1uueXUoJ8XJPhLP/oPB4N+CN55h4htTHXTNnXTtk1qWxFBM+coy/NQDvLeoPf6v/G7/+v9v/sj3zdcXTp5z6tvf93b73zjV5y89fYhzGn/sjN1CI4JkVJbJ3R67I4PvO83/8s/+77Na1cJwBGuLYXxwBNi3UjXctC2bUXQZ6XZm48dPVos/c65/YPZdNXp8ihbdmrkL09bKMYWKyfV0ZXlydVr+01aOnr8t5+5un1w/bt/4F/8yI/8Uzj/8N721vb25ub27uXN+W7jYXD8zte9yenkf/yHH/zCpz7lnF9dPn6wf3CsnP/I14f1AT615Q6OvxXv+Irs+D2VW/rknz062dsnaQO0KwN/fGO0vjzYm8Wre01C/45vfOdn/uADP/UD//DE8SMd7Hc+mY7Wjt37+re//l1ff9erHgKAC9sHj3z+0c9+/NOPP/yF88+/MN3bTbFFBCIi5jz44aA4deroLbfc5L1r69oBKKIgOkRg5oycz7J+vy8ptU3T1lVKMaUoKWqKDAqxgtA/8qq3fd33/sCd99/XZwnNvrv2GKaZKGDIOYRkqLHV/spuvvYzP/hDv/p//7gAMAATrI/DyihjwjZK5qmNcnl7eu8b3vCK227rPfpntr19arjynx/frpC+6f5XjGj/llMnz17f++BnPr9f7RajxhfDc5e2Bld33nL76XiQ6u1r943Dk7H/v3/xf/yDf/zdp30OiGomSTWldt6UvZYk3vWqV7/2Xd/yuY/9ab/X21g/2jR2+aD+X1+Q73ydX81aPv/7O0//we8+q6O3fvfrv+XdT37+8ZLTsKAAUma8tTc7f/VgFmFapz/6gz99x1d/4+Of/MSfvv8XncOit/Tad3zTu77zu++87c5dsY8//MRH/+hPP/exj7/47HPT/X1pWwChrg9OjEjB83BYHj+6ftOZU6NhPwseR6XrIllNrYCYODM0BCL2jpgK752m1DbzupqnZj47MP3Sx97y0K3veMf/XQxGzXOfmk+2tRj4omTviDg205QyHR8PK8uXru38m+/81s985I/pcPVXR2FpmDlGNfOe67pxzv+N9/zjr/6ef9Z+5INw5akvHEx/5HMXp6n9/m/8ytNDC8XpP3z4ufd94pMnV/TIsd7bvvKd99/3wIvPP/c7v/cnv/fUs2+7844L57eyXL/6/puvV9MvfvZzZ950O8AlXcQAMBr1T95608133jaZz//sD//QOXbepZQISXzxB1+aDXNc6cGL2/K22/1X32Ef+7Ofunbm5F9511/fOfsctHPQNJ/Nr25NLl3bmVaJs/D4w48OCv+3fvBfv/DM86Ol8bf/o/fcfOcdVy9c/JVff/9HPvK5z3/qs1tXr0mKYGLSoulitpk6lKofDsrTp47fedetqyvjMu8GNBvHCKhiAmbSaJtErBsloBsDFEgEeeZT0ljP09kv5Jtn63K5Zp/UkEObFCZ7IWRF2cuWN+zMg5L3Pvpbv/VT/+L7Xnjm2a52F5iWR2HU994RIjjE2XQ+Xj3yXf/yh9/6zd9+7drW1h/8+nrAp2Xw4t6Vb/qyB247Purl/Eu//acfeuTxNz14z9jJC5t7v/r+33vf7370W7/5a/76X/36n/jZ//HJsy++Yqmvsc4D3JSlzeee0rc/sKCIcLyyurp84va1ex/Kivznf/xHLz3+1OlTN4WsyLJSVTOXb+3Nf+4T1bFxeHE7fvhZuu8Yr2bVzuffP3/LmzeOb8yuXW6j2zmo62TT6Xx3/6AowtIgf+Hzn7j59Np7/uN/tGa2v735/p/+48cff/6RJ86eO39FkhIaWlJpwW6MVhG5zDkeDnu333bmvvvvOnZkpd8rHGGMMpvNu7FvM41dg7BN3dzv4VgJAvNiqgqJMKYmxp3tbdmZgMtclpf9kc8yM0CNXI7gxANb1zbf+//+O7//678WAXKirhA96vulgc8z12Uu1ax64G3v+Ns/+G+O3HH/xODqB9+30kwg6398b2tY5nffegtI/dyLuxevXPj6B+6+7xWvzAa9e2c7bVNd29l+/6+//6EHXvXOr3jLT/3CrwwHq6nCZn9yZAzDuBOVgJ3Pe+MVn/WWx3e9Og6WfvSH/8N7/+tP3HViY31lNK9TUZYro/Hu3k6RF7sH7dktNeOLezaL/s41+CuTZ3Y++B/jl/3DtfFwcjAl7yTG1DQoEZpYDKDvsi999Hfysrx2+dqVq7uXNw9eOHf9+rXrYEoMUs9AFW/MqAM6n2V5tra69Mp773zVK+84srE0KPOQubqOFy9vPvvCJeeD857amEQVzNB0MQWPoGCIpERowOwIhIgAWQ1SEk01s0NUR+Sc8479xunPf/gP/+e//5fPP/HExtK4LHNA7GU9RJnWm0XumbtZEXzHd/yDv/GeH+hnfuowXbpEn/+90yc3PnF27+Lu/s1HRt6q8+c2Z7W94d57jt9+jxX5td2981f2jPD25aWvuf/2X/7YJ++7+47RsOfKwU0bKw8/9TTVza3t1Mhx6PUH2BtwdvzOeW/1373nPb/+8+8NWXHuyuUzI9fLB9PpdG11rarmVduUWRFj7GYRlor2777Br5bttUuPYHM9K9amBwdNNYvNPPPABQ8KzFlI6mZS725u7s9SlWBv2k5rEYEFUYnaIUgcANBl+Xh5dOvNZx584O67bz+1ujzIM48IMaZr13c/9bknPv/oUy6EEAJ3syWWhBAdQ5IOEkDI5HxwIWcilSRigIZkDolC1uv3ekXPh8wTZBunL+w1v/Rvf+jKi2eHSyNJ0jRNUZYnT2ysLZdPPjNTS2iqit/1L//T29719f1mby6jycVLkz/69Ww8jNx+YXs3ScPN/gvPPD7OKGHAord39snr1y/NqikCcRhN1x5YHtNd6+Pnzl307HcPpnccPT0eDCftzt7O1p71ZXRTOapdVtaj0z/8j9/zqz/xkz7LgzVpf/r5C6OHbhvOJ1tN6A+G/Xk9S84xYRNjxtgPMsq5FsL5Vn/vee6/Ebb3SWPmadRzXGa5h8JD5tEMkmISm7daRWwVzWUAczDpoGVmgIChKI6fOP7QA/e88r7bTx5bGfaL4J2pHUxmTz3z4sc+8YWnnjl3cDBxHTLXO1aVlCTFlCSlJKKKgM57X5Qu5KraNgaISMCM3vssZMNhPy9zxxjyUo/c8eH/73++9uJZdp4QyTnv+eja6ivuvGk62XEEiM4TH737rle89Z0433UOLZQXv/jEztWr7X7zxPaVL02a0mETq6o9APKNTerptZja4LnsMQCgzkkrcfnN474L8dPP7KRBsbo8Ora+stf4T33kY8c+8one+Pi5SxeLov3Q7/5f7/upn+K8WF0eLvX8yolbT91y1wbuPbO5NW32g3PDwWA+r1zwURVQCCn3aAb9DIrqbELni6JwOu45SjkZMUoHR2zb1LRSR1HRPAshZD6k6CszBBTQBEQ+K87cdPrL3/qa++4+szLu55lHxINJdfHytceeeO6Rx569em2rbWNZOEeOvWNzbOa8WAwaU8ImYooA6ELGPrBzEBOogBkhBs8+C/1+ORz0nHfMTm5+7SNfePIzv/u/2YU882LAnpeGw43lPmg8ONjvlcWg7PnQe8d3vWcIzfTKizHL2cItD37Z2q13PfKh9/3ez//M7jT2M3SeQ+HQGSkEJifBoCMvAgC9fOHp40dOZ0U+nNeZpWPLg7X1le2dbZ7q5e3ds09dePvb76hHa3/8u/+Lr134Z//g3YWDm08cHWZUsnhtsfGP0fyzT7+wWUnbKnuum8Yxt0mnEQNj5qBOWKTdav+87FwPpEt95yHTaCnBrNKm1jalNikiBe/6hVtfGTjCHYvTA0REM0F2qxsbr3ndA6+855blUekcVXV76fLmY08+98yz569c257OZiBpUIayyNywX/bKYGZiYEAiEJO2Mca2FZWO5MFUwNSQBAgQvHNlkQ+GgzwE8CEef/DctdkH/+uPzfd28+CJSETKIh8N8txDnmdZ5o+urvWW1h/61nff/cCr5OzDBztbk4Pd0fLZtVvu662eXvr2v/uFTz126Q8/ZNY6yhSsVej4t9S6ib8F/dP+bC9d1FxwqZe/4ujyHbecdN67PKTd9vpcLj3xua0VGVn82pNBxzfHakIQx+21AnMCa9oKdf8tx/c2QH/6k/NkOQI0MQESAIXAgFgGS6r1dB8R2JpeGWKTkTax4XmVHGGkBVGJcy4EKDPWfvA8ICb0eVVHIhoMBjfdfHxtZQwGk3kzOZg989y5J556/vLV7fmsktR41HJQrCwvIaHrDfvDfmGGCiRGSVEU2pjapor1LMVoBoQQEdh55wUwZVlW5KHIMyKcn3jN1bn//Z/4kUtPP8bOOaJ5bL3zR1aGq+PyxIljbTUNjMfuf92rv+U7Th9d1WvPzFIUFTKdT3YmV88uHznzyY//2cd+/yNFNszzuUKcR8kDdSwIXRDV0bigIRO27Xw+t6OD/mvuvOnkkZXz5y9c2d57YWe62+Lk4tPP/f7zONmnejpcGpSj3mDUD4mZDK0qZXejv+swfXgnTquanGvaaKa5p6VhVhZu0sp633Jn23v7w95S5i4mj70MIbq5UttgEdAEmxYlaZtUYkJQT1Bkfmlp6EJvd5aA+Nj6cG1lPJlWz5y7NpvNz75w/uKl65PpVFNymEaDfDgcjEZD73gyr1zIiqzsM3lFp8YKKAYxaVVNqwOKzVxSMhVioASOkQCLjIvMO7JYLM97Jz/2E//yc7//W90cU9LkCI+ujleHxU0nTvaLYq+a3PNV33T7W792o+/K/YuxKBBWQlbSxomQ99KJu56/vPuTP/QvpJn2ltbGvWPYbs/mMfgAaB0Sshv17QIzQvIO5vO0eTDdWB4889zZzWlztXKfuzBzLr9DD954+v4sPzWdbscUaxVQjLOdAaWV8iB3c+PBp87arz2ylyR3GA3ajeV8WGbkMAE9es3dvFyPC3xh67pv1GVZVk8l49TAHAwQurFABBORtpXYipmFQIiQOjw6+mRuNCzzLOzPmgtXti5dvLy/u28qeaDReDDs5V0ObGZ1E5OYY587VyAzcwAKgGxIqha8Y7Bqhs18FutIZqAtSMsAni04ZJN2uLFz9epnfvt9YMaEiqoiy6PBkZXB6vLYUK5tXqTB6rEH3nxkbWl5cpGGS9EwHyIwA/vYX7m61/7E9/+Ds08+dvz4UWetmvhstDefOBdHfdcBVpN16SQswNWAwfPOzvy5y5uW9w9aePrilZ0Wvny596a777LxeLdtstEx3N2aXr9cDObL67aWHbQtzGP2yKWDH/2Tzb2Z9cvU77l+WTiHSFbm+cmlINAcNLRe2omwv/vJ/z566JvSZIsQtaMVNDMzEe3CTQRzDITdtI91Hd02JYsptnE6qyfT2ebmVjWdZ7lf7g+OrQ2Xxz3PbGAqIiIxCRO5Q1a8bvgqQ/ZIbGaIhiYEQho9tPN5C6IIEDx5QiZM4KresfbarE0dCx0QwnCQL4/KIutNqkq0bdr2S5/5vZW7X3PT/f9kkt1BsYpZvxXbuXZ568IL28/97hc+/vDDH//oaDzMgyMESW2SFkNxZb/2Pg1KjwA3GF2wm95HdB6V8MWd6W69O5m3B+qPDIYH9eSffvCPhcwjLJfFkcIXKd6yFnqBMEmM8PTV+FOf3bsyiUw46nMewAyZeDgcnRi5e9bmCvzZzaXXHpllPXe8eWZ6cLWNUtVV27QpSUrStNK0qWtF5plPMal2nUkgskakbeqqqre0jc24bcWxW19dHg+z9aVi1MsIoWli2wqhEfGgzCRG19R1LDOHRKy0GMMiBWHiEDItcoghmpPo2hCQyHt0Pji02F+vhyerL30sI1NCVenn2aBXeM63dg8Gw2xpuLy6cVQZP//BXx3jPharveP3nfvSw9fOPtNcu7C6vDbfP/jYp75AKFnoxmmMGUw0cBOdP7fZnFxOg5KDJ1VTMEYEQxFrWqlMpk3cr1OLea/Xr5u9Z6w9vTa+8+jaaq8AohZpVs2frGYHl/3mXtzenp2b0k6VEG3Qc8ETEXrnBv3RoD9OODs3HTU8vqMvl73buOt+d+y+6d7kYFpNJlVVt02b6ibN61i3kpIiUpmF6DjWTcIO3IzBm0clgNRUUnFeDiHzmUdmmlTaxMbMqrppowwL1y8cMeWFd03TtG1EcIgRqGVDRVQVTY2pEGLmGVpmx3mRB1UiCplvi42DIw81rTzy/p/zVjeMZERMTUxIraENsdcfryHia9/yVcPTZz7xMz+6XcFBA9cuPv26Vz305le/mmX3g8+em7dpwR7QsZoROPYINip1f+bO7+pgLv0sZZ68R0YFNVHdmTUHdTyoRLnf64/U6szsjmNHX3Hm6NKwlzlvLihijDabT7cOZp+9tL9z0Bbeo2lR8HgYsuCDz8q8FIHtvYOi1xsd2bj/pqXlpYLufXs8duvB5uX92fb+wexgUs3n9axqZ1WcN6mNImIKIKod/UTmUAww2QB5dVyopjbZZFaRePZhUhtIjG1DICFkznki68gBCSFGc20bY4xMDsgZtSJqgKYpxUZjY6k5rOoxs4UsI3IuuCvH31Itn37+d3798mf/MC+ziELASdo86wXP86ZKElXBZ/7KM0+fvOdVx975957+xR+vDy6/5cG7b7n5ZLP34mPPvfjYhRmhAYAjYibTiGgdmZSZLg+5qmxay84UEIwdhMBs2kZpWo3qQ2+ZihJzJ3uTYyvDe286ujTsK1irwtISkScc9vuiXDquPKlJlvHqOOvlzvssRZZs+fbXv2Ht+Mkzt9+6sVQuD4qQD2LbTg/29+ft9e39va29+byq29Q0EpN2w71EiGqpjex90StFFZMYWtLUH5RtjNe2p/t1q23ggKmetNO9lFpE8+zyonDO7QS/VWTMbBpd3dTNvEZkI2/IQGpqqqKplmausZZYN20rkhCIHWc+1ONb0tKZ65/8yCPv/ddFiTlmwz62UWPqujfoIkpMsWn7ZYlezz3ymclOu7mz9arTqyc21qTd+/jjzz29pQrmSRMhIRCYHY5IdfNkqtYrKAtW1zqrmhhFJBAHVZ+V/UFe1tU8cdLJnmtmGyeOD/sloKItDgszdrZi9+BgMq80WVH41eWsVzCRUzHKeu/6J//iwTe9caxTbqYWa40xxrZp2q3tvSuXrm1e255PZirSxcOESAhdt9zAmHC8POj3+3UTq6pp2kiuUUCzcYQQd2bzJk6391I9MZMFvydK07Qd/mqTiJxnck5jTCnGNpKLSAxKZiqplVRbipJiSh3rAThHHm1/dPu1o19++eMf/MLP/Qut97KQqSERFhmJsSRzTiWCpBZBHZN3xbUXXvj0Jz5+9wadObrOTE++cPHJS/vTuiXwHX8aoSIoYVdIXNALoqkZMVGRQRayJkL3i9S66tnMUhXnc9DUy9zq0iiEoBKBiNizc2hKhE2K17d3kup46MbDkGfOO14vbbnE03/zh+5/0xuznXPVwfWmmbcxtW2czNrd/enm1s7O7mQ+r02ETIgUVUTVQAkBGY2IkPLgBv1ef4CzWT2ZVsQOAZPiWKkWrq9eq/evITE6/xJU8HDiTURENFntoOO9VZGUiBMSm4pKqykeMjAHdpxxIjAChfnO1qd+67kP/s+Dq2e9D+yC92zdeIYDU1SV9eVsWsW9ne3l0Xhvf+fRRz/Xh+mxpbELxblrmw+/sFnHCCLATECMACZMiqgEaMhoJqY3EEpIxIAZYlIjJAQWwJjEIKFGz7Q2Gq4sLRGhKjp2vgiEoEkQcD6fz+tmeZSVOWeevePlgu9Yqm96/Zef/Jp3uesvVNefq+bT1LYxpaqJ03k7nbWpbZnMOTIkEEHrYG7oiA75VVHUppNZlhf9fj8EH3wbo8vyrBetiTroF9Oc90HNqBuNW3D7LKgwEIA6Qiz+m9/w5ixzh4xBBqaaWm0bTRFM1UAWRFPOsSMOA56vl5a/9q8v3/UGZj/ZvCjzA1DpqPJcx3zEkAc3mUyLvHzsmWeeOXfxjiN9gazXKx998eq1vYl0KBwiIgQA56ksAxMgGSEy2oJ0GYEXXDngbqD3CACwbaq2rRipn4elfnF8dbnIPICFEEKRIaipStLr2/ubk2mRkXfknc+Dv2VYv/L21eVv++EhSrbzgkrjGEJwHdmTD8E55xwHz44hOAsOHSMTOQLP6DouE1ywq6phluWA2DaNpJQMYtKmTQAoKvPJBLp+ZNegoW5umLFjkCMCBDdrU17Xohqj+LZmRlNFS2iGhGIoRp3tQwIERA5LhX/lqEmnXzN98xu2r1499+gnLzzyZ9ee/vz8YCvkhfcZmCJhr8RLl57PmUeDHnsHBFUz359VmqQIzjtqIgB3Q8DmCBkxaTflAGwQU4fN7miADQAYkQBV0aRpmjkjlIFz5sI7x+Y9OefZEaEYGAGIyP68RlJmco6Y+Ugprz4FZ+66w9aO9zefUkeOc1DrJqyTQNGmXq8tp9V8Xk1mIdY+tk1sY4xRREy0o4uUJE3SJmpsm7ZtiV3dRBElQFVQAwTs9fq9/sCmMwUUpXQ49kwuEDKggqqZuRilqqMZOrFYI5IRKKE6MiQWJAAmRgPoJq61FTXtwzM8P7fK2Znl4X3veuvuV73z0tb8yY//3vmP/cb+5Rc45MzkEMHawofX3XtPSFuzeS0S18eDu246s7W7OZlNtyZJDBCNGQJ3Qwmoqmg2mccUtd/zREAI1nEKMIogGEZBJBp49IiOMc9c5qnDdQMiduYLoI1xMq9EhDJ0zt+2Yq9dn9yy3suP3Y47zzAKZwHAgy0o6tQsixKy5L3Pgsu8axuXYtMRabdtjDGZmqimpDHKvJZWrK5m6IKqKWASraMmJTVhny+tH2/lSoytiZICgDmf+VB4z947BDSNjr0nn7uQhyzrNskzOQaCpGaOHBE5Zue4Y0hWFQBsFVwyspbmu1k7PRHCkZXx7d/2beff/jVPfuS3v/QHv1ztXcesl2UuWT2d7i0HAICY7MTG2ng4mhxcl4zHCnszBYTgiakb5zMDm9VpViVGk8R5sMX5745/spikaWc5Q+nBADxjFjh0yCYCACUgQzCAadXMmto59I57mX/1+v7rbwLLSPO+WkQiZndIDIYd3X3HvcaEhBAcppZjDKltk0iMsW5ijCKqopqicEjzWqIJxBYRxCzGJKqN4LQBAOCiHwbL2FSswsl8CHleZkU+6GVF5iRGiZXrio5RjcyYGBGtYxdnD2rE7LjzAKEbf1eJkhIAiCUVZOuKxujSzlK1NSgGx77p244/9I6nP/Te85/+3djMelkxrap5DbGN7GqEkNoGNDJTL8d53TZmwSFTx65vTZum80QECNhEKdQ5h9Y1OzpOhjhnkyIwERBgxlR4l2WOHYIesigbiOjOwTymWJY8KHvUzu5aT71AE4Oa+iUaEAN1TAi0oL4mIgHnnRloCASqDlKi6F1SbdsWsCGKHftANHWZFCwuahPFTNpkdYJp5HmCWkFU26o1AJflHiDL8t5gmGe+V7gysCOT2MTG3GzeOqbYxraZqwKCZg4yj0yoBs5xcB1BUkf+jNAVxDg4H3xWctaR4aoYKiA205X60Xs2Tq5+97858dqvfvI3/+ve2UdzR4UfNPW8aZphgWDJESRDZlga+J1JlI7GwDS2Mpunru2DYJI0Jc2CISEYtK0cXy55zE+c33ZMnoERM8+ZZ0dIhGYL5joxS0n3pnNAdRQm0+pNx6brAw8IsW4O5jFHR6oGqApIC+Ya60b8FzzcxoTkXMdWSskQGQDJOUnqxIwNnAVNVavQqnGqLWJKicW8BEwmCVO0IgOzPM9H49GgzIZlKAp2oKDSNDAncbGN05l6hwSgqp7NCmcRiYgQzSMJCiEAdfhZIkRi8mA+QxfIZczuhmaCISG5cXWhn/aXHnzl+Nb/dvEjv/r07/08tynLi0k99bEq8uAI2YwMi4xGylWrdRNF0sG0TckcAR8yRqmImWfCZGapPTVeEeo9dWGbEXKHhuiYgu8sBwKSyYKffN40u5MpEooIp+lrTrOjju1XdO98klextaQOCEHpBtu2qqYkTRvbttbYqkTpGrSiSUSSmKqYqQKRAVgyZhcY0ZFkmjJLKyh5kWIbmzZmGZdNBkb9Xr7UD/2e7+UhOERJsW3A/Lxix5RQIbbmHDpC5gWlLSIQGqiJACQU0I6LgIjYkWPHISeXw6KeuiBTRzQjBs4CpBPV0/ngTP/r/2G5cfqxX/tRnsyDI5EmxdahMSKSIeCw59oodR3bNoqo71RGyIjIACSpiIDZvLGhA9K0tLyRB3IMmSdVcAw+dNwFZKioHXOPHkzm87opSm6ifPkttFSimjFg4SzVV2KsJTUAXSCMhqZqItqNlzZtjG3T1k2MXaVGYpQkUkUTBQNMAm3SnZklozzPW6FpFedNrBsFUY9mhJHQOU/EoJZn3CtDL/dMoGoxxrpOVSNVNEdo3i8UJrpxJSbqYg81aCLwgtjOvAMiIFNARHbsPBGaWgIBFTAFRCICUzATRBDdaM9lvuLXfRVSeOrn/xVtX1CC/ckBEbABKDBRkeG00v1JC2CMXX4CHcONASTRqoqGhGZLy9n+bL62Ab3cm1oWuI3KhN65RcPAFkoESXRvVkeRAmi5sFefwsJDUvAMeaB6tB7reRujmIB2KZCqLGZ625hiSim2VZOaJjZtV7tPVYRWFhGxGjbJ5o1WrV24uru9M5vOGzUj4iQQRdRIOXQ6Jd4ZIotZHUVF5vN2Nm+amGKS2CZXeAqOmMgMkwIgiYEpmoEoqIFnZAIDcIsZYSA0NDWNKg0iiSST1DWuiBiZiVgkEjUpK/ty9XY3Gz94P219xyO/+qOCtte2uadISEmZMc/cmSO8n9PF7QbAOsZWgq4DY4EhRiW2cYF5Edqm3dzZZCZk65dhMmsZzS9Gbg0NkECTNa3szxtmyzw/cMxOjjH3mDs0g4PyVH3mK2R+UNVtio2JdNIcolBFbaO1UVNMMcW6SbNGq0ajWEyaFH1ARjIEEWwEmxQvX928cmVzMo91VE1RYitiiMQhZL1h0R8URZl7zoMTsd26mUyrybSuW2miqCSU1nnPwXPHiOQJHAMiqkIdsY4WGINDJkwGYsAGRggApklTEqzBTFO0hfsjlQhxIYeF5KitU+iFEDey5sybvmbzuccuffZ3lvpZK5o58Mk8o3NYOjrS7yPCha26O8vd8fcEx5fD9twKj8EBEbnAsZkVnsXM54Fbwdi1pQwRgACN1FIdtY4SHKLZq47Zcq+b9beL9XD/a36smF2bTtr5fJJiAyaICEbJYB6hiZbEYuxUdGTa6KTCjjAViQuA4K07qXW0rb3q+vZkXsvk4GByMKnnczAh55l9yMuiP8zzEDq2VMYksndQ7Rw0dZvaal7N56mppa2cc+SYmmhiQIgdBkEMBCAqdlGAATqCjlwXiIAcEptaimISTVoEQHbE7pCyQ9TMoIG2qau67PUzDliM/PgoAGdsCBSjFIE63mgEJKZbj/WrqHuT2IXhorq+lJ3aGKxFbUWrNnmm3HmRelTQQTLvfeaTSlxofyADdLN+sapjTG0IfGyor9ggzyAKW3N68Y0/fJRcNaumVTObzFKKNzjDRSkZRbEmWZssRk2iMVlSUFVES6JVi21H7mjatHYwa5RCY3E2TzGpARkAiBmIR8dZmeWFQxGVybRukh7MU91KPT2oJnupbWNbiUTXJhCwNhkziYE1IB4IwTMMCuw4oT2DATgG55C9d6FAlxkYalJJGmtCIMsMAMkdkn4qmKolAdO8AImIWLcNgGfGnsdZkzpCqE4MRRTGvXDXqcETLx7MajGwcd+dWOsN+0XPcGfatKKeKA9U1RAYvHEIPvNt20bTZJIQPVonKpSmVSvS9HJ+zUkY5l3dxjb7rzhy52v00uOzupnOJlXVdNGvmJkubpAAtAmaBG3UlKxNtlDeQTDTaQtq5MgILXZtMHRZUbgstG2Fjk0ddrx//SEzMSgixAS1piZam7SZ7bXzfZAksTKJWTlwdWs5AQCqAhEqYJ0wcxgcBQ+BoasAIppjZOecz53PkagTxbHUpBQROkEyJdaFRo+JSQITIkixARU2TRq7nm4WbG2cX9yuDiXDDMic47VRcWojnr82H/XcsdVyZdjvFcW0bg0NDPMsZMFSIjXhDqNHC6I6AiDs9Ig0xnSwv8ekg5zvO9LRyUKjBPd+i21dnEznk4PJbFa3MUl3wA3U0EARxIAagUYgJjMBMGBcsHY5glZB1MyMUFWxV2ZN2wBwOywt1k3LYozO+7zo9we9Xt7VUpsESTglme/vNLMDU5FYO8ZysNrr95x3OCy56+4ToXNdVkqeMXPmufPISQSQ2PmcfdGxmZlqjG1sGpWICKJApJ5bZAYkBBVNaEDIhAqQSCqVaJbK3hFJW72c1ofZ1b2KiMlTR/TYK7ITq5Y5Cp7Xxv3RYCiGqWrVNM+LwaAkq6l2qi0zBIKGIIERKjMymqCqalXV+9O9LMNRAceGHTM9RC5h9fZ6Ntva3Jrs7rRtSgKqIKpqqGBgi4BIusgbANAIwRGAQQIkQ3+YMiOAEQz7WS9bmkznhVPv3WTeJkWjUPT6qyvDUS8H03mCViAqtG3TNA0xx6ZmH0LZ947LwK5fUL/oJB2cD96FnJ1XdIBAoGTqoJm4jS08cjSdLSkpZ6KmsY2xkViZRVUzIyIFZ42KU2AEMTMDYtcVM0zFDLLhKqNqbDkbWdxdHoQ6yWQeKQdQiJKAsqVBjwiZaTzqE1FdNU2MaDbs9/PgUkQi5wm8o8LTFA3BENSzMWMSU0mT6cxMCse3LEHhF/o/atjwUOL25GA6r1o1UEBT04VmXEerBPoyAUUw6Egb1JANOk4qiNgIGnIRKDii0g0H+dK4Px6PJ7NGgAQCsis8EEgU7LhYzUzF2OdRFX3ms9w78oR5WbgsBB+yLM9Cnvus9FnOnAGSAlAHREB6il93lTZYz91WfSZJMomxkRQb1ISAh9I82GXwUQxJD5UxyCRparp0c7B28iJihvtleWIyrcGq9aWijdrUcVg4ME0SM+eHZcZEC4nI2Kq2jnxZZKh1SjHLep6nReHzPDimSBCYPCN3bAqxPZhV7HCY05edkG7eHxBm4rzPExC5zJAXaguEqIdiIdZRJ6MaItiifXIoeIZgBOgImIEMF2O2ZI4pePS+KMpck0bFWauzeVRJomQI7MApiIHPcgT1eamxktQyczEcLK/2Xa9fDsdjn5c+FOwz9r4LJ7oaSB7cJTi5uUkQL19ePb2hl0fV2aRCpt6xaUZIimgGakqmqiKmycChInbN/VZVGKyP897yeiIKwXLcCyvHdrZf9Kjjvt/dmbFZYDBJaaGhQSkmBUI0NnNFkbkE2iKq94GQvHdEXZ8Ey9wTIaiYpLZumtgWGW8M7NQYuatnGOy6I6XnhsDnBc9zSC1ApwGlCxnBridwqFXWaRDd0PNTwI5vhBAcKgB6Mk+IqIiUewyMLTNGiwoSUBJ1DhwcIaFPZiGzXoZMEmNTN87R0qAoc3NFf1QOl10o0DlG6viAEIDYBcY93PhidbrZ+uLuFz6w9ra/f2Hlzl5zmalVZqSsEzjterhqJpJYIqXWLKkhd74bsOMy78vO0uoq+2JeV72iyViKYjSfba/0/eSAZ3Ua9B2BEqICdh0VMGUUj5TnXLKoqfecIgJBnocsywghCy4EJgSVpClN55WYZBk+cMRyD7Ig+oJq9b4RJJLakWWZTwQiQqaCpCLYXYauf4hIsPDI2PlnWSAGxKBTymHqqq7sHTICcSfzYUnNETAheyIEA0PFQIv8uWN+S5KJ9pisDOQpuiwvfVay912oZSZogIQebNuOPFzfNp1W6frzF//4v1M26H/zP5241XGamA9qsuCXZ7fgeFKVGImojY1IMrUOyyYpxRizuN87+pqbvvrv7f/+j2qSWG+NhqspHjjG0cAfzOOq5oVDRiQg7x2AkZomC95lrARRQHOfVwKdie8VhWNwgdiRmYlG0VTVDTP0MnrVcfNsSTGAKrrj972Z2gPHmjmTzDUIsUUzQVQxU1lAgRkPdbXMOjCkGRyqnwGhGaCjw64Bg2MKDg1IDL1TTsCIzECAzjkkM+jiSVrolOCiC4sIjpDMOWZEhI4M2TSBCiL64Fta/bzcO4kYLzx89aM/m3avzl542CKw8z5kySptEgGQc0wAzAYEYJ06mgMUqDWJGjBYN4OG0izJ5q1f+w8uQ5s+8ZPgsB+wLHpNM10d5dN5nLdSeCIEZiBQIESAWdTg8twDmDqGQX8gklQSaqXVFETyzCFYSm0Ureq6kbi2sXFy0A6zfUJwDAYYqfDDZUsNWco8iiczQnRNY6oKSEydyhEgQCBkIgWLotGMyByRdw4Q1ajTpUJEBezEgzsGzRh1QXSl6gnFkBGLHB1T5ogJu2k7Yu60P0Q7VprMWaq1mQCSaUQVZsc+q3H5Ubl3Enn6yZ+99KEfn26ey/vD8a0PldAucQXIJsmkMVPE3JgcOCMyIETXReQJTKk1VSI0FZMmtc0xenpI1fhdf+eZ/ednT3xwOt0p8qypJ0XuBz0/nbfDwjnQTv8KAUSSCBS9ELy0EcajpaK3cenyl4al62WQ6n2PmoXc0JKpGFRR8zw7fnz1Vf1LGRujEYAY7g7u5jCQuMdMwbMEVjEzE4eqqAqA7KzTObAsuI6Ql0UddzqilGWemTu6ESQ2AwWMCWJSFVVV71DUsqB1q50YCQIxgncEAN51upXMRLogKEZCaJK4VE8iN4vAizxlpao9IXdeaMu9D/zA9kd/VlUYZOWet6299q/dzJdLbaYSNbWSGjEgIwdMC3UQUmB0vlNDsTgXSWqQRDm1nFpnxapcSW5w9a3fMz/38Hy+v756NAuZQVpfys9fm7aiRdenR8CFGoHvFRhT9J5H4/Vr17Y2N6+c2BgGz6LiXPeEZkCtaWs67tOZfO9Mv+ou+iy5q3gE7/n2kbUCwITOOeecd6Zm5oEAklpKAkBO1TvuRjmTKCIwdzOvzgeHQIt6L5EaLhpQ1Il0oKiBWGbQKzAZIbEj6JrZjtE5zDrxvm5seKEnDojmpJ1F1yKgoYuGXqNLUJNwO2ue/zNvKYQwuvvtp7/13996rH/CnowxxrbSWJuoGpolgxaQcwrOcfABidVlybE0lFIrKkSMRAYqsW1dGOre0sl72/u+6uDTv6BS5Vk2mTWDMhsUfl6nfhk8ACKImAENByVAayrLqxsS5dnnny56Ps/dSyoPjoCcmDVNBNUBp1t7exnbXPyVpnw+3Nt7498/fWSF0h6AMaNznjmSFwfc1UFZlQigBXCcZxSC6ygVImFKRs5lIThHSUwNkTthdTJBj0ZAqqaKSYCSgqGVHAUAgNG6Fl0e2Dk+BKO8nAPUTMHVrUThZEgsIWgnSkhFQoTgfWLwy8dO/LX/dOLMqXvlz9pm2tYH0ta26L50Q94xJd8kBc/OZew8u9QVpow8akKwzhCpRDHoYbtE9fbGXUUI0la9YjidkqkeXS7PX5+2UTLuEggt86LMeVYnz8677NyL55PJ+vJQEJpkZp1OCRgiMvVybqfp3rV4rGgQ4ZOT09c23nb81V+9sbbUk22DhaSlC85F71RNDdSUycyc86DAhN6zp04PhL1CUlXtwAjWEYnRod4XIXTMWKJwODxKRMLJRIHQCExkEfwQ04IXDhdsfEzmCMjI7c+wLLATQ8EOsIVIhFbPdXrdOU/NAe+dPZCbr02hbPZUondk0pnORTMMpWHzwTsf+sikEh0iAzI7UzXtTDQsxD5A+npQnnoQRsttNVGpe0Wom3rUC/2MqqotfA4mRDTsF00zNdNeme/vbF7b3DyxPhz3szaJKrRRUozssZOQiiprpZwaKaEl9INXfu3oFV83dGkoW6ZmHaiG2TE753wScUpijpAYDZkJOw0K79AxdZwTTimpJV0IczGxgSmAdaJPXf0YyFQRwBGQZ+9uaDt3Pc4OCYdE5B0RLNDHhOgJUcUhgV90ng9n4QwIgVTIxDnn4mzvQ//BnXzosj91s1xQcAKkwIZiZqJKqMKj/f791l/yrvUYHTojrxRcSGaqmiRFTS2QMyQFXvfTS8NhlfW5mahIkfH+RBovGyvl9b26TYoeyWHSJklkQqd66ep2Vrp+6Qgt8wQGIOI9Z3lAAHLsMDuxggOfECC5wertr+6FKUgjql2Kfjjh5Lx3KUWvZEJqC9FFlS5p6GzMQlrZMzEjqxmQ8x4BUneqOzlYA1HoJgm70NV1Z9dMFQBNu+IdoCEwgSNc0LUe+gZJ4JiBXaeeh0xESMZeuIdpn0HZs3NZe+Wx+ksf3n/1u6p6xLKnEAySmZipc67u37I5fkMs1q8YFAYZwognA9ov6MC7ymkES+ra1CKQJw7EwTP3nW37ghCNANH6eZjXaTwqlgbltGrUsGkFkgBCkYXdvdm8TaPlslMA7ajTSbUsch88Oeey0JP5BosnIzTxvcQlg8TFYnSHDpjInMsyLymllIiRtIuVwBGKwkvoWSKnLYM4FCHXUmZgajekvjuIKIIpGPACYowvqZoTAJigLQobiJ7RMXDXVjEgAkZgBOe5ez05H0KWeZ9pGEQ/hsmXSBtiAiY0jc9/ZPbqb7qY33tGPskWMXhynkN/Prrrev7KZCRP/8HsqQ9O+0fc+u3Xeysu7/vBal6s5nkRnOS4H2DiQAYOfcjRu1EwCmUy6STjy8LXTazmTWAGwHreMoFT9YGE3M7+POuFPHCXpqNZEmXmMiuI2ecFO19ay4QEBmARfAteLB6K0C3wBM5RdwJVLaWF2ofpouJPpmpdo56ISVtgnffjtpd55cct9WorW/KmC81ARLshCIt/TpvdELDbra7F1YHAmcB1gAdAWqjQknPU6d1mWV6EvOdcaPwwsddrj1s7s6wkMM6y9vmPwrWzmyduciAnqkcPBie3+YSFUZOXMplXn/pv1ed/Rec7hMgh82U/umxOfi8b08a9fNObwrF7eXAaEPLU3CH7K2ZbbdAUiUARyEDZ+oU7mLUh6NIou/9Nf5WZHvnI/67mjcaKAxVl8K7rexIiE4JjIp9xVvg8NyAwYYIbwtWdemkHG1sIFSMBARMfKquLWgIC6ZrgAAbskIg74gYVI8Vykh3rxa1xczFLB7Vf2vXH5tCvMW+h6NJj7cpJN7gmF7zOC0F3PkRedIrq3V1BAEJEAkJwznmfFSHLQ973oXA+JNcHA5pcDpzIsyEoOJle2//A9w2+/J9cP/3a6fItQhCrhg42m6f+pHr4l9tzn0bH6PMOsmJmllqEWuc79aUn4ud+BcrV8tY391/5jXr0vqfq9aMynTTtvGozo9yxqiVDZHSB8zKEzE23LwJSCKTq2jo5Rs/onWcmJhJgdg6E0PmQl+zDvFZCdHSofygNxrllDNZV9w0W9RjqPIFjzovcQKnCGFNnpTpAoCEm0ZSSmQFSi7nlx6Irx/XFQXNl0FxpMd91x3bdes3DGnNDMkAxxA7CvMAtIPOCipiQVNRAmcB3IG9cSASyQ+ezkBWFz/oulC4r2GVMGSUob3tLdvlP5OAihjIJxMbPz368+oXPFze/xq3fyUh2/fG49QI0+6Qa8h4wqyp1kpvsrGNhREIXIEaZXD343P+cP/V7vTu+HL7s3eeP3ZblyfdXZltfYudFQZLGVnq9DAzqRp589FNk5r0nphBIDDqOZddRIwCrubmCGLeCaZ7EsMiIuwIYAEtFkyvSO4HQcQAAinVyUzcU153jPM8RELGWtACMG0AnEGCmhzIpEI3Fr0QeVGF1WF8om+vH6ic24OkDt7btjk94ZYb9RKFLbrtg3xF2kHfvHRPaodjyQjZ0ASKw2Dr+3r/z1b3hkssHHHL2ObksEPSosvVX2E1fSWmOu896pyHPfZ6bpub6s/XZT8ULn9GDK5Yax105LyNm9s4F73zGiHbIsK4iCMjsgL3ERq480Z77hC+WfZoVm5+mNEnAAASuKAe91eXerGqiATN57wBBxMoiX1sdT6cNcgDAJBaVFAh8IHLOuTwPRZENsFqyHQ/RgCooJhuvDoMV1rbj3beFzGOH2tJDtcaFTesAPAYmKbUpdcH/QraCFmy2iq51wypbq8OycAZI/bi11jy/0l7wWmO3oraYpQUEYsy8d8zesXMUgssyFzw7x4HZOWImEcVnP/GTy2tHKe8TdyUER2gEmpQv4JlLst488dvy6R/VyUVzuQHW81jXkbEjrUPPLmSBfWYdyRYzuwwNzJKZxhTbulVVNeiQcwCGmohdKPq9kMoiQ0biDMh1Dc66SW2SJNoFD2qYewreJyPvcwJBQHMeOLgs886T8wqcjHrU3ipPDWVbjM/2Hmxe/b3rffRStZIWxc6u4AmddB52mlyqJiopSdu2VVU3TSMLnc2XdK07j/qSNwcLVpdxsze/RKnyzZ5PB2C2B6NNPLKNa63vgy+dz8syy7I8z7xz7D13PAOAHQ2GmtlkMuf3/B/fmPdH5AKR62rKCGJqZHFZr/RherDxpnjiy3G2pbvPMZrLvGMXvKMOEI5Ejpl5gYxjYueJiMnYeVlAqa3jQHMLBCeDmaUWCIEgiTZtm5paJCFYN44iIp2pzAOVuTMwJgVtTFsi9FnmPCOoIamBArngfXBemlrcJDs2v+9vl+PlXCYGnURRdwW6+UPtdAfBoBMmJiIASCm1bYpJEOHQT97IXdF14PdDeUsjH92g9aNE2ZSXp9BXSUXcGaer/ep8mF1Js72Deaqatm1TFLOuXgFdtgxdH4kIY0z8j979jXlRdKm1aTKNIC1aMlADHNB0BbZn/Vva0+8gcHr9MUxzH3wInUIQB+86nHgnPEgdzyiR887AJEa11HWVDishC4UCYhLR2LQpWYdMSVHaJjnHeRkQUVSQIfOOOylWAwATQ2DXzXFYB5JEdM4jaL/dGcRNdXl169f6Y/eN0qZq6hhXtJNHMOh2wFS107ZfMJV37HgmIp0K2iIvJezAFocy3PAyYm0gJPCZuL65zFy57U9eaYd1q6Xs9XUfmglWOzLZmu7tHkwm1XzW1G1MqZPaW/QbEWJM/L1/9xuKLEME6FY/tWiC1P0MI4eS0zptRTecH30TrtxNB+dgdtl3MxtMPriQe+cWvBqdGjAzm4lIMlNNqVM97gzuIv7t7g6CSTeKKSlKaiUmNYDesLzjtV978vZXbhy/pa32p/u781kbo8YmSRIVlSQxtqmVGLVNICLLcv2UnvcozcaD9S1fN8YD06ii1u2TdafebHEFFkBiVZBuxbvyD5KqqiQ1o8XeLFSj7Ia49KG2CBEQEhAbZ+pKyPpSru/5Ixeb0X6NJcyX6SCXyWQ6T9Ntm16v9rZnk2lTVXXTpJhEDMDalBwvaHFtUYUAVSNQ60pPiKzkAuIr+NlVWr10+2v3j7zCPfN+eepXpdpaxOOekJ1bzPCzGYIlE0XoCifdcNkCeYCLBGbxQJQ5lU6C0bp8vo462Z1fe/az/eWTBogam1b359HMFmTiiyPLYCSA5MKR1f7acK+EKoUlu+Ur+xlgTLFj1ejKBIu1v6FhC6aWJBnIIkFg15Uo+v0eITR13S0GEgKaAXTDBwAgYLTAQd44yqzIpFAWmOdZMxju7Z96ameHp5dyuZawYWmhqtJ0v9m/LjtF1RtPeku+v1QOl4Cce5lmL6oxGtmNP2CdImGnnXTUXV+XzWuj9fMPvbuZXZEnfhlDudg2TeQhzwOTj22MTUREAuvCMkMANUDDhahb14PriI/QOeomA7uVMOSqlReeedbkKVETYAP0ntQUDtnFERFBCKyta4/+hE9LNAEAzZfypSPOZpUkSbET6F2U3i2htEp5F6QnMJEkooiExBYlUuN8cM6VZemIRFJS6QZLO7ocJDADAgRedOrtJbFRIzI1ILA8Dxv58tLS8GB/bWd3v5rswXxX64nZDFMTDw5gMjO/3St7k96gwoFb5JbMxB4NUOOh/PEicrmh5gPmENMxu7iNRw6W7xf9ZSeGEI0A2XE3nxgbTeIdArnFsXPYQZy64M8QwAwRtQPmW3dOFwnMAhoPaJkT0dgmbROjkXNd/QXQIOliaEyNHY4KO50fZJgiZs3oNgfQaahJbNWUiBb9XBNup8iNuj6QY0ZVVDGRCNJVFcWqOsuyLIQsz9RciiklUZHO4Ryafuwu6+EVuNFDBl6gWUzNQuCVlUG/n8/no+lsfTav6vm8nU9jNYV26lPVzA5YYouNcz4nn5HLmD0YqDLEGjSB2UJ8c7HX3TEmRFqx69ePPGj9YzC/yuNTGPc6NK5YVO2URLuZRTLrutxmgKpksACwdGClDm4j0IH9UAE0qRHwIvBAl/vgKcbWORYR7CCymgAUDFSVCVazVHIEAKE8Ld1aMlazNrVNSq2JGBNxp6zGxrlrDxBIsiEDGGMSALGupyUiAFiLaIplWTAzeiQiEZIkScUWGve2WH7rJL0OvQMtinhmltQ615IF9q7MMz8e9VNKdd3MZtV8Xlez2UF1gO0MtHYu74WsjxyIyExJMKkYdKLfC1BJ986dtI8ojtOFpeVX7b/hX7vJc+GOr5Yvvrd98n+CzwGxmyYDA7FEQuQwkFvsZPeGAt3Ejyl2ZTAmNMPMMxAnETCUztwroAmpBiKLkTo/odaJmIEZE+QejwyVEUQNWV0xRjOJTWxrTclMwBiAkAEABZ1xWdSbwM44JwJHqF0Ns2NdAgCAlGJdWchyZtcJEnQ97iRy49S//A/BAk8Hh4WgrvIjnbo5URZ8jkCuMO23TZzXTTWv59XyfN7s7R049qXzObAHIlQ1QHIC9v/v6up65cqO6qqqfT76dvf9tK/tsT0fnsxMRoQAIUGJeEAglBdA8MADvCGB+AE8gcQ7v4A3fgTPeURBSpRARDLMZDLDZMaejD/G9vX96j59zq4qHmqf09exZFm+avXt3nufXVVrrVplcAWI3dx6yplyR/2lcWNAGlZvLHc+f/MboN9taX3ym3+rv/pPe/Ex13MHw7NH9gcnEuEEZp/kfomICb1aTEgJayiQMLez2cbM1M005lGbQaPvkQlOrk4EriRuAmGeVbRbXwTAwJ6zSwMf+nXue3eLJqchKzmYCRBrdvu6qbtnud7nNGPmJKaGCqLuZjZ2WOZh02kqU8GZOGZzmeo2WZncB6gc0mlfYmagO5tqzIlOSVJKBMzaerGYZbVhyJvN5vnzZWJJlBJJBRSCUyzBKleHZx467i+wfsHdiXdnXs3t+m9gcWshw1flo6yw/hw7bz/99j/7e//mZ59qHlC10uySzCCt9pd2+QibU0BZKopeVzAAzWRK5kZORKwgU23qxhLU3HRwMzeSMC8ycmZUNt66xsxC1FRec7kfWTer85P6VgPL8AHuTLUDZdWqOkkSESDlxurVI5/dEJ5BiAgKN42K1wEDWM1s6E01MLUYp6bMqmoeal6Ml3/pWdmmqmWTgsOnKklKSSLNdReWqkLb1Mv5rG3q5AiRDJNTGBpQNJblFTanWJ+qDnz52C+/1Gtf1YOv+OxIpHESBhjZpLpln+D2W89v/muzetBi7dWCq5YJ7EOnuLjs8vOP7eEP7eGP/fIRAKrqVBETG5MjlQDn5ESqWihCYheA2YjcKPJ3IgkVc1gYMVzIuERBCKw9+WBDf1QJK1NYCMfoXeYqVU2qKmKGm/Nuhlerp9YeghonMopawaYOWcBC9uNGI1jEIaIyNSUdaR5sxw5enQsf9lNEKUlMd48gwQXaKPdVk+sUuQ40M6B52HQXw/kzPfuCzx9ic26XJymf88Fr9ZvftfkN44rABqN4vog5tXB9xT49lBl2pWEwXTLO3TNZVqFVs7i49s3zN/9gdXGiv/qhfvI9/fJ/fbhgSZJqkLi5qjM8JRkcZV6xsLBEawqc3Q2m5Yt6qNbAcEH27ePv9fmnX+Z2v2mH3MECpkdKlTRt1bTMKWwzTEVBZpZWT4f6yLlFVNlmoV8LOlHVjZw53BvMU1UAZhIoxetjXm1UDNNORN1QV6mASSVvLqUojaOviYlFEsHYBh02J2dnJ8+erJ8/rJ99kDbPal0lptXsdj76zsEbX6/3dlFETGW2D3EKIxNzJvIdDIQMltK4YRp80AJnSz25hupy9+h8/7sXb323e/p/ev/7/vl/6OlnZD1LLRwwHpfz4zFSTkyzEhPgzqYYq0WmkCDANVvnkuAMOCCrx/nZL225J925ukUZKEmquhJJxCIikVsrxLklquvLL4b2lqFCeRMLmTeCa3GYjiS6ZXUhCDOnJERQhUcvFhCkf1jOkxBLijTSAoEMrrMcf0yPARHS+vK8O39+8vTZxZef8/nn8+6h+HqQ2Ul71w/uLW+8dnzr9mIxJwK5eqnKC4ZLxG7xszBTGQcgEoHZYxiZqcPZdR/PDvl8085Ob988ufk363f/In/+A7v/fZx+kvqTqm3cKLrX3Y0M5pkIKaWQF6QkUdkKI5EJVDzPklap6JYdaPR8+cm/6+/9nchj096JGMzMAUMzs4M9rhZAKSXTqnueLA31cUmKo0s2oNtYWdpeME5xXZgIU4oJC2OCOr5qGgUWkn2Ku2yCYRkjDl5KufTxBx9Sd8JnD9JwujFa03xd36X5tf3rd1+5e+fGjeO6ac1hZgQiy24Yze2nwFO47PjIHFQbxK10640tY4mJWwwNHu37cNHI2VvfWr35h8PZ4/Sjf0mbh4Ox9ZFlFt59+tSBGyXFHq1u8YuW+mA2zMnAA1KGJGhFeffJD16s/7qtd7IqebltIw02d7ii+CLAKW3aYwzrvbMPJT1b8WJTH6V6Rhyv9PH2KK0OjrGecYJGdxRzlTKRqXnMevfQ8KL0eVD8TMJGxMu3Ib+SMaUHn3+xo2d9lor2cjVPs/3l/uGdO7fu3r2zXO6RyAgAMpM7xAGncFBVQHxsSZ3eMdqF4e5U2G4vkVPVomRnIsxxttQXXXvn/v5d3tm1ywcleUCMsgy2lVkI5AR6zR/O0qbGJkFLQQ1sPD3SxZkc6eJOXbdHFx8OzcHGaCZV2AAW8w4el8BMNVxYC9bTtTfS5vnRyc/mlr5s3lgv30izRVgpSYxun46/e0yGAsgdOYTIRFWVlFVNAZBjHK3MKNq06Hwm9zIjckpYKbQqz8769Wy3mVXVTnu4uzi+fvjKrWsHh4epmhmILNJdA42cEtzNQVq6e3jkQWlKA8I4D0VjS6Klc1XJMki8QMF1qiuTOV+eefdiMJgqx0qRUEIpOZkBT8h7dl77oJBMVSBHG5PP2q9dvPandviOLI+9bZ/n0x3Z7KOjzogZIDMip6mPASUwGLu6ZwKsarqd24vTD2f9ixv9Tx8O3Xr/nXpnKSLm7rBYM9qu2liZwlVRGgVFgg4reFAUrqMlrsEJxVp3aoiiou5A2t9fXjvc299bXLu2f/3oYLFcSEpEYoFiOVyNYKPcK1pGPObcOpUxlNtft8W649dycNamgKu7uhViSlJK1U6PHZz/nIdTcDIz4gTmuDqcRpEHaBeXlWcASglwJ954/fjat1ff+Mf5Yn+OswVf1niB1EN7z/3GoYas7MyJU/nO7nAlKLmaZYISOxvleu/k4HeWT3/sfbe3vl8PF6uDt215k6va3NwAFsDcgtEvDTUFCHIi85jjjpH3wVaoQiBwEP4jX/9r+on0zluvvnrn5t7ecmdnFuvuxMQSpu6+vUARQTX8OgJSJzI3MzJcgSkZY5oFcmIjlogQGjBWoU2ZE1Kz6Ws6/8x1E/MwuUqpaolTvE0EQdfhqPtsjP4O+Artk6PvnH3zn45n/ZG+hwJNu+Vs2iOsHgcHJNVNqiqCe+6NQG7kufBOMA5nduZuftP6d3dOPkh5Lf2L+fP3V1LZ4oYk1jHMBX4LY4Rxj3mkY8aEIvaPaVWe1dy3ZfFIhYwG5Fe2AYT01ldePzrYBQtGeZwTE0ncL+W8mxOHjyQAGLlAJnI1lpUibwiwNiQA4V8QvoeczN1d4xMBSbhykt4YULAEncmpAVdOzCkRMdxZpOJ23q0ICJ3CGe99sfit1W//w6ypDvRTVTUyB8PULZvqkIe+z1mNJYlURDRyMiPEEsc/kEZ2OFlqN/v3THNz8tHQE/pu8eS/Trt37fDV1LQFoB2NhKKVCSBYRKpIOliYJJqSiSbeszwGxYIEPt1NEYIcSVLjVBEJiYCFSLwwcZhcdJyiSmTAyjIQFaq6vKdPE7iNMI0BKrl1ZE4lT/LtxrgJelrcQTWn3BMnSQ1LzcIhG3M1Yq58zRaWLdRT82T2Tve1v6fFjev2C+iQNYQnFMVaVt30OSx+QDAdAA+tGwGW1UqNUgQCpWQWYd7Ra19dQWbPfn7e60WWdnj/dDPI9XvLxZyFR8ZopJamf10dPN28haLxQsdZ9AC6j+Kw0pEcDWHqnlgSVy1JKtcOEYG3t+84PWE8RBxzAhBybHhJ2Up8LmD5tBkOLbDICGrDzdXAydkZPqNNt3NT2n3VU0dFkihFHKYgzYXRrF9Ewpupely/vn7nr/zw7ev2oPXzPpuGiTPg7tksZ40/gOXBmFA1M05NVdVEUKbcm7mOKkKHRcpGYObZsr/27rlW6fmHmzVeXPSL9fvPc6s3bi3nc0kR8MIxLHiN0T+j5J9l+bk85h4VtE7m97FspREz/Gc9QSquGnBCYf2vgBoA2Mmd3M0CAHAaBZAR32PNgUBPx3NBKJBCJNBjUTOmEuau5NaZnG6IqjbNDnVzocYekbKwTE5E5DbrviTASV5UN1b3/txufOvAH+7jadaQnVtg5u5QDQ44mh3hBJjBM9BQ0YY2cM9w06HMWou9DoKHpVksHW+undr88em5nvQ6t5+e5MFv3V0s5lWVmJknjmrkEkGjsnwqxUbVqAiYPJPnrIFchCcB4lQ7EjGDBZwCpNyuPY9adSoNfqEqw5YJ8jKxzAFRGAVcU/hSuqJYLZLiK4kqAeDH66ZTnunGtCuHpjR7O7OguFGY6FohG955euuPh1f/uMXlAb60kW0fi2+Uh8y9eJBFSKRwBs5wYxIkSWjglgHX7EVnWzACJiaWdu9woPapzqvLnzw86apuveg/eqR8fPvOcjFrmrq4OEZ7HpWrZyvuv/KVaZxHm2Au4QkHcydYnGo3TyApS//yG4xhmralbnHeLfhTMeEtFXXRbGxThqmQJbhPsbq8lImf9bOTIdVCePiTzeljB5gjYzZQil10zZw7M6xl8WT368O9P6NUH+JX7CEq8LLJ8VDDYArLYYRcXNjJS2eOqVBFLFxxIgKRUm95cNcRPeDSnJ54d3cx3Lr7xWoz7967/7Tb6S92+k8eUrJbx3vubduEruCKcKgAOyGsGuc/TsnPaGgKyhR84JY9SOMq80v66glYHUfyFYD1pe0l324IAbDSaYyXN/KlKy0+Tfb6ZGgqUn7y38Mn3zMb514CmlW1Y6mIhU156C5k76y60d/7SyxuHtHTFhtThk+pnge246ZuA3xg8pCxh9yEWcZJNCAS4uIhHImf5X6cnIypVkpJdncX3St3H67Xx5uf/+TBcNydHvnHDLPj4z33WduwRMPdtHFj89F4KgGSwkhTtIAQG2fN5qpGY3tRmo7ly8vvV9aZXl7B8W6PW/ClCBwVgfsV1rq8amSv468iUV7j0+/1X/zIh45S65ZVzbUnIppdw/HXqD106NCdPls98Z1ju/mNPb5c0qUag8NInAAyN7es7pZ7t8wwYgIFRsLCFUma5G+jG3iSikbMzTziwch0RVht6urgYG9z+9Wnw/r4/MH/3F+/qyeOT3tPqnaw5zs7M66m5Z+qZRrFvyEIwxUTPBIOO0gl4gjLAFIEyO31PJW7dmXZfYK0CuBk43+n8nhbKWMMDL/2h2iCqBgk2vVfvm86cNXGZ8591x6/LXd+f5P2q/lhnTirZXPkjcvOQd0f8FkUEgR2EuIpzGfoAFNCQaYcIiwsiVPFIiCRciVhO+RUkqTaXeFumkvFMyYLTNjZafYP9i+7e+26XZz88r37J0+7dNj9StVy1kOz5XJHai6Hn3D1IG+fzUKrlwUkIJ4cJTOLvmqSl+6IUQpT9rQkMBNXN23DWCOMldqVRNO3V1Z5T7uyCQDY3byayf4b9ORnAEcyy9W8/sqf7N14vetzg8sZXWanbDJ4RcgL3oSnUGHCw1CBhd1dHG7OxiURZGIJmaqkxCQeYk+6EpvCl1GELZkpuXtMgjEdYyuLyO7ufL3pV6vNph8+GPJnj87WWdzDliub+8HunBqSEbIsO0wxUg9XUqPxPokz4qUjh5nS1SIZo/WnY0ocecp7Ss/JdMlMezCm+eY2chm+fahL0PErhJ27G4hl71WcfAiP8X/mVDlXc7rcq4esg5pVQMXDLPSwDvOQgJOPQ8XIiVmI3DBRFQHOEo2MxURLAeG4OmKcY9HEktwNGvWjltjN5EBdVwd7y9WqW626/t7tD35x/9GT5wGLDoPmnGG+v79sGkgSKgVpCcolbZxQ6ELe00QeCHFsANPoe7sVAY2nukjaShI0mrr4OIvAfRLdTz+6cuSv1AGYWAsH2N3JneY3uN71/oJIrBDra8eRB9HoWxojGIWy7gGQbHVSDBNOgeygyE5LkAr/2Ql/LITXlZt6ArdSAQ8QqS25MRggms/ba4d7l5fr1bp747WbH3384Nnz06pKiUmzmsOAw/1lM47A3iZ/2wQcAd+XlYvSlqKZm1KVBFPpWhrLzKOkKTADmU85kgfHUBY8AkIAP1dXv2zmFDp8ux/FlccIyvUC8yMbzkHCgJvq5kKdUwC7hfopNN82SWMiY7C5MWOCZSLKEpgn/P5lmny6YqPPl16+GcL7XseyPeaiciRG+3vzbnOwXnd93+vrr9x/8Oj8/PJ0PiNidaiaOw4OFrOmTlSNPMwVGsFL6Wvbe7t8l1RxenZyOhbzZOZmGoLBAExGQzvykWEjGi+iqePhSgqxxSCArRyrxL6yaSAG0qrLljewRe6UQIBZzvL80YvD13ewGvLaNI/4+xY9HL+AwdRNI4QGzxLo1jad8CubR9vrYboSCHBXVTMdTNU1mw7Tp3cAkNhOIp617f7+8vx8tVhsbr1y/fx8lc3OLtbdoF3X94Ot1/1iMdvZmdV1CjYGV847thRzoWxjQS8uV/8P8thLXLlrPKEAAAAASUVORK5CYII=;strokeWidth=5;strokeColor=#FFFF66;" vertex="1" parent="1IxWko4nvDgq_WzQ8Z8o-23">
          <mxGeometry x="0.8273542600896862" width="59.99999999999999" height="59.99999999999999" as="geometry" />
        </mxCell>
        <mxCell id="1IxWko4nvDgq_WzQ8Z8o-52" value="" style="group" vertex="1" connectable="0" parent="1">
          <mxGeometry x="340" y="490" width="120" height="70" as="geometry" />
        </mxCell>
        <mxCell id="1IxWko4nvDgq_WzQ8Z8o-38" value="" style="group;fontFamily=Lucida Console;" vertex="1" connectable="0" parent="1IxWko4nvDgq_WzQ8Z8o-52">
          <mxGeometry width="105" height="54.44444444444444" as="geometry" />
        </mxCell>
        <mxCell id="1IxWko4nvDgq_WzQ8Z8o-36" value="" style="rounded=0;whiteSpace=wrap;html=1;verticalAlign=bottom;dashed=1;fillColor=#CCCCCC;" vertex="1" parent="1IxWko4nvDgq_WzQ8Z8o-38">
          <mxGeometry width="105" height="54.44444444444444" as="geometry" />
        </mxCell>
        <mxCell id="1IxWko4nvDgq_WzQ8Z8o-37" value="&lt;b&gt;&lt;i&gt;&lt;font face=&quot;Verdana&quot;&gt;meepo&lt;/font&gt;&lt;/i&gt;&lt;/b&gt;" style="rounded=0;whiteSpace=wrap;html=1;fillColor=#FFFF66;strokeColor=#d6b656;fontColor=#333333;fontSize=12;strokeWidth=1;" vertex="1" parent="1IxWko4nvDgq_WzQ8Z8o-38">
          <mxGeometry width="105" height="20.940170940170937" as="geometry" />
        </mxCell>
        <mxCell id="1IxWko4nvDgq_WzQ8Z8o-39" value="MANAGER" style="text;html=1;align=center;verticalAlign=middle;resizable=0;points=[];autosize=1;strokeColor=none;fillColor=none;fontSize=16;fontStyle=1" vertex="1" parent="1IxWko4nvDgq_WzQ8Z8o-38">
          <mxGeometry x="17.5" y="27.22222222222222" width="100" height="30" as="geometry" />
        </mxCell>
        <mxCell id="1IxWko4nvDgq_WzQ8Z8o-40" value="" style="group;fontFamily=Lucida Console;" vertex="1" connectable="0" parent="1IxWko4nvDgq_WzQ8Z8o-52">
          <mxGeometry x="7.5" y="7.777777777777778" width="105" height="54.44444444444444" as="geometry" />
        </mxCell>
        <mxCell id="1IxWko4nvDgq_WzQ8Z8o-41" value="" style="rounded=0;whiteSpace=wrap;html=1;verticalAlign=bottom;dashed=1;fillColor=#CCCCCC;" vertex="1" parent="1IxWko4nvDgq_WzQ8Z8o-40">
          <mxGeometry width="105" height="54.44444444444444" as="geometry" />
        </mxCell>
        <mxCell id="1IxWko4nvDgq_WzQ8Z8o-42" value="&lt;b&gt;&lt;i&gt;&lt;font face=&quot;Verdana&quot;&gt;meepo&lt;/font&gt;&lt;/i&gt;&lt;/b&gt;" style="rounded=0;whiteSpace=wrap;html=1;fillColor=#FFFF66;strokeColor=#d6b656;fontColor=#333333;fontSize=12;strokeWidth=1;" vertex="1" parent="1IxWko4nvDgq_WzQ8Z8o-40">
          <mxGeometry width="105" height="20.940170940170937" as="geometry" />
        </mxCell>
        <mxCell id="1IxWko4nvDgq_WzQ8Z8o-43" value="MANAGER" style="text;html=1;align=center;verticalAlign=middle;resizable=0;points=[];autosize=1;strokeColor=none;fillColor=none;fontSize=16;fontStyle=1" vertex="1" parent="1IxWko4nvDgq_WzQ8Z8o-40">
          <mxGeometry x="17.5" y="27.22222222222222" width="100" height="30" as="geometry" />
        </mxCell>
        <mxCell id="1IxWko4nvDgq_WzQ8Z8o-44" value="" style="group;fontFamily=Lucida Console;" vertex="1" connectable="0" parent="1IxWko4nvDgq_WzQ8Z8o-52">
          <mxGeometry x="15" y="15.555555555555555" width="105" height="54.44444444444444" as="geometry" />
        </mxCell>
        <mxCell id="1IxWko4nvDgq_WzQ8Z8o-45" value="" style="rounded=0;whiteSpace=wrap;html=1;verticalAlign=bottom;dashed=1;fillColor=#CCCCCC;" vertex="1" parent="1IxWko4nvDgq_WzQ8Z8o-44">
          <mxGeometry width="105" height="54.44444444444444" as="geometry" />
        </mxCell>
        <mxCell id="1IxWko4nvDgq_WzQ8Z8o-46" value="&lt;b&gt;&lt;i&gt;&lt;font face=&quot;Verdana&quot;&gt;meepo&lt;/font&gt;&lt;/i&gt;&lt;/b&gt;" style="rounded=0;whiteSpace=wrap;html=1;fillColor=#FFFF66;strokeColor=#d6b656;fontColor=#333333;fontSize=12;strokeWidth=1;" vertex="1" parent="1IxWko4nvDgq_WzQ8Z8o-44">
          <mxGeometry width="105" height="20.940170940170937" as="geometry" />
        </mxCell>
        <mxCell id="1IxWko4nvDgq_WzQ8Z8o-47" value="MANAGER" style="text;html=1;align=center;verticalAlign=middle;resizable=0;points=[];autosize=1;strokeColor=none;fillColor=none;fontSize=16;fontStyle=1" vertex="1" parent="1IxWko4nvDgq_WzQ8Z8o-44">
          <mxGeometry x="2.5" y="24.44222222222222" width="100" height="30" as="geometry" />
        </mxCell>
        <mxCell id="1IxWko4nvDgq_WzQ8Z8o-82" value="" style="group" vertex="1" connectable="0" parent="1">
          <mxGeometry x="600" y="680" width="120" height="70" as="geometry" />
        </mxCell>
        <mxCell id="1IxWko4nvDgq_WzQ8Z8o-66" value="" style="group;fontFamily=Lucida Console;" vertex="1" connectable="0" parent="1IxWko4nvDgq_WzQ8Z8o-82">
          <mxGeometry width="105" height="56" as="geometry" />
        </mxCell>
        <mxCell id="1IxWko4nvDgq_WzQ8Z8o-67" value="" style="rounded=0;whiteSpace=wrap;html=1;verticalAlign=bottom;dashed=1;fillColor=#CCCCCC;" vertex="1" parent="1IxWko4nvDgq_WzQ8Z8o-66">
          <mxGeometry width="105" height="56" as="geometry" />
        </mxCell>
        <mxCell id="1IxWko4nvDgq_WzQ8Z8o-68" value="&lt;b&gt;&lt;i&gt;&lt;font face=&quot;Verdana&quot;&gt;meepo&lt;/font&gt;&lt;/i&gt;&lt;/b&gt;" style="rounded=0;whiteSpace=wrap;html=1;fillColor=#FFFF66;strokeColor=#d6b656;fontColor=#333333;fontSize=12;strokeWidth=1;" vertex="1" parent="1IxWko4nvDgq_WzQ8Z8o-66">
          <mxGeometry width="105" height="21.538461538461537" as="geometry" />
        </mxCell>
        <mxCell id="1IxWko4nvDgq_WzQ8Z8o-69" value="DATA" style="text;html=1;align=center;verticalAlign=middle;resizable=0;points=[];autosize=1;strokeColor=none;fillColor=none;fontSize=16;fontStyle=1" vertex="1" parent="1IxWko4nvDgq_WzQ8Z8o-66">
          <mxGeometry x="30" y="27.99657142857143" width="60" height="30" as="geometry" />
        </mxCell>
        <mxCell id="1IxWko4nvDgq_WzQ8Z8o-70" value="" style="group;fontFamily=Lucida Console;" vertex="1" connectable="0" parent="1IxWko4nvDgq_WzQ8Z8o-82">
          <mxGeometry x="7.5" y="7" width="105" height="56" as="geometry" />
        </mxCell>
        <mxCell id="1IxWko4nvDgq_WzQ8Z8o-71" value="" style="rounded=0;whiteSpace=wrap;html=1;verticalAlign=bottom;dashed=1;fillColor=#CCCCCC;" vertex="1" parent="1IxWko4nvDgq_WzQ8Z8o-70">
          <mxGeometry width="105" height="56" as="geometry" />
        </mxCell>
        <mxCell id="1IxWko4nvDgq_WzQ8Z8o-72" value="&lt;b&gt;&lt;i&gt;&lt;font face=&quot;Verdana&quot;&gt;meepo&lt;/font&gt;&lt;/i&gt;&lt;/b&gt;" style="rounded=0;whiteSpace=wrap;html=1;fillColor=#FFFF66;strokeColor=#d6b656;fontColor=#333333;fontSize=12;strokeWidth=1;" vertex="1" parent="1IxWko4nvDgq_WzQ8Z8o-70">
          <mxGeometry width="105" height="21.538461538461537" as="geometry" />
        </mxCell>
        <mxCell id="1IxWko4nvDgq_WzQ8Z8o-73" value="DATA" style="text;html=1;align=center;verticalAlign=middle;resizable=0;points=[];autosize=1;strokeColor=none;fillColor=none;fontSize=16;fontStyle=1" vertex="1" parent="1IxWko4nvDgq_WzQ8Z8o-70">
          <mxGeometry x="30" y="27.99657142857143" width="60" height="30" as="geometry" />
        </mxCell>
        <mxCell id="1IxWko4nvDgq_WzQ8Z8o-74" value="" style="group;fontFamily=Lucida Console;" vertex="1" connectable="0" parent="1IxWko4nvDgq_WzQ8Z8o-82">
          <mxGeometry x="15" y="14" width="105" height="56" as="geometry" />
        </mxCell>
        <mxCell id="1IxWko4nvDgq_WzQ8Z8o-75" value="" style="rounded=0;whiteSpace=wrap;html=1;verticalAlign=bottom;dashed=1;fillColor=#CCCCCC;" vertex="1" parent="1IxWko4nvDgq_WzQ8Z8o-74">
          <mxGeometry width="105" height="56" as="geometry" />
        </mxCell>
        <mxCell id="1IxWko4nvDgq_WzQ8Z8o-76" value="&lt;b&gt;&lt;i&gt;&lt;font face=&quot;Verdana&quot;&gt;meepo&lt;/font&gt;&lt;/i&gt;&lt;/b&gt;" style="rounded=0;whiteSpace=wrap;html=1;fillColor=#FFFF66;strokeColor=#d6b656;fontColor=#333333;fontSize=12;strokeWidth=1;" vertex="1" parent="1IxWko4nvDgq_WzQ8Z8o-74">
          <mxGeometry width="105" height="21.538461538461537" as="geometry" />
        </mxCell>
        <mxCell id="1IxWko4nvDgq_WzQ8Z8o-77" value="DATA" style="text;html=1;align=center;verticalAlign=middle;resizable=0;points=[];autosize=1;strokeColor=none;fillColor=none;fontSize=16;fontStyle=1" vertex="1" parent="1IxWko4nvDgq_WzQ8Z8o-74">
          <mxGeometry x="22.5" y="21.536571428571428" width="60" height="30" as="geometry" />
        </mxCell>
        <mxCell id="1IxWko4nvDgq_WzQ8Z8o-95" value="" style="group" vertex="1" connectable="0" parent="1">
          <mxGeometry x="230" y="770" width="120" height="70" as="geometry" />
        </mxCell>
        <mxCell id="1IxWko4nvDgq_WzQ8Z8o-78" value="" style="group;fontFamily=Lucida Console;" vertex="1" connectable="0" parent="1IxWko4nvDgq_WzQ8Z8o-95">
          <mxGeometry width="105" height="56" as="geometry" />
        </mxCell>
        <mxCell id="1IxWko4nvDgq_WzQ8Z8o-79" value="" style="rounded=0;whiteSpace=wrap;html=1;verticalAlign=bottom;dashed=1;fillColor=#CCCCCC;" vertex="1" parent="1IxWko4nvDgq_WzQ8Z8o-78">
          <mxGeometry width="105" height="56" as="geometry" />
        </mxCell>
        <mxCell id="1IxWko4nvDgq_WzQ8Z8o-80" value="&lt;b&gt;&lt;i&gt;&lt;font face=&quot;Verdana&quot;&gt;meepo&lt;/font&gt;&lt;/i&gt;&lt;/b&gt;" style="rounded=0;whiteSpace=wrap;html=1;fillColor=#FFFF66;strokeColor=#d6b656;fontColor=#333333;fontSize=12;strokeWidth=1;" vertex="1" parent="1IxWko4nvDgq_WzQ8Z8o-78">
          <mxGeometry width="105" height="21.538461538461537" as="geometry" />
        </mxCell>
        <mxCell id="1IxWko4nvDgq_WzQ8Z8o-81" value="ACCESSOR" style="text;html=1;align=center;verticalAlign=middle;resizable=0;points=[];autosize=1;strokeColor=none;fillColor=none;fontSize=16;fontStyle=1" vertex="1" parent="1IxWko4nvDgq_WzQ8Z8o-78">
          <mxGeometry x="11.25" y="27.99657142857143" width="110" height="30" as="geometry" />
        </mxCell>
        <mxCell id="1IxWko4nvDgq_WzQ8Z8o-83" value="" style="group;fontFamily=Lucida Console;" vertex="1" connectable="0" parent="1IxWko4nvDgq_WzQ8Z8o-95">
          <mxGeometry x="7.5" y="7" width="105" height="56" as="geometry" />
        </mxCell>
        <mxCell id="1IxWko4nvDgq_WzQ8Z8o-84" value="" style="rounded=0;whiteSpace=wrap;html=1;verticalAlign=bottom;dashed=1;fillColor=#CCCCCC;" vertex="1" parent="1IxWko4nvDgq_WzQ8Z8o-83">
          <mxGeometry width="105" height="56" as="geometry" />
        </mxCell>
        <mxCell id="1IxWko4nvDgq_WzQ8Z8o-85" value="&lt;b&gt;&lt;i&gt;&lt;font face=&quot;Verdana&quot;&gt;meepo&lt;/font&gt;&lt;/i&gt;&lt;/b&gt;" style="rounded=0;whiteSpace=wrap;html=1;fillColor=#FFFF66;strokeColor=#d6b656;fontColor=#333333;fontSize=12;strokeWidth=1;" vertex="1" parent="1IxWko4nvDgq_WzQ8Z8o-83">
          <mxGeometry width="105" height="21.538461538461537" as="geometry" />
        </mxCell>
        <mxCell id="1IxWko4nvDgq_WzQ8Z8o-86" value="ACCESSOR" style="text;html=1;align=center;verticalAlign=middle;resizable=0;points=[];autosize=1;strokeColor=none;fillColor=none;fontSize=16;fontStyle=1" vertex="1" parent="1IxWko4nvDgq_WzQ8Z8o-83">
          <mxGeometry x="11.25" y="27.99657142857143" width="110" height="30" as="geometry" />
        </mxCell>
        <mxCell id="1IxWko4nvDgq_WzQ8Z8o-87" value="" style="group;fontFamily=Lucida Console;" vertex="1" connectable="0" parent="1IxWko4nvDgq_WzQ8Z8o-95">
          <mxGeometry x="15" y="14" width="105" height="56" as="geometry" />
        </mxCell>
        <mxCell id="1IxWko4nvDgq_WzQ8Z8o-88" value="" style="rounded=0;whiteSpace=wrap;html=1;verticalAlign=bottom;dashed=1;fillColor=#CCCCCC;" vertex="1" parent="1IxWko4nvDgq_WzQ8Z8o-87">
          <mxGeometry width="105" height="56" as="geometry" />
        </mxCell>
        <mxCell id="1IxWko4nvDgq_WzQ8Z8o-89" value="&lt;b&gt;&lt;i&gt;&lt;font face=&quot;Verdana&quot;&gt;meepo&lt;/font&gt;&lt;/i&gt;&lt;/b&gt;" style="rounded=0;whiteSpace=wrap;html=1;fillColor=#FFFF66;strokeColor=#d6b656;fontColor=#333333;fontSize=12;strokeWidth=1;" vertex="1" parent="1IxWko4nvDgq_WzQ8Z8o-87">
          <mxGeometry width="105" height="21.538461538461537" as="geometry" />
        </mxCell>
        <mxCell id="1IxWko4nvDgq_WzQ8Z8o-90" value="ACCESSOR" style="text;html=1;align=center;verticalAlign=middle;resizable=0;points=[];autosize=1;strokeColor=none;fillColor=none;fontSize=16;fontStyle=1" vertex="1" parent="1IxWko4nvDgq_WzQ8Z8o-87">
          <mxGeometry x="-2.5" y="24.99657142857143" width="110" height="30" as="geometry" />
        </mxCell>
        <mxCell id="1IxWko4nvDgq_WzQ8Z8o-104" value="" style="group;fontFamily=Lucida Console;" vertex="1" connectable="0" parent="1">
          <mxGeometry x="720" y="900" width="140" height="80" as="geometry" />
        </mxCell>
        <mxCell id="1IxWko4nvDgq_WzQ8Z8o-105" value="" style="rounded=0;whiteSpace=wrap;html=1;verticalAlign=bottom;dashed=1;fillColor=#CCCCCC;" vertex="1" parent="1IxWko4nvDgq_WzQ8Z8o-104">
          <mxGeometry width="140" height="80" as="geometry" />
        </mxCell>
        <mxCell id="1IxWko4nvDgq_WzQ8Z8o-106" value="&lt;b&gt;&lt;i&gt;&lt;font face=&quot;Verdana&quot;&gt;meepo&lt;/font&gt;&lt;/i&gt;&lt;/b&gt;" style="rounded=0;whiteSpace=wrap;html=1;fillColor=#FFFF66;strokeColor=#d6b656;fontColor=#333333;fontSize=12;strokeWidth=1;" vertex="1" parent="1IxWko4nvDgq_WzQ8Z8o-104">
          <mxGeometry width="140" height="30.769230769230766" as="geometry" />
        </mxCell>
        <mxCell id="1IxWko4nvDgq_WzQ8Z8o-107" value="BIZ" style="text;html=1;align=center;verticalAlign=middle;resizable=0;points=[];autosize=1;strokeColor=none;fillColor=none;fontSize=16;fontStyle=1" vertex="1" parent="1IxWko4nvDgq_WzQ8Z8o-104">
          <mxGeometry x="45" y="39.99510204081633" width="50" height="30" as="geometry" />
        </mxCell>
        <mxCell id="1IxWko4nvDgq_WzQ8Z8o-108" value="" style="group" vertex="1" connectable="0" parent="1">
          <mxGeometry x="500" y="850" width="120" height="70" as="geometry" />
        </mxCell>
        <mxCell id="1IxWko4nvDgq_WzQ8Z8o-91" value="" style="group;fontFamily=Lucida Console;" vertex="1" connectable="0" parent="1IxWko4nvDgq_WzQ8Z8o-108">
          <mxGeometry width="105" height="56" as="geometry" />
        </mxCell>
        <mxCell id="1IxWko4nvDgq_WzQ8Z8o-92" value="" style="rounded=0;whiteSpace=wrap;html=1;verticalAlign=bottom;dashed=1;fillColor=#CCCCCC;" vertex="1" parent="1IxWko4nvDgq_WzQ8Z8o-91">
          <mxGeometry width="105" height="56" as="geometry" />
        </mxCell>
        <mxCell id="1IxWko4nvDgq_WzQ8Z8o-93" value="&lt;b&gt;&lt;i&gt;&lt;font face=&quot;Verdana&quot;&gt;meepo&lt;/font&gt;&lt;/i&gt;&lt;/b&gt;" style="rounded=0;whiteSpace=wrap;html=1;fillColor=#FFFF66;strokeColor=#d6b656;fontColor=#333333;fontSize=12;strokeWidth=1;" vertex="1" parent="1IxWko4nvDgq_WzQ8Z8o-91">
          <mxGeometry width="105" height="21.538461538461537" as="geometry" />
        </mxCell>
        <mxCell id="1IxWko4nvDgq_WzQ8Z8o-94" value="BIZ" style="text;html=1;align=center;verticalAlign=middle;resizable=0;points=[];autosize=1;strokeColor=none;fillColor=none;fontSize=16;fontStyle=1" vertex="1" parent="1IxWko4nvDgq_WzQ8Z8o-91">
          <mxGeometry x="33.75" y="27.99657142857143" width="50" height="30" as="geometry" />
        </mxCell>
        <mxCell id="1IxWko4nvDgq_WzQ8Z8o-96" value="" style="group;fontFamily=Lucida Console;" vertex="1" connectable="0" parent="1IxWko4nvDgq_WzQ8Z8o-108">
          <mxGeometry x="7.5" y="7" width="105" height="56" as="geometry" />
        </mxCell>
        <mxCell id="1IxWko4nvDgq_WzQ8Z8o-97" value="" style="rounded=0;whiteSpace=wrap;html=1;verticalAlign=bottom;dashed=1;fillColor=#CCCCCC;" vertex="1" parent="1IxWko4nvDgq_WzQ8Z8o-96">
          <mxGeometry width="105" height="56" as="geometry" />
        </mxCell>
        <mxCell id="1IxWko4nvDgq_WzQ8Z8o-98" value="&lt;b&gt;&lt;i&gt;&lt;font face=&quot;Verdana&quot;&gt;meepo&lt;/font&gt;&lt;/i&gt;&lt;/b&gt;" style="rounded=0;whiteSpace=wrap;html=1;fillColor=#FFFF66;strokeColor=#d6b656;fontColor=#333333;fontSize=12;strokeWidth=1;" vertex="1" parent="1IxWko4nvDgq_WzQ8Z8o-96">
          <mxGeometry width="105" height="21.538461538461537" as="geometry" />
        </mxCell>
        <mxCell id="1IxWko4nvDgq_WzQ8Z8o-99" value="BIZ" style="text;html=1;align=center;verticalAlign=middle;resizable=0;points=[];autosize=1;strokeColor=none;fillColor=none;fontSize=16;fontStyle=1" vertex="1" parent="1IxWko4nvDgq_WzQ8Z8o-96">
          <mxGeometry x="33.75" y="27.99657142857143" width="50" height="30" as="geometry" />
        </mxCell>
        <mxCell id="1IxWko4nvDgq_WzQ8Z8o-100" value="" style="group;fontFamily=Lucida Console;" vertex="1" connectable="0" parent="1IxWko4nvDgq_WzQ8Z8o-108">
          <mxGeometry x="15" y="14" width="105" height="56" as="geometry" />
        </mxCell>
        <mxCell id="1IxWko4nvDgq_WzQ8Z8o-101" value="" style="rounded=0;whiteSpace=wrap;html=1;verticalAlign=bottom;dashed=1;fillColor=#CCCCCC;" vertex="1" parent="1IxWko4nvDgq_WzQ8Z8o-100">
          <mxGeometry width="105" height="56" as="geometry" />
        </mxCell>
        <mxCell id="1IxWko4nvDgq_WzQ8Z8o-102" value="&lt;b&gt;&lt;i&gt;&lt;font face=&quot;Verdana&quot;&gt;meepo&lt;/font&gt;&lt;/i&gt;&lt;/b&gt;" style="rounded=0;whiteSpace=wrap;html=1;fillColor=#FFFF66;strokeColor=#d6b656;fontColor=#333333;fontSize=12;strokeWidth=1;" vertex="1" parent="1IxWko4nvDgq_WzQ8Z8o-100">
          <mxGeometry width="105" height="21.538461538461537" as="geometry" />
        </mxCell>
        <mxCell id="1IxWko4nvDgq_WzQ8Z8o-103" value="BIZ" style="text;html=1;align=center;verticalAlign=middle;resizable=0;points=[];autosize=1;strokeColor=none;fillColor=none;fontSize=16;fontStyle=1" vertex="1" parent="1IxWko4nvDgq_WzQ8Z8o-100">
          <mxGeometry x="27.5" y="21.536571428571428" width="50" height="30" as="geometry" />
        </mxCell>
      </root>
    </mxGraphModel>
  </diagram>
</mxfile>
